<?xml version="1.0" standalone="no"?>
<!DOCTYPE svg PUBLIC "-//W3C//DTD SVG 1.1//EN" "http://www.w3.org/Graphics/SVG/1.1/DTD/svg11.dtd" >
<svg xmlns="http://www.w3.org/2000/svg" xmlns:xlink="http://www.w3.org/1999/xlink" version="1.1">
<metadata>
Created by FontForge 20160407 at Thu Aug 25 20:00:16 2016
 By Jimmy Wärting
(c) 2010 Klim Type Foundry. All rights reserved.
</metadata>
<defs>
<font id="TiemposHeadline-Black" horiz-adv-x="500" >
  <font-face 
    font-family="Tiempos Headline Black"
    font-weight="900"
    font-stretch="normal"
    units-per-em="1000"
    panose-1="2 2 10 3 6 3 3 6 4 3"
    ascent="783"
    descent="-217"
    x-height="543"
    cap-height="702"
    bbox="-109 -250 1361 1050"
    underline-thickness="30"
    underline-position="-100"
    stemh="68"
    stemv="219"
    unicode-range="U+0020-FB04"
  />
<missing-glyph horiz-adv-x="960" 
d="M90 0v780h780v-780h-780zM480 345l-279 -279h558zM201 714l279 -279l279 279h-558zM435 390l-275 275v-550zM525 390l275 -275v550z" />
    <glyph glyph-name="fi" unicode="fi" horiz-adv-x="693" 
d="M624 553v-475c0 -30 16 -33 53 -36v-42h-309v42c37 3 50 6 50 36v408h-136v-408c0 -30 13 -33 50 -36v-42h-309v42c37 3 53 6 53 36v408h-71v45l71 17v8c0 159 126 227 275 227c128 0 192 -39 192 -103c0 -29 -16 -54 -39 -65h-117c3 14 5 31 5 49c0 35 -10 72 -50 72
c-41 0 -60 -35 -60 -108v-85h259l37 10h46z" />
    <glyph glyph-name="fl" unicode="fl" horiz-adv-x="693" 
d="M624 783v-705c0 -30 16 -33 53 -36v-42h-309v42c37 3 50 6 50 36v591c-14 36 -36 67 -78 67c-40 0 -58 -29 -58 -94v-99h84v-57h-84v-408c0 -30 13 -33 50 -36v-42h-309v42c37 3 53 6 53 36v408h-71v45l71 17v8c0 159 101 227 243 227c61 0 106 -13 138 -28l132 28h35z
" />
    <glyph glyph-name="ff" unicode="ff" horiz-adv-x="734" 
d="M76 548v7c0 159 113 216 244 216c65 0 118 -16 160 -52c46 44 113 64 186 64c115 0 166 -39 166 -103c0 -29 -16 -54 -39 -65h-103c3 14 5 31 5 49c0 35 -3 70 -33 70c-28 0 -38 -22 -38 -60v-131h114v-57h-114v-389c0 -44 22 -47 78 -55v-42h-334v42c37 3 50 6 50 36
v408h-136v-408c0 -30 13 -33 50 -36v-42h-309v42c37 3 53 6 53 36v408h-71v45zM418 556c0 32 5 61 13 86c-11 46 -39 82 -90 82c-42 0 -59 -32 -59 -94v-87h136v13z" />
    <glyph glyph-name="ffi" unicode="ffi" horiz-adv-x="1035" 
d="M76 548v7c0 159 113 216 244 216c67 0 121 -17 164 -55c51 46 126 67 209 67c128 0 192 -39 192 -103c0 -29 -16 -54 -39 -65h-117c3 14 5 31 5 49c0 35 -10 72 -50 72c-41 0 -60 -35 -60 -108v-85h259l37 10h46v-475c0 -30 16 -33 53 -36v-42h-309v42c37 3 50 6 50 36
v408h-136v-408c0 -30 16 -33 53 -36v-42h-309v42c37 3 50 6 50 36v408h-136v-408c0 -30 13 -33 50 -36v-42h-309v42c37 3 53 6 53 36v408h-71v45zM418 556c0 31 5 59 14 84c-11 46 -39 84 -91 84c-42 0 -59 -32 -59 -94v-87h136v13z" />
    <glyph glyph-name="ffl" unicode="ffl" horiz-adv-x="1035" 
d="M320 771c64 0 116 -16 158 -50c43 42 107 62 183 62c61 0 106 -13 138 -28l132 28h35v-705c0 -30 16 -33 53 -36v-42h-309v42c37 3 50 6 50 36v591c-14 36 -36 67 -78 67c-40 0 -58 -29 -58 -94v-99h84v-57h-84v-408c0 -30 13 -33 50 -36v-42h-306v42c37 3 50 6 50 36
v408h-136v-408c0 -30 13 -33 50 -36v-42h-309v42c37 3 53 6 53 36v408h-71v45l71 17v7c0 159 113 216 244 216zM418 543v13c0 33 4 63 13 89c-12 44 -40 79 -90 79c-42 0 -59 -32 -59 -94v-87h136z" />
    <glyph glyph-name="f_b" unicode="fb" horiz-adv-x="1015" 
d="M418 58v611c-14 36 -36 67 -78 67c-40 0 -58 -29 -58 -94v-99h84v-57h-84v-408c0 -30 13 -33 50 -36v-42h-309v42c37 3 53 6 53 36v408h-71v45l71 17v8c0 159 101 227 243 227c61 0 106 -13 138 -28l132 28h35v-329c26 44 81 99 168 99c116 0 203 -79 203 -247
c0 -210 -135 -316 -309 -316c-93 0 -200 16 -268 68zM685 41c67 0 100 90 100 206c0 136 -48 186 -115 186c-16 0 -30 -2 -46 -9v-283c0 -59 12 -100 61 -100z" />
    <glyph glyph-name="f_f_b" unicode="ffb" horiz-adv-x="1357" 
d="M760 58v611c-14 36 -36 67 -78 67c-40 0 -58 -29 -58 -94v-99h84v-57h-84v-408c0 -30 13 -33 50 -36v-42h-306v42c37 3 50 6 50 36v408h-136v-408c0 -30 13 -33 50 -36v-42h-309v42c37 3 53 6 53 36v408h-71v45l71 17v7c0 159 113 216 244 216c64 0 116 -16 158 -50
c43 42 107 62 183 62c61 0 106 -13 138 -28l132 28h35v-329c26 44 81 99 168 99c116 0 203 -79 203 -247c0 -210 -135 -316 -309 -316c-93 0 -200 16 -268 68zM1027 41c67 0 100 90 100 206c0 136 -48 186 -115 186c-16 0 -30 -2 -46 -9v-283c0 -59 12 -100 61 -100z
M418 556c0 33 4 63 13 89c-12 44 -40 79 -90 79c-42 0 -59 -32 -59 -94v-87h136v13z" />
    <glyph glyph-name="f_h" unicode="fh" horiz-adv-x="1027" 
d="M418 78v591c-14 36 -36 67 -78 67c-40 0 -58 -29 -58 -94v-99h74v-57h-74v-408c0 -30 13 -33 50 -36v-42h-309v42c37 3 53 6 53 36v408h-71v45l71 17v8c0 159 101 227 243 227c61 0 106 -13 138 -28l132 28h35v-331c36 47 93 101 187 101c97 0 155 -54 155 -164v-311
c0 -30 16 -33 53 -36v-42h-309v42c37 3 50 6 50 36v293c0 37 -12 62 -62 62c-28 0 -51 -5 -74 -13v-342c0 -30 13 -33 50 -36v-42h-309v42c37 3 53 6 53 36z" />
    <glyph glyph-name="f_f_h" unicode="ffh" horiz-adv-x="1369" 
d="M760 78v591c-14 36 -36 67 -78 67c-40 0 -58 -29 -58 -94v-99h84v-57h-84v-408c0 -30 13 -33 50 -36v-42h-306v42c37 3 50 6 50 36v408h-136v-408c0 -30 13 -33 50 -36v-42h-309v42c37 3 53 6 53 36v408h-71v45l71 17v7c0 159 113 216 244 216c64 0 116 -16 158 -50
c43 42 107 62 183 62c61 0 106 -13 138 -28l132 28h35v-331c36 47 93 101 187 101c97 0 155 -54 155 -164v-311c0 -30 16 -33 53 -36v-42h-309v42c37 3 50 6 50 36v293c0 37 -12 62 -62 62c-28 0 -51 -5 -74 -13v-342c0 -30 13 -33 50 -36v-42h-309v42c37 3 53 6 53 36z
M418 556c0 33 4 63 13 89c-12 44 -40 79 -90 79c-42 0 -59 -32 -59 -94v-87h136v13z" />
    <glyph glyph-name="f_idieresis" unicode="f&#xef;" horiz-adv-x="693" 
d="M624 553v-475c0 -30 16 -33 53 -36v-42h-309v42c37 3 50 6 50 36v408h-136v-408c0 -30 13 -33 50 -36v-42h-309v42c37 3 53 6 53 36v408h-71v45l71 17v8c0 159 126 227 271 227c115 0 168 -39 168 -103c0 -29 -16 -55 -39 -66h-115c3 14 5 31 5 49c0 39 -6 73 -34 73
c-31 0 -50 -35 -50 -108v-85h259l37 10h46zM540 691c0 48 41 88 88 88c51 0 91 -40 91 -88s-40 -88 -91 -88c-47 0 -88 40 -88 88z" />
    <glyph glyph-name="f_f_idieresis" unicode="ff&#xef;" horiz-adv-x="1035" 
d="M320 771c67 0 121 -17 164 -55c50 46 124 67 205 67c115 0 168 -39 168 -103c0 -29 -16 -55 -39 -66h-115c3 14 5 31 5 49c0 39 -6 73 -34 73c-31 0 -50 -35 -50 -108v-85h259l37 10h46v-475c0 -30 16 -33 53 -36v-42h-309v42c37 3 50 6 50 36v408h-136v-408
c0 -30 16 -33 53 -36v-42h-309v42c37 3 50 6 50 36v408h-136v-408c0 -30 13 -33 50 -36v-42h-309v42c37 3 53 6 53 36v408h-71v45l71 17v7c0 159 113 216 244 216zM882 691c0 48 41 88 88 88c51 0 91 -40 91 -88s-40 -88 -91 -88c-47 0 -88 40 -88 88zM418 543v13
c0 31 5 59 14 84c-11 46 -39 84 -91 84c-42 0 -59 -32 -59 -94v-87h136z" />
    <glyph glyph-name="f_j" unicode="fj" horiz-adv-x="674" 
d="M418 486h-136v-408c0 -30 13 -33 50 -36v-42h-309v42c37 3 53 6 53 36v408h-71v45l71 17v8c0 159 126 227 275 227c128 0 192 -39 192 -103c0 -29 -16 -54 -39 -65h-117c3 14 5 31 5 49c0 35 -10 72 -50 72c-41 0 -60 -35 -60 -108v-85h259l37 10h46v-442
c0 -119 -29 -171 -80 -217c-62 -55 -109 -76 -183 -105l-17 22l41 63c32 50 33 114 33 192v420z" />
    <glyph glyph-name="f_f_j" unicode="ffj" horiz-adv-x="1016" 
d="M760 486h-136v-408c0 -30 16 -33 53 -36v-42h-309v42c37 3 50 6 50 36v408h-136v-408c0 -30 13 -33 50 -36v-42h-309v42c37 3 53 6 53 36v408h-71v45l71 17v7c0 159 113 216 244 216c67 0 121 -17 164 -55c51 46 126 67 209 67c128 0 192 -39 192 -103
c0 -29 -16 -54 -39 -65h-117c3 14 5 31 5 49c0 35 -10 72 -50 72c-41 0 -60 -35 -60 -108v-85h259l37 10h46v-442c0 -119 -29 -171 -80 -217c-62 -55 -109 -76 -183 -105l-17 22l41 63c32 50 33 114 33 192v420zM418 556c0 31 5 59 14 84c-11 46 -39 84 -91 84
c-42 0 -59 -32 -59 -94v-87h136v13z" />
    <glyph glyph-name="f_k" unicode="fk" horiz-adv-x="1009" 
d="M630 283l152 137c28 25 34 38 34 51c0 18 -13 25 -59 30v42h233v-42c-33 -4 -57 -9 -84 -36l-106 -102l209 -334v-29h-212zM418 78v591c-14 36 -36 67 -78 67c-40 0 -58 -29 -58 -94v-99h84v-57h-84v-408c0 -30 13 -33 50 -36v-42h-309v42c37 3 53 6 53 36v408h-71v45
l71 17v8c0 159 101 227 243 227c61 0 106 -13 138 -28l132 28h35v-705c0 -30 16 -33 53 -36v-42h-312v42c37 3 53 6 53 36z" />
    <glyph glyph-name="f_f_k" unicode="ffk" horiz-adv-x="1351" 
d="M760 78v591c-14 36 -36 67 -78 67c-40 0 -58 -29 -58 -94v-99h84v-57h-84v-408c0 -30 13 -33 50 -36v-42h-306v42c37 3 50 6 50 36v408h-136v-408c0 -30 13 -33 50 -36v-42h-309v42c37 3 53 6 53 36v408h-71v45l71 17v7c0 159 113 216 244 216c64 0 116 -16 158 -50
c43 42 107 62 183 62c61 0 106 -13 138 -28l132 28h35v-705c0 -30 16 -33 53 -36v-42h-312v42c37 3 53 6 53 36zM972 283l152 137c28 25 34 38 34 51c0 18 -13 25 -59 30v42h233v-42c-33 -4 -57 -9 -84 -36l-106 -102l209 -334v-29h-212zM418 556c0 33 4 63 13 89
c-12 44 -40 79 -90 79c-42 0 -59 -32 -59 -94v-87h136v13z" />
    <glyph glyph-name=".notdef" horiz-adv-x="960" 
d="M90 0v780h780v-780h-780zM480 345l-279 -279h558zM201 714l279 -279l279 279h-558zM435 390l-275 275v-550zM525 390l275 -275v550z" />
    <glyph glyph-name="space" unicode=" " horiz-adv-x="165" 
 />
    <glyph glyph-name="exclam" unicode="!" horiz-adv-x="305" 
d="M51 93c0 59 46 106 101 106c57 0 102 -47 102 -106c0 -56 -45 -103 -102 -103c-55 0 -101 47 -101 103zM186 241h-67l-88 461h243z" />
    <glyph glyph-name="quotedbl" unicode="&#x22;" horiz-adv-x="387" 
d="M107 447h-16l-49 148c-10 31 -22 71 -22 94c0 42 24 81 79 81s79 -39 79 -81c0 -23 -12 -63 -22 -94zM296 447h-16l-49 148c-10 31 -22 71 -22 94c0 42 24 81 79 81s79 -39 79 -81c0 -23 -12 -63 -22 -94z" />
    <glyph glyph-name="numbersign" unicode="#" horiz-adv-x="523" 
d="M472 229h-124l-75 -239l-56 18l70 221h-129l-75 -239l-56 18l70 221h-72v51h88l45 142h-107v51h123l76 240l56 -18l-71 -222h129l76 240l56 -18l-71 -222h73v-51h-89l-45 -142h108v-51zM219 422l-45 -142h129l45 142h-129z" />
    <glyph glyph-name="dollar" unicode="$" horiz-adv-x="590" 
d="M279 -10c-10 0 -20 1 -30 1l-18 -104h-46l19 109c-70 9 -130 33 -166 61l-12 175h59c19 -84 64 -151 130 -178l35 196l-9 3c-139 38 -212 101 -212 224c0 147 113 235 264 235c14 0 27 -1 40 -2l19 104h46l-20 -109c56 -10 102 -29 135 -53v-153h-49
c-18 67 -48 119 -97 145l-34 -191c1 0 3 -1 5 -1c132 -37 224 -84 224 -231c0 -161 -127 -231 -283 -231zM393 130c0 57 -30 84 -99 107l-35 -194c6 -1 13 -1 20 -1c66 0 114 29 114 88zM192 571c0 -58 31 -82 97 -105l35 192c-10 2 -20 3 -31 3c-57 0 -101 -32 -101 -90z
" />
    <glyph glyph-name="percent" unicode="%" horiz-adv-x="802" 
d="M35 537c0 117 82 175 175 175s175 -58 175 -175s-82 -175 -175 -175s-175 58 -175 175zM156 537c0 -77 12 -138 54 -138s54 61 54 138s-12 138 -54 138s-54 -61 -54 -138zM153 -10l439 722h57l-439 -722h-57zM767 165c0 -117 -82 -175 -175 -175s-175 58 -175 175
s82 175 175 175s175 -58 175 -175zM646 165c0 77 -12 138 -54 138s-54 -61 -54 -138s12 -138 54 -138s54 61 54 138z" />
    <glyph glyph-name="ampersand" unicode="&#x26;" horiz-adv-x="752" 
d="M11 184c0 100 61 155 168 182c-25 34 -59 90 -59 157c0 115 88 189 228 189c128 0 220 -59 220 -158c0 -83 -55 -135 -162 -155l148 -181c9 22 14 46 14 71c0 32 -19 44 -54 44v46h216v-46c-71 0 -94 -15 -108 -72c-8 -29 -19 -58 -34 -84l45 -55c40 -49 58 -77 99 -77
v-45h-232c-18 14 -35 28 -49 41c-56 -32 -121 -51 -188 -51c-145 0 -252 72 -252 194zM349 73c20 0 40 3 60 10c-12 13 -24 27 -36 42l-165 206c-16 -26 -23 -57 -23 -96c0 -90 64 -162 164 -162zM291 595c0 -65 46 -111 81 -153l6 -8c30 30 45 76 45 137
c0 50 -19 96 -71 96c-40 0 -61 -31 -61 -72z" />
    <glyph glyph-name="quoteright" unicode="&#x2019;" horiz-adv-x="299" 
d="M161 561h-42c-46 11 -79 39 -79 94c0 60 46 97 104 97c70 0 115 -54 115 -133c0 -115 -77 -182 -219 -186v45c71 10 114 28 121 83z" />
    <glyph glyph-name="parenleft" unicode="(" horiz-adv-x="378" 
d="M60 314c0 172 90 345 239 456h59c-110 -136 -150 -304 -150 -456s40 -320 150 -456h-59c-149 111 -239 284 -239 456z" />
    <glyph glyph-name="parenright" unicode=")" horiz-adv-x="378" 
d="M318 314c0 -172 -90 -345 -239 -456h-59c110 136 150 304 150 456s-40 320 -150 456h59c149 -111 239 -284 239 -456z" />
    <glyph glyph-name="asterisk" unicode="*" horiz-adv-x="452" 
d="M367 585l-127 -30l127 -30c49 -11 66 -46 47 -79c-18 -32 -58 -35 -92 2l-89 94l38 -124c15 -48 -8 -80 -45 -80s-60 32 -45 80l38 124l-89 -94c-34 -37 -74 -34 -92 -2c-19 33 -2 68 47 79l126 30l-126 30c-49 11 -66 46 -47 79c18 32 58 35 92 -2l89 -95l-38 125
c-15 48 8 80 45 80s60 -32 45 -80l-38 -125l89 95c34 37 74 34 92 2c19 -33 2 -68 -47 -79z" />
    <glyph glyph-name="plus" unicode="+" horiz-adv-x="576" 
d="M252 591h71v-186h187v-72h-187v-186h-71v186h-186v72h186v186z" />
    <glyph glyph-name="comma" unicode="," horiz-adv-x="282" 
d="M156 7h-42c-46 11 -79 39 -79 94c0 60 46 97 104 97c70 0 115 -54 115 -133c0 -115 -77 -182 -219 -186v45c71 10 114 28 121 83z" />
    <glyph glyph-name="hyphen" unicode="-" horiz-adv-x="320" 
d="M290 267h-260v86h260v-86z" />
    <glyph glyph-name="period" unicode="." horiz-adv-x="282" 
d="M30 101c0 66 49 112 111 112s111 -46 111 -112s-49 -111 -111 -111s-111 45 -111 111z" />
    <glyph glyph-name="slash" unicode="/" horiz-adv-x="359" 
d="M354 770l-272 -911h-87l272 911h87z" />
    <glyph glyph-name="zero" unicode="0" horiz-adv-x="686" 
d="M343 35c74 0 90 136 90 316s-16 316 -90 316s-90 -136 -90 -316s16 -316 90 -316zM343 -10c-178 0 -318 125 -318 361s140 361 318 361s318 -125 318 -361s-140 -361 -318 -361z" />
    <glyph glyph-name="one" unicode="1" horiz-adv-x="436" 
d="M422 0h-397v45c88 4 91 11 91 72v408h-91v43l47 8c103 17 159 60 214 135h47v-594c0 -61 9 -67 89 -72v-45z" />
    <glyph glyph-name="two" unicode="2" horiz-adv-x="565" 
d="M195 172h173c62 0 83 4 134 99h33l-19 -271h-511v35l196 194c69 68 107 140 107 223c0 70 -39 120 -115 120c-52 0 -95 -23 -126 -58l-33 23c53 98 126 175 266 175c129 0 212 -71 212 -191c0 -148 -160 -248 -317 -349z" />
    <glyph glyph-name="three" unicode="3" horiz-adv-x="555" 
d="M311 404c136 -3 224 -77 224 -196c0 -146 -141 -218 -283 -218c-163 0 -247 64 -247 144c0 42 24 74 47 85h128c-7 -18 -12 -39 -12 -68c0 -64 28 -118 89 -118c50 0 79 45 79 130c0 95 -50 160 -147 160h-15l-13 31c106 45 128 85 128 138c0 52 -31 85 -91 85
c-57 0 -95 -25 -130 -65l-29 23c48 100 125 177 265 177c109 0 186 -52 186 -145c0 -102 -99 -148 -179 -163z" />
    <glyph glyph-name="four" unicode="4" horiz-adv-x="653" 
d="M87 236h216v312zM303 111v67h-298v38l337 486h173v-466h113v-58h-113v-67c0 -51 8 -64 76 -67v-44h-365v44c68 3 77 16 77 67z" />
    <glyph glyph-name="five" unicode="5" horiz-adv-x="554" 
d="M476 526h-334l-11 -59c263 9 398 -68 398 -245c0 -155 -121 -232 -271 -232c-162 0 -248 57 -248 139c0 39 23 73 54 89h120c-4 -15 -9 -36 -9 -60c0 -70 28 -124 96 -124c55 0 89 37 89 103c0 95 -86 147 -304 147l65 418h286c34 0 41 5 58 42h42z" />
    <glyph glyph-name="six" unicode="6" horiz-adv-x="622" 
d="M507 682c-165 -30 -235 -127 -257 -262c33 22 82 42 146 42c119 0 204 -83 204 -213c0 -164 -121 -259 -279 -259c-182 0 -293 131 -293 324c0 223 166 398 464 398zM274 383c-11 0 -20 0 -29 -1c-2 -24 -3 -49 -3 -74c0 -149 24 -272 93 -272c51 0 71 66 71 152
c0 105 -41 195 -132 195z" />
    <glyph glyph-name="seven" unicode="7" horiz-adv-x="525" 
d="M401 497h-260c-45 0 -69 -25 -91 -93h-41l45 298h471v-42l-282 -660h-122z" />
    <glyph glyph-name="eight" unicode="8" horiz-adv-x="600" 
d="M539 551c0 -73 -62 -115 -148 -120l20 -8c113 -49 164 -111 164 -210c0 -144 -115 -223 -278 -223c-169 0 -277 60 -277 171c0 75 66 124 154 131l-14 6c-73 33 -121 103 -121 193c0 141 115 221 259 221c153 0 241 -60 241 -161zM335 220l-133 60
c-24 -28 -36 -58 -36 -101c0 -91 52 -146 133 -146c65 0 113 35 113 96c0 50 -28 69 -77 91zM276 485l82 -40c22 21 45 54 45 109c0 66 -35 115 -106 115c-57 0 -97 -34 -97 -86c0 -48 27 -75 76 -98z" />
    <glyph glyph-name="nine" unicode="9" horiz-adv-x="622" 
d="M115 21c165 29 235 127 257 262c-33 -23 -83 -42 -146 -42c-119 0 -204 83 -204 213c0 164 121 259 279 259c182 0 293 -131 293 -324c0 -223 -166 -398 -464 -398zM348 320c10 0 20 0 28 1c3 24 4 48 4 74c0 149 -24 272 -93 272c-51 0 -71 -66 -71 -152
c0 -105 41 -195 132 -195z" />
    <glyph glyph-name="colon" unicode=":" horiz-adv-x="282" 
d="M30 101c0 66 49 112 111 112s111 -46 111 -112s-49 -111 -111 -111s-111 45 -111 111zM30 403c0 66 49 112 111 112s111 -46 111 -112s-49 -111 -111 -111s-111 45 -111 111z" />
    <glyph glyph-name="semicolon" unicode=";" horiz-adv-x="282" 
d="M156 7h-42c-46 11 -79 39 -79 94c0 60 46 97 104 97c70 0 115 -54 115 -133c0 -115 -77 -182 -219 -186v45c71 10 114 28 121 83zM30 403c0 66 49 112 111 112s111 -46 111 -112s-49 -111 -111 -111s-111 45 -111 111z" />
    <glyph glyph-name="less" unicode="&#x3c;" horiz-adv-x="428" 
d="M44 362v10l318 195v-86l-194 -113l194 -116v-85z" />
    <glyph glyph-name="equal" unicode="=" horiz-adv-x="586" 
d="M71 261v69h445v-69h-445zM71 408v70h445v-70h-445z" />
    <glyph glyph-name="greater" unicode="&#x3e;" horiz-adv-x="428" 
d="M384 372v-10l-318 -195v85l194 116l-194 113v86z" />
    <glyph glyph-name="question" unicode="?" horiz-adv-x="477" 
d="M304 600c0 42 -22 69 -63 69c-54 0 -69 -48 -69 -97c0 -30 3 -41 6 -61h-119c-29 14 -44 38 -44 69c0 81 88 132 224 132c148 0 228 -62 228 -171c0 -86 -46 -139 -138 -191c-57 -33 -79 -55 -79 -102v-9h-29c-55 19 -88 56 -88 112c0 43 25 86 77 124
c51 38 94 71 94 125zM131 93c0 59 45 106 101 106c57 0 102 -47 102 -106c0 -56 -45 -103 -102 -103c-56 0 -101 47 -101 103z" />
    <glyph glyph-name="at" unicode="@" horiz-adv-x="894" 
d="M610 77c-107 0 -130 75 -115 156c-50 -88 -97 -156 -174 -156c-59 0 -105 49 -105 129c0 135 109 286 259 286c48 0 83 -23 97 -42l78 32h46l-35 -94l-57 -198c-11 -39 -4 -74 29 -74c65 0 135 97 135 253c0 144 -107 281 -286 281c-217 0 -352 -174 -352 -391
c0 -229 157 -337 343 -337c110 0 186 25 270 76l14 -21c-72 -67 -175 -106 -306 -106c-216 0 -411 132 -411 385c0 243 187 437 442 437c235 0 372 -155 372 -324c0 -213 -142 -292 -244 -292zM389 174c55 0 117 123 143 250c-7 19 -20 31 -40 31c-74 0 -133 -138 -133 -231
c0 -31 9 -50 30 -50z" />
    <glyph glyph-name="A" unicode="A" horiz-adv-x="773" 
d="M461 129l-32 82h-247l-30 -82c-5 -14 -8 -26 -8 -36c0 -33 29 -44 80 -48v-45h-219v45c27 5 47 10 58 37l203 533l-35 87h233l245 -620c10 -25 30 -32 59 -37v-45h-375v45c46 2 76 13 76 47c0 10 -3 22 -8 37zM302 536l-99 -267h203z" />
    <glyph glyph-name="B" unicode="B" horiz-adv-x="718" 
d="M346 332h-32v-214c0 -54 16 -68 64 -68h7c60 0 107 44 107 144c0 92 -49 138 -146 138zM327 652h-13v-261h14c79 0 122 45 122 134c0 88 -49 127 -123 127zM414 0h-388v45c65 7 69 16 69 67v478c0 51 -4 60 -69 67v45h381c156 0 248 -59 248 -176
c0 -101 -89 -151 -188 -161c134 -4 236 -64 236 -174c0 -133 -99 -191 -289 -191z" />
    <glyph glyph-name="C" unicode="C" horiz-adv-x="695" 
d="M413 712c92 0 168 -21 225 -59l4 -181h-54c-26 120 -76 186 -167 186c-119 0 -166 -131 -166 -299c0 -181 60 -312 176 -312c78 0 142 60 184 214h55l-18 -203c-58 -43 -152 -68 -251 -68c-233 0 -376 128 -376 341c0 236 176 381 388 381z" />
    <glyph glyph-name="D" unicode="D" horiz-adv-x="807" 
d="M327 652h-13v-532c0 -59 22 -70 63 -70h6c106 0 173 117 173 288c0 198 -88 314 -229 314zM390 0h-364v45c65 7 69 16 69 67v478c0 51 -4 60 -69 67v45h339c283 0 417 -146 417 -346c0 -223 -148 -356 -392 -356z" />
    <glyph glyph-name="E" unicode="E" horiz-adv-x="664" 
d="M26 0v45c65 7 69 16 69 67v478c0 51 -4 60 -69 67v45h586l5 -199h-42c-54 113 -79 149 -175 149h-86v-260h83c47 0 58 23 66 93h47v-246h-47c-8 70 -19 93 -66 93h-83v-215c0 -54 25 -67 77 -67h22c94 0 113 39 187 177h50l-33 -227h-591z" />
    <glyph glyph-name="F" unicode="F" horiz-adv-x="625" 
d="M314 325v-213c0 -51 28 -63 115 -67v-45h-403v45c65 7 69 16 69 67v478c0 51 -4 60 -69 67v45h579l5 -207h-39c-59 114 -82 157 -178 157h-79v-267h76c47 0 58 23 66 93h47v-246h-47c-8 70 -19 93 -66 93h-76z" />
    <glyph glyph-name="G" unicode="G" horiz-adv-x="752" 
d="M469 50v172c0 51 -4 60 -69 67v45h342v-45c-65 -7 -69 -16 -69 -67v-166c-70 -44 -170 -66 -279 -66c-245 0 -369 146 -369 342c0 236 178 380 392 380c92 0 169 -21 227 -59l4 -181h-54c-26 120 -77 186 -169 186c-120 0 -170 -131 -170 -299s55 -314 170 -314
c18 0 29 1 44 5z" />
    <glyph glyph-name="H" unicode="H" horiz-adv-x="860" 
d="M314 590v-202h232v202c0 51 -4 60 -69 67v45h357v-45c-65 -7 -69 -16 -69 -67v-478c0 -51 4 -60 69 -67v-45h-357v45c65 7 69 16 69 67v208h-232v-208c0 -51 4 -60 69 -67v-45h-357v45c65 7 69 16 69 67v478c0 51 -4 60 -69 67v45h357v-45c-65 -7 -69 -16 -69 -67z" />
    <glyph glyph-name="I" unicode="I" horiz-adv-x="409" 
d="M314 590v-478c0 -51 4 -60 69 -67v-45h-357v45c65 7 69 16 69 67v478c0 51 -4 60 -69 67v45h357v-45c-65 -7 -69 -16 -69 -67z" />
    <glyph glyph-name="J" unicode="J" horiz-adv-x="606" 
d="M302 168v422c0 51 -4 60 -69 67v45h357v-45c-65 -7 -69 -16 -69 -67v-360c0 -167 -103 -240 -283 -240c-160 0 -243 55 -243 155c0 43 20 76 55 95h139c-4 -25 -7 -48 -7 -83c0 -63 11 -121 61 -121c56 0 59 55 59 132z" />
    <glyph glyph-name="K" unicode="K" horiz-adv-x="792" 
d="M505 439l205 -331c22 -35 40 -57 82 -63v-45h-253c-34 30 -66 76 -92 122l-125 218l230 239c18 18 29 32 29 49c0 16 -16 27 -67 29v45h244v-45c-41 -3 -58 -8 -83 -35zM314 590v-478c0 -51 4 -60 69 -67v-45h-357v45c65 7 69 16 69 67v478c0 51 -4 60 -69 67v45h357v-45
c-65 -7 -69 -16 -69 -67z" />
    <glyph glyph-name="L" unicode="L" horiz-adv-x="658" 
d="M314 590v-473c0 -54 21 -67 73 -67h21c62 0 99 35 196 197h47l-39 -247h-586v45c65 7 69 16 69 67v478c0 51 -4 60 -69 67v45h357v-45c-65 -7 -69 -16 -69 -67z" />
    <glyph glyph-name="M" unicode="M" horiz-adv-x="1001" 
d="M694 134l-47 364l-173 -498h-88l-177 498l-49 -364c-1 -8 -2 -21 -2 -25c0 -48 18 -59 97 -64v-45h-255v45c58 3 79 16 85 61l64 478c0 53 -18 70 -85 73v45h302c2 -23 8 -43 16 -66l123 -357l119 358c8 25 15 42 17 65h296v-45c-67 -3 -85 -20 -85 -73l64 -478
c7 -49 28 -58 85 -61v-45h-402v45c72 4 97 16 97 64c0 4 -1 17 -2 25z" />
    <glyph glyph-name="N" unicode="N" horiz-adv-x="757" 
d="M598 337v253c0 51 -21 61 -102 67v45h244v-45c-65 -7 -69 -16 -69 -67v-590h-82l-421 516v-404c0 -51 21 -61 102 -67v-45h-244v45c65 7 69 16 69 67v480c-23 42 -37 62 -69 65v45h274z" />
    <glyph glyph-name="O" unicode="O" horiz-adv-x="758" 
d="M384 42c94 0 119 155 119 294c0 184 -34 324 -129 324c-94 0 -119 -155 -119 -294c0 -184 34 -324 129 -324zM369 -10c-227 0 -344 160 -344 347c0 230 151 375 364 375c227 0 344 -160 344 -347c0 -230 -151 -375 -364 -375z" />
    <glyph glyph-name="P" unicode="P" horiz-adv-x="687" 
d="M314 267v-155c0 -51 28 -63 115 -67v-45h-403v45c65 7 69 16 69 67v478c0 51 -4 60 -69 67v45h364c198 0 290 -90 290 -213c0 -142 -97 -222 -301 -222h-65zM314 652v-328h13c90 0 140 64 140 165c0 105 -58 163 -140 163h-13z" />
    <glyph glyph-name="Q" unicode="Q" horiz-adv-x="758" 
d="M345 -62l-44 57c-183 29 -276 174 -276 342c0 230 151 375 364 375c227 0 344 -160 344 -347c0 -195 -108 -328 -270 -365l89 -60c51 -35 78 -50 133 -50v-19c-25 -26 -71 -58 -137 -58c-68 0 -134 35 -203 125zM384 42c94 0 119 155 119 294c0 184 -34 324 -129 324
c-94 0 -119 -155 -119 -294c0 -184 34 -324 129 -324z" />
    <glyph glyph-name="R" unicode="R" horiz-adv-x="778" 
d="M335 649h-21v-305h22c85 0 136 57 136 156c0 95 -50 149 -137 149zM314 290v-178c0 -51 4 -60 69 -67v-45h-357v45c65 7 69 16 69 67v478c0 51 -4 60 -69 67v45h389c161 0 273 -75 273 -201c0 -98 -70 -153 -143 -179l133 -196c40 -60 55 -78 100 -81v-45h-247
c-28 22 -54 58 -84 110l-103 180h-30z" />
    <glyph glyph-name="S" unicode="S" horiz-adv-x="592" 
d="M281 -10c-102 0 -192 30 -241 67l-12 175h59c25 -108 93 -190 194 -190c66 0 111 29 111 88c0 60 -42 88 -149 117c-139 38 -212 107 -212 230c0 147 113 235 264 235c95 0 172 -24 220 -60v-153h-49c-25 97 -78 162 -171 162c-57 0 -98 -32 -98 -87
c0 -62 42 -88 143 -116c132 -37 224 -90 224 -237c0 -161 -127 -231 -283 -231z" />
    <glyph glyph-name="T" unicode="T" horiz-adv-x="723" 
d="M30 702h663l15 -261h-45c-77 162 -106 218 -168 218h-24v-552c0 -51 14 -55 79 -62v-45h-377v45c65 7 79 11 79 62v552h-24c-62 0 -91 -56 -168 -218h-45z" />
    <glyph glyph-name="U" unicode="U" horiz-adv-x="763" 
d="M303 590v-325c0 -113 39 -183 148 -183c83 0 155 47 155 187v321c0 51 -11 61 -92 67v45h234v-45c-65 -7 -69 -16 -69 -67v-341c0 -177 -126 -259 -285 -259c-199 0 -310 87 -310 259v341c0 51 -4 60 -69 67v45h357v-45c-65 -7 -69 -16 -69 -67z" />
    <glyph glyph-name="V" unicode="V" horiz-adv-x="741" 
d="M466 269l118 304c6 15 11 29 11 40c0 29 -10 41 -69 44v45h210v-45c-29 -5 -48 -10 -59 -37l-256 -623h-64l-294 623c-13 27 -29 32 -58 37v45h377v-45c-59 -3 -69 -15 -69 -44c0 -11 4 -27 10 -40z" />
    <glyph glyph-name="W" unicode="W" horiz-adv-x="1028" 
d="M661 -3l-133 385l-143 -385h-81l-241 623c-9 22 -30 32 -58 37v45h345v-45c-34 -4 -46 -17 -46 -38c0 -16 7 -36 15 -58l108 -287l71 193l-52 153c-8 22 -21 32 -49 37v45h345v-45c-49 -1 -65 -15 -65 -43c0 -17 6 -39 14 -66l86 -269l93 273c7 22 13 42 13 58
c0 27 -16 44 -64 47v45h204v-45c-28 -5 -50 -15 -58 -37l-222 -623h-82z" />
    <glyph glyph-name="X" unicode="X" horiz-adv-x="763" 
d="M427 120l-109 159l-138 -173c-8 -10 -12 -19 -12 -27c0 -19 30 -32 80 -34v-45h-243v45c40 6 56 18 67 32l209 256l-200 292c-12 17 -31 27 -56 32v45h364v-45c-34 0 -50 -7 -50 -30c0 -14 8 -25 22 -45l77 -115l99 129c8 11 12 20 12 29c0 19 -24 30 -60 32v45h221v-45
c-40 -6 -55 -17 -67 -32l-169 -211l221 -327c19 -28 35 -37 63 -42v-45h-379v45c54 2 70 7 70 30c0 13 -6 22 -22 45z" />
    <glyph glyph-name="Y" unicode="Y" horiz-adv-x="727" 
d="M481 258v-151c0 -51 14 -55 79 -62v-45h-372v45c65 7 79 11 79 62v146l-204 367c-15 28 -29 32 -58 37v45h365v-45c-51 -2 -63 -12 -63 -36c0 -22 8 -39 24 -68l123 -210l103 208c12 25 25 52 25 70c0 24 -23 34 -66 36v45h206v-45c-28 -5 -46 -13 -58 -37z" />
    <glyph glyph-name="Z" unicode="Z" horiz-adv-x="643" 
d="M266 50h105c84 0 120 33 209 189h48l-37 -239h-576v39l339 613h-97c-97 0 -114 -43 -174 -174h-45l10 224h559v-39z" />
    <glyph glyph-name="bracketleft" unicode="[" horiz-adv-x="342" 
d="M209 668v-707c0 -52 23 -55 103 -60v-42h-227v911h227v-42c-80 -5 -103 -8 -103 -60z" />
    <glyph glyph-name="backslash" unicode="\" horiz-adv-x="359" 
d="M277 -141l-272 911h87l272 -911h-87z" />
    <glyph glyph-name="bracketright" unicode="]" horiz-adv-x="342" 
d="M133 -39v707c0 52 -23 55 -103 60v42h227v-911h-227v42c80 5 103 8 103 60z" />
    <glyph glyph-name="asciicircum" unicode="^" horiz-adv-x="470" 
d="M275 770l165 -290h-77l-128 231l-128 -231h-77l165 290h80z" />
    <glyph glyph-name="underscore" unicode="_" horiz-adv-x="420" 
d="M400 -149h-380v83h380v-83z" />
    <glyph glyph-name="quoteleft" unicode="&#x2018;" horiz-adv-x="299" 
d="M138 629h42c46 -11 79 -39 79 -94c0 -60 -46 -97 -104 -97c-70 0 -115 54 -115 133c0 115 77 182 219 186v-45c-71 -10 -114 -28 -121 -83z" />
    <glyph glyph-name="a" unicode="a" horiz-adv-x="568" 
d="M276 98c11 0 19 2 29 5v185l-40 -15c-32 -12 -54 -28 -54 -87c0 -50 17 -88 65 -88zM507 375v-265c0 -20 2 -41 25 -41c13 0 26 3 31 5l7 -30c-35 -32 -79 -54 -139 -54c-61 0 -105 30 -123 83c-28 -43 -74 -79 -148 -79c-86 0 -147 47 -147 136c0 88 60 124 130 148
l162 56v110c0 40 -10 67 -43 67c-35 0 -48 -31 -48 -77c0 -24 4 -49 10 -74l-124 -16c-30 10 -52 35 -52 73c0 95 98 136 223 136c146 0 236 -43 236 -178z" />
    <glyph glyph-name="b" unicode="b" horiz-adv-x="650" 
d="M53 677l-53 27v34l224 45h35v-329c26 44 81 99 168 99c116 0 203 -79 203 -247c0 -210 -135 -316 -309 -316c-93 0 -200 16 -268 68v619zM320 41c67 0 100 90 100 206c0 136 -48 186 -115 186c-16 0 -30 -2 -46 -9v-283c0 -59 12 -100 61 -100z" />
    <glyph glyph-name="c" unicode="c" horiz-adv-x="517" 
d="M198 330c0 -126 56 -203 155 -203c57 0 99 18 130 62l24 -15c-33 -129 -118 -184 -234 -184c-142 0 -253 99 -253 265c0 171 112 298 282 298c102 0 190 -38 190 -131c0 -41 -24 -66 -47 -76h-103c3 24 4 43 4 60c0 60 -16 99 -60 99c-56 0 -88 -75 -88 -175z" />
    <glyph glyph-name="d" unicode="d" horiz-adv-x="660" 
d="M325 486c-66 0 -97 -71 -97 -179c0 -123 42 -205 113 -205c14 0 29 2 44 7v284c0 61 -12 93 -60 93zM385 677l-53 27v34l224 45h35v-664c0 -34 3 -51 32 -51h23v-44l-225 -34h-39l3 95c-41 -64 -96 -95 -163 -95c-116 0 -202 89 -202 257c0 198 121 301 270 301
c39 0 73 -9 95 -27v156z" />
    <glyph glyph-name="e" unicode="e" horiz-adv-x="541" 
d="M297 553c150 0 226 -93 226 -224v-25h-317c0 -110 62 -180 150 -180c63 0 111 21 149 70l21 -13c-28 -116 -107 -191 -238 -191c-149 0 -268 95 -268 270c0 181 129 293 277 293zM284 509c-50 0 -73 -62 -77 -156h141c0 99 -16 156 -64 156z" />
    <glyph glyph-name="f" unicode="f" horiz-adv-x="392" 
d="M282 486v-389c0 -44 22 -47 78 -55v-42h-337v42c37 3 53 6 53 36v408h-71v45l71 17v8c0 159 113 227 248 227c115 0 166 -39 166 -103c0 -29 -16 -54 -39 -65h-103c3 14 5 31 5 49c0 35 -3 70 -33 70c-28 0 -38 -22 -38 -60v-131h114v-57h-114z" />
    <glyph glyph-name="g" unicode="g" horiz-adv-x="571" 
d="M265 187c-38 0 -79 5 -116 17c-13 -12 -25 -25 -25 -44c0 -15 10 -27 27 -27h223c144 0 200 -62 200 -154c0 -131 -123 -202 -311 -202c-164 0 -266 42 -266 121c0 49 50 70 92 74c-43 17 -68 61 -68 104c0 68 46 111 100 139c-56 26 -97 71 -97 145
c0 122 105 193 250 193c41 0 71 -6 97 -13l183 4v-72h-47l-57 2c37 -25 61 -63 61 -113c0 -112 -107 -174 -246 -174zM386 -54h-274c-4 -5 -5 -16 -5 -27c0 -58 65 -91 159 -91c87 0 168 19 168 80c0 26 -16 38 -48 38zM272 230c41 0 51 46 51 136c0 74 -17 142 -58 142
c-40 0 -51 -47 -51 -132c0 -79 18 -146 58 -146z" />
    <glyph glyph-name="h" unicode="h" horiz-adv-x="680" 
d="M71 78v599l-53 27v34l224 45h35v-331c36 47 93 101 187 101c97 0 155 -54 155 -164v-311c0 -30 16 -33 53 -36v-42h-309v42c37 3 50 6 50 36v293c0 37 -12 62 -62 62c-28 0 -51 -5 -74 -13v-342c0 -30 13 -33 50 -36v-42h-309v42c37 3 53 6 53 36z" />
    <glyph glyph-name="i" unicode="i" horiz-adv-x="350" 
d="M281 553v-475c0 -30 16 -33 53 -36v-42h-312v42c37 3 53 6 53 36v350l-53 34v31l223 60h36zM181 590c-67 0 -106 46 -106 99s39 99 106 99c66 0 106 -46 106 -99s-40 -99 -106 -99z" />
    <glyph glyph-name="j" unicode="j" horiz-adv-x="315" 
d="M59 428l-53 34v31l223 60h36v-442c0 -119 -29 -171 -80 -217c-62 -55 -109 -76 -183 -105l-17 22l41 63c32 50 33 114 33 192v362zM162 590c-67 0 -106 46 -106 99s39 99 106 99c66 0 106 -46 106 -99s-40 -99 -106 -99z" />
    <glyph glyph-name="k" unicode="k" horiz-adv-x="662" 
d="M283 283l152 137c28 25 34 38 34 51c0 18 -13 25 -59 30v42h233v-42c-33 -4 -57 -9 -84 -36l-106 -102l209 -334v-29h-212zM71 78v599l-53 27v34l224 45h35v-705c0 -30 16 -33 53 -36v-42h-312v42c37 3 53 6 53 36z" />
    <glyph glyph-name="l" unicode="l" horiz-adv-x="346" 
d="M277 783v-705c0 -30 16 -33 53 -36v-42h-312v42c37 3 53 6 53 36v599l-53 27v34l224 45h35z" />
    <glyph glyph-name="m" unicode="m" horiz-adv-x="998" 
d="M731 78v296c0 37 -12 60 -54 60c-26 0 -46 -7 -68 -15v-341c0 -30 9 -33 46 -36v-42h-298v42c37 3 46 6 46 36v296c0 37 -12 60 -54 60c-26 0 -46 -6 -68 -14v-342c0 -30 9 -33 46 -36v-42h-305v42c37 3 53 6 53 36v350l-53 34v31l223 60h40l-4 -103
c35 55 91 103 182 103c78 0 129 -30 142 -105c34 54 96 105 184 105c93 0 148 -53 148 -157v-318c0 -30 16 -33 53 -36v-42h-305v42c37 3 46 6 46 36z" />
    <glyph glyph-name="n" unicode="n" horiz-adv-x="684" 
d="M417 78v293c0 37 -12 62 -62 62c-28 0 -51 -5 -74 -13v-342c0 -30 13 -33 50 -36v-42h-309v42c37 3 53 6 53 36v350l-53 34v31l223 60h40l-4 -101c36 47 93 101 187 101c97 0 155 -54 155 -164v-311c0 -30 16 -33 53 -36v-42h-309v42c37 3 50 6 50 36z" />
    <glyph glyph-name="o" unicode="o" horiz-adv-x="620" 
d="M315 34c53 0 66 74 66 199c0 171 -19 276 -76 276c-53 0 -66 -74 -66 -199c0 -171 19 -276 76 -276zM310 -10c-171 0 -290 105 -290 272s119 291 290 291s290 -105 290 -272s-119 -291 -290 -291z" />
    <glyph glyph-name="p" unicode="p" horiz-adv-x="665" 
d="M335 41c67 0 100 90 100 206c0 136 -48 186 -115 186c-16 0 -30 -2 -46 -9v-283c0 -59 12 -100 61 -100zM68 -134v562l-53 34v31l223 60h40l-4 -99c26 44 81 99 168 99c116 0 203 -79 203 -247c0 -210 -127 -316 -290 -316c-36 0 -66 6 -81 17v-136c0 -35 18 -36 74 -41
v-42h-333v42c37 3 53 6 53 36z" />
    <glyph glyph-name="q" unicode="q" horiz-adv-x="644" 
d="M325 501c-66 0 -97 -76 -97 -184c0 -123 42 -215 113 -215c14 0 29 2 44 7v299c0 61 -21 93 -60 93zM385 -129v214c-31 -51 -84 -95 -163 -95c-116 0 -202 89 -202 257c0 198 122 306 279 306c78 0 133 -21 176 -61l80 58h41l-5 -124v-560c0 -30 16 -33 53 -36v-42h-333
v42c56 5 74 6 74 41z" />
    <glyph glyph-name="r" unicode="r" horiz-adv-x="478" 
d="M281 355v-258c0 -44 22 -47 78 -55v-42h-337v42c37 3 53 6 53 36v350l-53 34v31l223 60h40l-4 -156c38 120 75 156 139 156c25 0 42 -7 53 -17v-153h-26c-64 0 -123 -2 -166 -28z" />
    <glyph glyph-name="s" unicode="s" horiz-adv-x="487" 
d="M231 -10c-87 0 -151 20 -196 51l-6 135h51c18 -80 72 -141 149 -141c45 0 81 21 81 63c0 49 -39 64 -103 83c-116 34 -179 84 -179 189c0 119 90 183 215 183c69 0 133 -18 176 -46v-120h-47c-10 63 -55 121 -124 121c-40 0 -68 -21 -68 -57c0 -40 29 -55 90 -75
c125 -41 192 -82 192 -197c0 -121 -91 -189 -231 -189z" />
    <glyph glyph-name="t" unicode="t" horiz-adv-x="405" 
d="M268 682v-139h111v-57h-111v-331c0 -43 17 -62 51 -62c24 0 47 9 70 25l16 -25c-40 -67 -99 -103 -183 -103c-96 0 -163 48 -163 168v328h-54v37c85 30 163 89 219 159h44z" />
    <glyph glyph-name="u" unicode="u" horiz-adv-x="669" 
d="M600 421v-302c0 -34 3 -51 32 -51h23v-44l-225 -34h-39l3 98c-34 -46 -87 -98 -180 -98c-90 0 -154 54 -154 171v237c0 28 -7 51 -35 60l-15 5v40l224 50h38l-6 -132v-242c0 -46 18 -72 63 -72c25 0 40 3 65 11v280c0 28 -7 51 -35 60l-15 5v40l224 50h38z" />
    <glyph glyph-name="v" unicode="v" horiz-adv-x="616" 
d="M611 543v-42c-34 -11 -41 -18 -51 -40l-210 -464h-59l-235 464c-11 22 -17 29 -51 40v42h342v-42c-53 -7 -65 -14 -65 -35c0 -9 2 -14 8 -28l100 -212l91 212c6 14 8 19 8 28c0 21 -12 28 -65 35v42h187z" />
    <glyph glyph-name="w" unicode="w" horiz-adv-x="923" 
d="M708 236l82 202c5 13 8 24 8 32c0 20 -17 27 -55 31v42h175v-42c-34 -11 -42 -18 -51 -40l-200 -464h-68l-118 302l-142 -302h-68l-215 464c-10 22 -17 29 -51 40v42h318v-42c-30 -4 -42 -13 -42 -29c0 -9 3 -20 9 -34l90 -214l70 145l-36 92c-8 22 -20 32 -45 40v42h316
v-42c-41 -5 -60 -9 -60 -33c0 -8 2 -18 6 -30z" />
    <glyph glyph-name="x" unicode="x" horiz-adv-x="632" 
d="M334 108l-84 113l-82 -110c-9 -12 -13 -23 -13 -32c0 -21 22 -36 61 -37v-42h-211v42c35 10 56 25 69 43l140 185l-140 191c-11 15 -19 25 -48 40v42h315v-42c-28 -2 -44 -11 -44 -28c0 -10 6 -22 17 -38l65 -88l63 85c11 15 18 28 18 39c0 16 -15 26 -46 30v42h185v-42
c-35 -10 -51 -25 -64 -43l-122 -158l161 -218c11 -15 24 -28 53 -40v-42h-330v42c35 1 53 11 53 29c0 10 -5 22 -16 37z" />
    <glyph glyph-name="y" unicode="y" horiz-adv-x="616" 
d="M387 202l94 234c5 14 8 21 8 30c0 21 -12 28 -65 35v42h187v-42c-34 -11 -42 -18 -51 -40l-232 -544c-39 -91 -78 -139 -150 -139c-41 0 -71 16 -86 40v81c27 -5 50 -10 82 -10c57 0 84 16 101 52l15 32l-234 488c-10 22 -17 29 -51 40v42h342v-42
c-53 -7 -65 -14 -65 -35c0 -9 3 -16 7 -28z" />
    <glyph glyph-name="z" unicode="z" horiz-adv-x="550" 
d="M15 0v38l280 457h-80c-51 0 -86 -49 -137 -156h-42l14 236h40l22 -32h415v-37l-274 -457h90c69 0 100 44 156 154h41l-24 -203h-501z" />
    <glyph glyph-name="braceleft" unicode="{" horiz-adv-x="373" 
d="M50 304v20c48 10 83 36 83 100v218c0 79 57 128 215 128v-31c-47 -6 -85 -31 -85 -98v-205c0 -78 -50 -108 -121 -122c71 -14 121 -44 121 -122v-204c0 -67 38 -92 85 -98v-31c-158 0 -215 49 -215 128v217c0 64 -35 90 -83 100z" />
    <glyph glyph-name="bar" unicode="|" horiz-adv-x="202" 
d="M142 770v-911h-82v911h82z" />
    <glyph glyph-name="braceright" unicode="}" horiz-adv-x="383" 
d="M333 324v-20c-48 -10 -83 -36 -83 -100v-217c0 -79 -57 -128 -215 -128v31c47 6 85 31 85 98v204c0 78 50 108 121 122c-71 14 -121 44 -121 122v205c0 67 -38 92 -85 98v31c158 0 215 -49 215 -128v-218c0 -64 35 -90 83 -100z" />
    <glyph glyph-name="asciitilde" unicode="~" horiz-adv-x="502" 
d="M439 403l33 -17c-31 -111 -78 -169 -148 -169c-60 0 -111 76 -166 76c-43 0 -72 -34 -95 -71l-33 17c31 111 78 169 148 169c60 0 111 -76 166 -76c43 0 72 34 95 71z" />
    <glyph glyph-name="exclamdown" unicode="&#xa1;" horiz-adv-x="305" 
d="M51 510c0 56 46 103 101 103c57 0 102 -47 102 -103c0 -59 -45 -106 -102 -106c-55 0 -101 47 -101 106zM119 362h67l88 -461h-243z" />
    <glyph glyph-name="cent" unicode="&#xa2;" horiz-adv-x="537" 
d="M187 -117l19 116c-110 27 -186 121 -186 264c0 173 112 303 283 307l19 107h44l-19 -109c89 -8 160 -49 160 -133c0 -42 -25 -68 -49 -78h-80c3 25 4 46 4 64c0 48 -10 83 -43 96l-64 -376c23 -13 50 -19 81 -19c66 0 109 28 141 73l25 -15c-34 -133 -126 -190 -245 -190
c-10 0 -19 0 -28 1l-18 -108h-44zM190 335c0 -74 16 -127 46 -162l59 349c-63 -6 -105 -83 -105 -187z" />
    <glyph glyph-name="sterling" unicode="&#xa3;" horiz-adv-x="712" 
d="M99 347v45h101l2 39c9 185 91 281 267 281c102 0 197 -37 197 -125c0 -41 -25 -72 -54 -82h-106c8 19 15 42 15 80c0 39 -3 88 -40 88c-36 0 -50 -35 -56 -101l-16 -180h148v-45h-152c-9 -86 -29 -150 -49 -186c50 -18 132 -25 185 -25c54 0 90 20 90 63
c0 16 -3 24 -8 36l33 11c14 -18 31 -54 31 -96c0 -101 -61 -160 -169 -160c-99 0 -170 50 -215 86c-35 -49 -96 -86 -171 -86c-74 0 -122 41 -122 107c0 68 48 107 112 107c19 0 46 -3 68 -12l8 155h-99zM119 43c42 0 65 36 67 96c-19 11 -39 22 -65 22
c-37 0 -58 -24 -58 -62c0 -35 23 -56 56 -56z" />
    <glyph glyph-name="fraction" unicode="&#x2044;" horiz-adv-x="283" 
d="M-109 -10l438 722h58l-439 -722h-57z" />
    <glyph glyph-name="yen" unicode="&#xa5;" horiz-adv-x="701" 
d="M92 351v48h94l-123 221c-15 28 -29 32 -58 37v45h359v-45c-51 -2 -63 -12 -63 -38c0 -20 8 -37 24 -66l109 -204l98 202c12 26 18 44 18 68c0 26 -21 36 -64 38v45h210v-45c-28 -5 -46 -13 -58 -37l-110 -221h95v-48h-119l-38 -78h157v-47h-158v-119c0 -51 14 -55 79 -62
v-45h-366v45c65 7 79 11 79 62v119h-165v47h164l-44 78h-120z" />
    <glyph glyph-name="florin" unicode="&#x192;" horiz-adv-x="554" 
d="M59 347l4 45h88v1c23 211 101 319 260 319c72 0 143 -22 143 -93c0 -30 -18 -56 -52 -67h-59c0 58 -1 125 -42 125c-23 0 -34 -15 -38 -51l-26 -234h115l-4 -45h-116l-22 -207c-23 -211 -101 -319 -260 -319c-72 0 -143 22 -143 93c0 30 18 56 52 67h59
c0 -58 1 -125 42 -125c23 0 34 15 38 51l48 440h-87z" />
    <glyph glyph-name="section" unicode="&#xa7;" horiz-adv-x="531" 
d="M157 630c-42 -44 -60 -85 -60 -157c0 -104 50 -190 114 -279c59 -84 157 -203 163 -315c42 44 60 85 60 157c0 103 -50 189 -114 279c-59 83 -157 202 -163 315zM230 -203c-95 0 -164 45 -164 114c0 36 22 53 45 61h94v-50c0 -40 8 -90 65 -90c41 0 56 28 56 61
c0 86 -86 174 -156 272c-69 97 -123 192 -123 308c0 146 112 239 254 239c95 0 164 -45 164 -114c0 -36 -22 -53 -45 -61h-94v50c0 40 -8 90 -65 90c-41 0 -56 -28 -56 -61c0 -86 86 -174 156 -272c69 -97 123 -192 123 -308c0 -146 -112 -239 -254 -239z" />
    <glyph glyph-name="currency" unicode="&#xa4;" horiz-adv-x="582" 
d="M65 542l31 31l73 -75c33 28 75 44 122 44c46 0 89 -16 122 -44l73 75l31 -31l-74 -74c25 -33 40 -76 40 -123c0 -48 -15 -90 -40 -123l74 -74l-31 -31l-73 74c-33 -27 -76 -43 -122 -43c-47 0 -89 16 -122 43l-73 -74l-31 31l74 74c-26 33 -40 75 -40 123
c0 47 14 90 40 123zM159 345c0 -82 57 -141 132 -141s131 59 131 141c0 83 -56 142 -131 142s-132 -59 -132 -142z" />
    <glyph glyph-name="quotesingle" unicode="'" horiz-adv-x="198" 
d="M107 447h-16l-49 148c-10 31 -22 71 -22 94c0 42 24 81 79 81s79 -39 79 -81c0 -23 -12 -63 -22 -94z" />
    <glyph glyph-name="quotedblleft" unicode="&#x201c;" horiz-adv-x="546" 
d="M385 629h42c46 -11 79 -39 79 -94c0 -60 -46 -97 -104 -97c-70 0 -115 54 -115 133c0 115 77 182 219 186v-45c-71 -10 -114 -28 -121 -83zM138 629h42c46 -11 79 -39 79 -94c0 -60 -46 -97 -104 -97c-70 0 -115 54 -115 133c0 115 77 182 219 186v-45
c-71 -10 -114 -28 -121 -83z" />
    <glyph glyph-name="guillemotleft" unicode="&#xab;" horiz-adv-x="474" 
d="M20 273v6l187 202h50l-82 -205l82 -205h-50zM217 273v6l187 202h50l-82 -205l82 -205h-50z" />
    <glyph glyph-name="guilsinglleft" unicode="&#x2039;" horiz-adv-x="277" 
d="M20 273v6l187 202h50l-82 -205l82 -205h-50z" />
    <glyph glyph-name="guilsinglright" unicode="&#x203a;" horiz-adv-x="277" 
d="M257 279v-6l-187 -202h-50l82 205l-82 205h50z" />
    <glyph glyph-name="endash" unicode="&#x2013;" horiz-adv-x="540" 
d="M510 272h-480v66h480v-66z" />
    <glyph glyph-name="dagger" unicode="&#x2020;" horiz-adv-x="384" 
d="M204 575c0 -45 33 -81 60 -96v-9c-27 -39 -61 -181 -65 -332h-14c-4 151 -38 293 -65 332v9c27 15 60 51 60 96c-49 0 -70 -45 -112 -45c-24 0 -48 19 -48 56s24 56 48 56c42 0 63 -45 112 -45c0 49 -44 71 -44 113c0 24 19 48 56 48s56 -24 56 -48
c0 -42 -44 -64 -44 -113c49 0 70 45 112 45c24 0 48 -19 48 -56s-24 -56 -48 -56c-42 0 -63 45 -112 45z" />
    <glyph glyph-name="daggerdbl" unicode="&#x2021;" horiz-adv-x="404" 
d="M191 450c0 29 -21 50 -61 53v9c27 15 60 41 60 86c-49 0 -70 -45 -112 -45c-24 0 -48 19 -48 56s24 56 48 56c42 0 63 -45 112 -45c0 49 -44 48 -44 90c0 24 19 48 56 48s56 -24 56 -48c0 -42 -44 -41 -44 -90c49 0 70 45 112 45c24 0 48 -19 48 -56s-24 -56 -48 -56
c-42 0 -63 45 -112 45c0 -45 33 -71 60 -86v-9c-40 -3 -61 -24 -61 -53s21 -50 61 -53v-9c-27 -15 -60 -41 -60 -86c49 0 70 45 112 45c24 0 48 -19 48 -56s-24 -56 -48 -56c-42 0 -63 45 -112 45c0 -49 44 -48 44 -90c0 -24 -19 -48 -56 -48s-56 24 -56 48
c0 42 44 41 44 90c-49 0 -70 -45 -112 -45c-24 0 -48 19 -48 56s24 56 48 56c42 0 63 -45 112 -45c0 45 -33 71 -60 86v9c40 3 61 24 61 53z" />
    <glyph glyph-name="periodcentered" unicode="&#xb7;" horiz-adv-x="275" 
d="M30 305c0 63 48 108 107 108c60 0 108 -45 108 -108s-48 -107 -108 -107c-59 0 -107 44 -107 107z" />
    <glyph glyph-name="paragraph" unicode="&#xb6;" horiz-adv-x="617" 
d="M313 -197v391c-178 0 -278 118 -278 254s100 254 278 254h278v-43c-80 0 -102 -12 -102 -73v-783h-49v856h-78v-856h-49zM313 235v426c-71 -9 -108 -115 -108 -213s37 -204 108 -213z" />
    <glyph glyph-name="bullet" unicode="&#x2022;" horiz-adv-x="382" 
d="M30 309c0 91 73 165 161 165c89 0 161 -74 161 -165c0 -89 -72 -164 -161 -164c-88 0 -161 75 -161 164z" />
    <glyph glyph-name="quotesinglbase" unicode="&#x201a;" horiz-adv-x="299" 
d="M161 0h-42c-46 11 -79 39 -79 94c0 60 46 97 104 97c70 0 115 -54 115 -133c0 -115 -77 -182 -219 -186v45c71 10 114 28 121 83z" />
    <glyph glyph-name="quotedblbase" unicode="&#x201e;" horiz-adv-x="546" 
d="M161 0h-42c-46 11 -79 39 -79 94c0 60 46 97 104 97c70 0 115 -54 115 -133c0 -115 -77 -182 -219 -186v45c71 10 114 28 121 83zM408 0h-42c-46 11 -79 39 -79 94c0 60 46 97 104 97c70 0 115 -54 115 -133c0 -115 -77 -182 -219 -186v45c71 10 114 28 121 83z" />
    <glyph glyph-name="quotedblright" unicode="&#x201d;" horiz-adv-x="546" 
d="M161 561h-42c-46 11 -79 39 -79 94c0 60 46 97 104 97c70 0 115 -54 115 -133c0 -115 -77 -182 -219 -186v45c71 10 114 28 121 83zM408 561h-42c-46 11 -79 39 -79 94c0 60 46 97 104 97c70 0 115 -54 115 -133c0 -115 -77 -182 -219 -186v45c71 10 114 28 121 83z" />
    <glyph glyph-name="guillemotright" unicode="&#xbb;" horiz-adv-x="474" 
d="M454 279v-6l-187 -202h-50l82 205l-82 205h50zM257 279v-6l-187 -202h-50l82 205l-82 205h50z" />
    <glyph glyph-name="ellipsis" unicode="&#x2026;" horiz-adv-x="846" 
d="M30 101c0 66 49 112 111 112s111 -46 111 -112s-49 -111 -111 -111s-111 45 -111 111zM312 101c0 66 49 112 111 112s111 -46 111 -112s-49 -111 -111 -111s-111 45 -111 111zM594 101c0 66 49 112 111 112s111 -46 111 -112s-49 -111 -111 -111s-111 45 -111 111z" />
    <glyph glyph-name="perthousand" unicode="&#x2030;" horiz-adv-x="1182" 
d="M767 165c0 -117 -82 -175 -175 -175s-175 58 -175 175s82 175 175 175s175 -58 175 -175zM153 -10l439 722h57l-439 -722h-57zM35 537c0 117 82 175 175 175s175 -58 175 -175s-82 -175 -175 -175s-175 58 -175 175zM646 165c0 77 -12 138 -54 138s-54 -61 -54 -138
s12 -138 54 -138s54 61 54 138zM156 537c0 -77 12 -138 54 -138s54 61 54 138s-12 138 -54 138s-54 -61 -54 -138zM1026 165c0 77 -12 138 -54 138s-54 -61 -54 -138s12 -138 54 -138s54 61 54 138zM1147 165c0 -117 -82 -175 -175 -175s-175 58 -175 175s82 175 175 175
s175 -58 175 -175z" />
    <glyph glyph-name="questiondown" unicode="&#xbf;" horiz-adv-x="477" 
d="M176 3c0 -42 22 -69 63 -69c54 0 69 48 69 97c0 30 -3 41 -6 61h119c29 -14 44 -38 44 -69c0 -81 -88 -132 -224 -132c-148 0 -228 62 -228 171c0 86 46 139 138 191c57 33 79 55 79 102v9h29c55 -19 88 -56 88 -112c0 -43 -25 -86 -77 -124c-51 -38 -94 -71 -94 -125z
M349 510c0 -59 -45 -106 -101 -106c-57 0 -102 47 -102 106c0 56 45 103 102 103c56 0 101 -47 101 -103z" />
    <glyph glyph-name="grave" unicode="`" 
d="M114 766h197l47 -163h-59l-185 153v10z" />
    <glyph glyph-name="acute" unicode="&#xb4;" 
d="M161 766h197v-10l-185 -153h-59z" />
    <glyph glyph-name="circumflex" unicode="&#x2c6;" 
d="M318 766l118 -169h-65l-121 80l-121 -80h-65l118 169h136z" />
    <glyph glyph-name="tilde" unicode="&#x2dc;" 
d="M310 602c-65 0 -93 60 -136 60c-28 0 -46 -24 -65 -55l-40 22c33 86 65 139 121 139c65 0 93 -60 136 -60c28 0 46 24 65 55l40 -22c-33 -86 -65 -139 -121 -139z" />
    <glyph glyph-name="macron" unicode="&#xaf;" 
d="M110 625v95h294v-95h-294z" />
    <glyph glyph-name="breve" unicode="&#x2d8;" 
d="M258 598c-96 0 -149 64 -149 170h50c8 -54 49 -70 99 -70s91 16 99 70h50c0 -106 -53 -170 -149 -170z" />
    <glyph glyph-name="dotaccent" unicode="&#x2d9;" 
d="M251 594c-67 0 -106 46 -106 99s39 99 106 99c66 0 106 -46 106 -99s-40 -99 -106 -99z" />
    <glyph glyph-name="dieresis" unicode="&#xa8;" 
d="M61 691c0 48 40 88 89 88s90 -40 90 -88s-41 -88 -90 -88s-89 40 -89 88zM271 691c0 48 41 88 88 88c51 0 91 -40 91 -88s-40 -88 -91 -88c-47 0 -88 40 -88 88z" />
    <glyph glyph-name="ring" unicode="&#x2da;" 
d="M212 684c0 -28 17 -49 49 -49s49 21 49 49c0 29 -17 50 -49 50s-49 -21 -49 -50zM153 684c0 59 45 105 108 105s107 -46 107 -105c0 -58 -44 -104 -107 -104s-108 46 -108 104z" />
    <glyph glyph-name="cedilla" unicode="&#xb8;" 
d="M148 -233l-9 37c72 0 103 22 103 47c0 27 -30 30 -77 32l50 125h40l-19 -46c64 0 107 -31 107 -84c0 -77 -95 -111 -195 -111z" />
    <glyph glyph-name="hungarumlaut" unicode="&#x2dd;" 
d="M112 766h162v-10l-149 -153h-61zM300 766h162v-10l-149 -153h-61z" />
    <glyph glyph-name="ogonek" unicode="&#x2db;" 
d="M327 38l9 -17c-57 -29 -87 -64 -87 -112c0 -28 15 -50 45 -50c24 0 38 7 59 21l17 -21c-39 -50 -78 -75 -138 -75c-52 0 -96 31 -96 84c0 89 98 136 191 170z" />
    <glyph glyph-name="caron" unicode="&#x2c7;" 
d="M436 771l-118 -169h-136l-118 169h65l121 -80l121 80h65z" />
    <glyph glyph-name="emdash" unicode="&#x2014;" horiz-adv-x="960" 
d="M930 338v-66h-900v66h900z" />
    <glyph glyph-name="AE" unicode="&#xc6;" horiz-adv-x="1049" 
d="M63 82l337 545c-18 17 -47 27 -92 30v45h689l5 -199h-42c-54 113 -79 149 -175 149h-86v-260h83c47 0 58 23 66 93h47v-246h-47c-8 70 -19 93 -66 93h-83v-215c0 -54 25 -67 77 -67h22c94 0 113 39 187 177h50l-33 -227h-591v45c65 7 69 16 69 67v137h-237l-74 -120
c-10 -17 -15 -27 -15 -41c0 -28 30 -40 87 -43v-45h-236v45c27 5 43 12 58 37zM480 633l-201 -326h201v326z" />
    <glyph glyph-name="ordfeminine" unicode="&#xaa;" horiz-adv-x="429" 
d="M197 414c12 0 18 2 28 8v111l-27 -12c-26 -12 -35 -28 -35 -59s13 -48 34 -48zM355 572v-140c0 -23 7 -35 22 -35c7 0 17 1 26 4l6 -20c-23 -23 -58 -40 -95 -40c-44 0 -77 25 -87 63c-23 -40 -58 -60 -105 -60c-54 0 -92 35 -92 90c0 58 41 80 87 95l108 35v54
c0 44 -5 65 -29 65s-34 -18 -34 -46c0 -16 3 -35 9 -52l-92 -13c-18 7 -30 26 -30 48c0 61 63 92 154 92c105 0 152 -33 152 -140z" />
    <glyph glyph-name="Lslash" unicode="&#x141;" horiz-adv-x="658" 
d="M314 590v-186l136 43v-66l-136 -44v-220c0 -54 21 -67 73 -67h21c62 0 99 35 196 197h47l-39 -247h-586v45c65 7 69 16 69 67v162l-69 -22v66l69 22v250c0 51 -4 60 -69 67v45h357v-45c-65 -7 -69 -16 -69 -67z" />
    <glyph glyph-name="Oslash" unicode="&#xd8;" horiz-adv-x="758" 
d="M369 -10c-75 0 -137 17 -188 47l-74 -97l-42 32l73 95c-75 65 -113 163 -113 270c0 230 151 375 364 375c82 0 149 -21 202 -57l70 91l42 -32l-71 -92c67 -64 101 -157 101 -257c0 -230 -151 -375 -364 -375zM255 366c0 -49 2 -96 8 -137l224 291
c-19 85 -54 140 -113 140c-94 0 -119 -155 -119 -294zM384 42c94 0 119 155 119 294c0 39 -2 77 -5 112l-222 -288c19 -73 54 -118 108 -118z" />
    <glyph glyph-name="OE" unicode="&#x152;" horiz-adv-x="1063" 
d="M494 652h-33c-133 0 -210 -117 -210 -288c0 -198 88 -314 229 -314h14v602zM1016 0h-574c-283 0 -417 146 -417 346c0 223 158 356 420 356h571v-199h-42c-54 113 -79 149 -175 149h-86v-260h83c47 0 58 23 66 93h47v-246h-47c-8 70 -19 93 -66 93h-83v-215
c0 -54 25 -67 77 -67h22c94 0 113 39 187 177h50z" />
    <glyph glyph-name="ordmasculine" unicode="&#xba;" horiz-adv-x="431" 
d="M221 373c35 0 46 53 46 138c0 97 -18 169 -57 169c-35 0 -46 -53 -46 -138c0 -97 18 -169 57 -169zM210 341c-112 0 -185 73 -185 179c0 118 79 192 196 192c112 0 185 -73 185 -179c0 -118 -79 -192 -196 -192z" />
    <glyph glyph-name="ae" unicode="&#xe6;" horiz-adv-x="808" 
d="M568 553c146 0 222 -93 222 -224v-25h-308c0 -104 53 -180 148 -180c56 0 104 21 142 70l21 -13c-28 -116 -107 -191 -238 -191c-85 0 -158 31 -204 90c-48 -53 -86 -86 -185 -86c-92 0 -153 47 -153 136c0 88 60 124 130 148l160 55c3 15 7 29 11 42
c3 91 -21 136 -56 136c-31 0 -44 -31 -44 -77c0 -24 4 -49 10 -74l-124 -16c-30 10 -52 35 -52 73c0 95 98 136 223 136c63 0 113 -12 144 -45c44 29 96 45 153 45zM551 509c-50 0 -64 -62 -68 -156h132c0 99 -16 156 -64 156zM289 98c12 0 26 4 42 11
c-22 41 -35 91 -35 151c0 8 0 17 1 25l-20 -8c-44 -16 -66 -32 -66 -91c0 -50 17 -88 78 -88z" />
    <glyph glyph-name="dotlessi" unicode="&#x131;" horiz-adv-x="350" 
d="M281 553v-475c0 -30 16 -33 53 -36v-42h-312v42c37 3 53 6 53 36v350l-53 34v31l223 60h36z" />
    <glyph glyph-name="lslash" unicode="&#x142;" horiz-adv-x="367" 
d="M284 783v-274l78 36v-63l-78 -37v-367c0 -30 16 -33 53 -36v-42h-312v42c37 3 53 6 53 36v291l-73 -32v63l73 33v244l-53 27v34l224 45h35z" />
    <glyph glyph-name="oslash" unicode="&#xf8;" horiz-adv-x="620" 
d="M310 -10c-57 0 -108 11 -151 33l-61 -83l-38 27l59 81c-62 47 -99 121 -99 214c0 167 119 291 290 291c58 0 110 -12 153 -35l57 78l38 -27l-56 -76c61 -47 98 -120 98 -212c0 -167 -119 -291 -290 -291zM239 310c0 -35 1 -67 2 -95l131 179c-11 73 -31 115 -67 115
c-53 0 -66 -74 -66 -199zM315 34c53 0 66 74 66 199c0 32 -1 63 -3 90l-130 -178c11 -71 31 -111 67 -111z" />
    <glyph glyph-name="oe" unicode="&#x153;" horiz-adv-x="908" 
d="M310 553c72 0 140 -28 187 -69c45 41 103 69 171 69c146 0 222 -93 222 -224v-25h-317c0 -110 62 -180 150 -180c63 0 111 21 149 70l21 -13c-28 -116 -107 -191 -238 -191c-65 0 -127 27 -172 67c-46 -39 -107 -67 -173 -67c-171 0 -290 105 -290 272s119 291 290 291z
M315 34c53 0 66 74 66 199c0 171 -19 276 -76 276c-53 0 -66 -74 -66 -199c0 -171 19 -276 76 -276zM651 509c-50 0 -73 -62 -77 -156h141c0 99 -16 156 -64 156z" />
    <glyph glyph-name="germandbls" unicode="&#xdf;" horiz-adv-x="745" 
d="M382 783c142 0 231 -54 231 -144c0 -108 -138 -118 -138 -170c0 -22 40 -42 101 -78c91 -53 154 -104 154 -213c0 -118 -91 -188 -222 -188c-70 0 -127 18 -169 52l-6 129h51c19 -76 66 -136 129 -136c43 0 71 25 71 63c0 46 -28 73 -102 117c-86 51 -125 93 -125 158
c0 112 127 139 127 268c0 58 -32 98 -95 98c-76 0 -107 -57 -107 -151v-588h-259v42c37 3 53 6 53 36v408h-71v45l72 17l1 8c18 140 127 227 304 227z" />
    <glyph glyph-name="onesuperior" unicode="&#xb9;" horiz-adv-x="347" 
d="M202 712h36v-329c0 -35 10 -37 64 -41v-36h-262v36c64 4 66 6 66 41v210h-66v34l25 5c69 14 105 38 137 80z" />
    <glyph glyph-name="mu" unicode="&#xb5;" horiz-adv-x="669" 
d="M254 -10l13 -161v-16l-207 -10v595c0 28 -7 51 -35 60l-15 5v40l224 50h38l-6 -132v-242c0 -46 18 -72 63 -72c25 0 40 3 65 11v280c0 28 -7 51 -35 60l-15 5v40l224 50h38l-6 -132v-302c0 -34 3 -51 32 -51h23v-44l-225 -34h-39l3 98c-22 -66 -71 -98 -133 -98h-7z" />
    <glyph glyph-name="trademark" unicode="&#x2122;" horiz-adv-x="895" 
d="M361 702l6 -116h-30c-20 52 -34 89 -75 89h-7v-242c0 -27 11 -32 42 -34v-29h-187v29c31 2 40 7 40 34v242h-6c-41 0 -56 -37 -76 -89h-30l7 116h316zM610 507l56 161c5 15 7 24 7 34h143v-32c-32 0 -41 -13 -41 -40l30 -200c4 -24 14 -29 41 -31v-29h-186v29
c34 2 46 7 46 32c0 4 -1 22 -3 40l-23 135l-79 -236h-49l-81 236l-20 -135c-3 -18 -4 -36 -4 -40c0 -25 11 -30 46 -32v-29h-128v29c29 2 37 6 41 31l30 200c0 27 -9 40 -39 40v32h147c1 -10 3 -18 8 -33z" />
    <glyph glyph-name="Eth" unicode="&#xd0;" horiz-adv-x="817" 
d="M36 320v68h69v202c0 51 -4 60 -69 67v45h339c283 0 417 -146 417 -346c0 -223 -148 -356 -392 -356h-364v45c65 7 69 16 69 67v208h-69zM337 652h-13v-264h126v-68h-126v-200c0 -59 22 -70 63 -70h6c106 0 173 117 173 288c0 198 -88 314 -229 314z" />
    <glyph glyph-name="onehalf" unicode="&#xbd;" horiz-adv-x="817" 
d="M202 712h36v-329c0 -35 10 -37 64 -41v-36h-262v36c64 4 66 6 66 41v210h-66v34l25 5c69 14 105 38 137 80zM151 -10l438 722h58l-439 -722h-57zM578 100h109c29 0 37 9 58 39h22l-11 -139h-308v28l117 108c43 40 63 74 63 116c0 39 -21 65 -63 65c-39 0 -67 -20 -86 -43
l-23 20c28 59 84 112 168 112c78 0 127 -42 127 -115c0 -87 -81 -140 -173 -191z" />
    <glyph glyph-name="plusminus" unicode="&#xb1;" horiz-adv-x="576" 
d="M252 608h71v-141h186v-70h-186v-140h-71v140h-184v70h184v141zM68 135v71h441v-71h-441z" />
    <glyph glyph-name="Thorn" unicode="&#xde;" horiz-adv-x="687" 
d="M314 590v-14h76c198 0 290 -90 290 -213c0 -142 -97 -222 -301 -222h-65v-29c0 -51 28 -63 115 -67v-45h-403v45c65 7 69 16 69 67v478c0 51 -4 60 -69 67v45h357v-45c-65 -7 -69 -16 -69 -67zM314 526v-328h13c90 0 140 64 140 165c0 105 -58 163 -140 163h-13z" />
    <glyph glyph-name="onequarter" unicode="&#xbc;" horiz-adv-x="808" 
d="M436 145h129v164zM202 712h36v-329c0 -35 10 -37 64 -41v-36h-262v36c64 4 66 6 66 41v210h-66v34l25 5c69 14 105 38 137 80zM151 -10l438 722h58l-439 -722h-57zM746 0h-232v36c42 3 51 6 51 41v27h-187v34l199 258h118v-251h78v-41h-78v-27c0 -35 9 -38 51 -41v-36z
" />
    <glyph glyph-name="divide" unicode="&#xf7;" horiz-adv-x="576" 
d="M66 333v72h444v-72h-444zM227 195c0 35 27 62 60 62s62 -27 62 -62c0 -33 -29 -61 -62 -61s-60 28 -60 61zM227 543c0 33 27 60 60 60s62 -27 62 -60s-29 -62 -62 -62s-60 29 -60 62z" />
    <glyph glyph-name="brokenbar" unicode="&#xa6;" horiz-adv-x="202" 
d="M142 770v-376h-82v376h82zM142 235v-376h-82v376h82z" />
    <glyph glyph-name="degree" unicode="&#xb0;" horiz-adv-x="288" 
d="M77 590c0 -42 25 -72 68 -72c41 0 66 30 66 72c0 41 -25 71 -66 71c-43 0 -68 -30 -68 -71zM20 590c0 69 55 122 125 122c68 0 123 -53 123 -122c0 -70 -55 -123 -123 -123c-70 0 -125 53 -125 123z" />
    <glyph glyph-name="thorn" unicode="&#xfe;" horiz-adv-x="655" 
d="M425 247c0 136 -48 186 -115 186c-16 0 -30 -2 -46 -9v-283c0 -59 12 -100 61 -100c67 0 100 90 100 206zM58 -134v811l-53 27v34l224 45h35v-329c26 44 81 99 168 99c116 0 203 -79 203 -247c0 -210 -127 -316 -290 -316c-36 0 -66 6 -81 17v-136c0 -35 18 -36 74 -41
v-42h-333v42c37 3 53 6 53 36z" />
    <glyph glyph-name="threequarters" unicode="&#xbe;" horiz-adv-x="834" 
d="M224 528c76 -1 130 -38 130 -105c0 -79 -78 -120 -173 -120c-99 0 -141 38 -141 83c0 27 15 41 28 47h73c-4 -12 -5 -19 -5 -30c0 -42 18 -69 50 -69c30 0 51 22 51 72c0 49 -25 80 -80 80h-14l-8 23c57 23 74 41 74 70c0 27 -18 49 -54 49s-58 -21 -74 -41l-26 20
c27 54 80 105 163 105c69 0 113 -34 113 -91c0 -56 -51 -85 -107 -93zM462 145h129v164zM177 -10l438 722h58l-439 -722h-57zM772 0h-232v36c42 3 51 6 51 41v27h-187v34l199 258h118v-251h78v-41h-78v-27c0 -35 9 -38 51 -41v-36z" />
    <glyph glyph-name="registered" unicode="&#xae;" horiz-adv-x="515" 
d="M242 584h-6v-97h6c28 0 45 19 45 49s-17 48 -45 48zM144 608h115c72 0 100 -33 100 -71c0 -37 -27 -57 -52 -65l46 -62c9 -13 18 -20 29 -21v-19h-70c-11 6 -21 17 -30 31l-42 64h-4v-51c0 -19 2 -25 24 -25v-19h-116v19c23 0 26 6 26 25v150c0 20 -3 22 -26 25v19z
M67 484c0 -103 80 -193 190 -193c111 0 191 90 191 193c0 104 -80 194 -191 194c-110 0 -190 -90 -190 -194zM30 484c0 126 95 228 227 228c133 0 228 -102 228 -228c0 -125 -95 -227 -228 -227c-132 0 -227 102 -227 227z" />
    <glyph glyph-name="minus" unicode="&#x2212;" horiz-adv-x="576" 
d="M66 333v72h444v-72h-444z" />
    <glyph glyph-name="eth" unicode="&#xf0;" horiz-adv-x="618" 
d="M122 589l-13 46l152 46c-39 31 -88 55 -152 70l21 37c98 -10 178 -36 244 -72l136 42l13 -46l-97 -30c119 -90 172 -221 172 -350c0 -205 -101 -342 -294 -342c-171 0 -284 120 -284 276c0 175 128 286 267 286c28 0 61 -8 77 -24c-16 43 -36 82 -65 115zM315 34
c53 0 66 74 66 199c0 171 -19 276 -76 276c-53 0 -66 -74 -66 -199c0 -171 19 -276 76 -276z" />
    <glyph glyph-name="multiply" unicode="&#xd7;" horiz-adv-x="499" 
d="M200 365l-136 136l50 50l135 -137l136 137l51 -50l-137 -136l137 -136l-51 -49l-136 136l-135 -136l-50 49z" />
    <glyph glyph-name="threesuperior" unicode="&#xb3;" horiz-adv-x="394" 
d="M224 528c76 -1 130 -38 130 -105c0 -79 -78 -120 -173 -120c-99 0 -141 38 -141 83c0 27 15 41 28 47h73c-4 -12 -5 -19 -5 -30c0 -42 18 -69 50 -69c30 0 51 22 51 72c0 49 -25 80 -80 80h-14l-8 23c57 23 74 41 74 70c0 27 -18 49 -54 49s-58 -21 -74 -41l-26 20
c27 54 80 105 163 105c69 0 113 -34 113 -91c0 -56 -51 -85 -107 -93z" />
    <glyph glyph-name="copyright" unicode="&#xa9;" horiz-adv-x="776" 
d="M72 351c0 -177 130 -322 316 -322s316 145 316 322s-130 322 -316 322s-316 -145 -316 -322zM30 351c0 199 149 361 358 361s358 -162 358 -361s-149 -361 -358 -361s-358 162 -358 361zM420 179c49 0 81 42 104 116h40l-9 -115c-36 -24 -87 -39 -148 -39
c-138 0 -215 85 -215 203c0 136 97 220 216 220c58 0 110 -16 141 -43v-106h-39c-12 61 -38 111 -91 111c-69 0 -92 -84 -92 -173c0 -106 29 -174 93 -174z" />
    <glyph glyph-name="Aacute" unicode="&#xc1;" horiz-adv-x="773" 
d="M461 129l-32 82h-247l-30 -82c-5 -14 -8 -26 -8 -36c0 -33 29 -44 80 -48v-45h-219v45c27 5 47 10 58 37l203 533l-35 87h233l245 -620c10 -25 30 -32 59 -37v-45h-375v45c46 2 76 13 76 47c0 10 -3 22 -8 37zM302 536l-99 -267h203zM345 890h197v-10l-180 -139h-64z" />
    <glyph glyph-name="Acircumflex" unicode="&#xc2;" horiz-adv-x="773" 
d="M461 129l-32 82h-247l-30 -82c-5 -14 -8 -26 -8 -36c0 -33 29 -44 80 -48v-45h-219v45c27 5 47 10 58 37l203 533l-35 87h233l245 -620c10 -25 30 -32 59 -37v-45h-375v45c46 2 76 13 76 47c0 10 -3 22 -8 37zM426 893l118 -152h-65l-121 65l-121 -65h-65l118 152h136z
M302 536l-99 -267h203z" />
    <glyph glyph-name="Adieresis" unicode="&#xc4;" horiz-adv-x="773" 
d="M461 129l-32 82h-247l-30 -82c-5 -14 -8 -26 -8 -36c0 -33 29 -44 80 -48v-45h-219v45c27 5 47 10 58 37l203 533l-35 87h233l245 -620c10 -25 30 -32 59 -37v-45h-375v45c46 2 76 13 76 47c0 10 -3 22 -8 37zM302 536l-99 -267h203zM164 823c0 48 40 88 89 88
s90 -40 90 -88s-41 -88 -90 -88s-89 40 -89 88zM374 823c0 48 41 88 88 88c51 0 91 -40 91 -88s-40 -88 -91 -88c-47 0 -88 40 -88 88z" />
    <glyph glyph-name="Agrave" unicode="&#xc0;" horiz-adv-x="773" 
d="M461 129l-32 82h-247l-30 -82c-5 -14 -8 -26 -8 -36c0 -33 29 -44 80 -48v-45h-219v45c27 5 47 10 58 37l203 533l-35 87h233l245 -620c10 -25 30 -32 59 -37v-45h-375v45c46 2 76 13 76 47c0 10 -3 22 -8 37zM302 536l-99 -267h203zM168 890h197l47 -149h-64l-180 139
v10z" />
    <glyph glyph-name="Aring" unicode="&#xc5;" horiz-adv-x="773" 
d="M461 129l-32 82h-247l-30 -82c-5 -14 -8 -26 -8 -36c0 -33 29 -44 80 -48v-45h-219v45c27 5 47 10 58 37l203 533l-35 87h233l245 -620c10 -25 30 -32 59 -37v-45h-375v45c46 2 76 13 76 47c0 10 -3 22 -8 37zM250 829c0 59 45 105 108 105s107 -46 107 -105
c0 -58 -44 -104 -107 -104s-108 46 -108 104zM302 536l-99 -267h203zM309 829c0 -28 17 -49 49 -49s49 21 49 49c0 29 -17 50 -49 50s-49 -21 -49 -50z" />
    <glyph glyph-name="Atilde" unicode="&#xc3;" horiz-adv-x="773" 
d="M461 129l-32 82h-247l-30 -82c-5 -14 -8 -26 -8 -36c0 -33 29 -44 80 -48v-45h-219v45c27 5 47 10 58 37l203 533l-35 87h233l245 -620c10 -25 30 -32 59 -37v-45h-375v45c46 2 76 13 76 47c0 10 -3 22 -8 37zM428 741c-65 0 -93 60 -136 60c-28 0 -46 -24 -65 -55
l-40 22c33 86 65 139 121 139c65 0 93 -60 136 -60c28 0 46 24 65 55l40 -22c-33 -86 -65 -139 -121 -139zM302 536l-99 -267h203z" />
    <glyph glyph-name="Ccedilla" unicode="&#xc7;" horiz-adv-x="695" 
d="M311 -233l-9 37c72 0 103 22 103 47c0 27 -30 30 -77 32l43 108c-216 10 -346 136 -346 340c0 236 176 381 388 381c92 0 168 -21 225 -59l4 -181h-54c-26 120 -76 186 -167 186c-119 0 -166 -131 -166 -299c0 -181 60 -312 176 -312c78 0 142 60 184 214h55l-18 -203
c-56 -42 -146 -66 -242 -68l-11 -28c64 0 107 -31 107 -84c0 -77 -95 -111 -195 -111z" />
    <glyph glyph-name="Eacute" unicode="&#xc9;" horiz-adv-x="664" 
d="M26 0v45c65 7 69 16 69 67v478c0 51 -4 60 -69 67v45h586l5 -199h-42c-54 113 -79 149 -175 149h-86v-260h83c47 0 58 23 66 93h47v-246h-47c-8 70 -19 93 -66 93h-83v-215c0 -54 25 -67 77 -67h22c94 0 113 39 187 177h50l-33 -227h-591zM335 890h197v-10l-180 -139h-64
z" />
    <glyph glyph-name="Ecircumflex" unicode="&#xca;" horiz-adv-x="664" 
d="M26 0v45c65 7 69 16 69 67v478c0 51 -4 60 -69 67v45h586l5 -199h-42c-54 113 -79 149 -175 149h-86v-260h83c47 0 58 23 66 93h47v-246h-47c-8 70 -19 93 -66 93h-83v-215c0 -54 25 -67 77 -67h22c94 0 113 39 187 177h50l-33 -227h-591zM416 893l118 -152h-65l-121 65
l-121 -65h-65l118 152h136z" />
    <glyph glyph-name="Edieresis" unicode="&#xcb;" horiz-adv-x="664" 
d="M26 0v45c65 7 69 16 69 67v478c0 51 -4 60 -69 67v45h586l5 -199h-42c-54 113 -79 149 -175 149h-86v-260h83c47 0 58 23 66 93h47v-246h-47c-8 70 -19 93 -66 93h-83v-215c0 -54 25 -67 77 -67h22c94 0 113 39 187 177h50l-33 -227h-591zM154 823c0 48 40 88 89 88
s90 -40 90 -88s-41 -88 -90 -88s-89 40 -89 88zM364 823c0 48 41 88 88 88c51 0 91 -40 91 -88s-40 -88 -91 -88c-47 0 -88 40 -88 88z" />
    <glyph glyph-name="Egrave" unicode="&#xc8;" horiz-adv-x="664" 
d="M26 0v45c65 7 69 16 69 67v478c0 51 -4 60 -69 67v45h586l5 -199h-42c-54 113 -79 149 -175 149h-86v-260h83c47 0 58 23 66 93h47v-246h-47c-8 70 -19 93 -66 93h-83v-215c0 -54 25 -67 77 -67h22c94 0 113 39 187 177h50l-33 -227h-591zM158 890h197l47 -149h-64
l-180 139v10z" />
    <glyph glyph-name="Iacute" unicode="&#xcd;" horiz-adv-x="409" 
d="M314 590v-478c0 -51 4 -60 69 -67v-45h-357v45c65 7 69 16 69 67v478c0 51 -4 60 -69 67v45h357v-45c-65 -7 -69 -16 -69 -67zM191 890h197v-10l-180 -139h-64z" />
    <glyph glyph-name="Icircumflex" unicode="&#xce;" horiz-adv-x="409" 
d="M314 590v-478c0 -51 4 -60 69 -67v-45h-357v45c65 7 69 16 69 67v478c0 51 -4 60 -69 67v45h357v-45c-65 -7 -69 -16 -69 -67zM272 893l118 -152h-65l-121 65l-121 -65h-65l118 152h136z" />
    <glyph glyph-name="Idieresis" unicode="&#xcf;" horiz-adv-x="409" 
d="M314 590v-478c0 -51 4 -60 69 -67v-45h-357v45c65 7 69 16 69 67v478c0 51 -4 60 -69 67v45h357v-45c-65 -7 -69 -16 -69 -67zM10 823c0 48 40 88 89 88s90 -40 90 -88s-41 -88 -90 -88s-89 40 -89 88zM220 823c0 48 41 88 88 88c51 0 91 -40 91 -88s-40 -88 -91 -88
c-47 0 -88 40 -88 88z" />
    <glyph glyph-name="Igrave" unicode="&#xcc;" horiz-adv-x="409" 
d="M314 590v-478c0 -51 4 -60 69 -67v-45h-357v45c65 7 69 16 69 67v478c0 51 -4 60 -69 67v45h357v-45c-65 -7 -69 -16 -69 -67zM14 890h197l47 -149h-64l-180 139v10z" />
    <glyph glyph-name="Ntilde" unicode="&#xd1;" horiz-adv-x="757" 
d="M598 337v253c0 51 -21 61 -102 67v45h244v-45c-65 -7 -69 -16 -69 -67v-590h-82l-421 516v-404c0 -51 21 -61 102 -67v-45h-244v45c65 7 69 16 69 67v480c-23 42 -37 62 -69 65v45h274zM461 741c-65 0 -93 60 -136 60c-28 0 -46 -24 -65 -55l-40 22c33 86 65 139 121 139
c65 0 93 -60 136 -60c28 0 46 24 65 55l40 -22c-33 -86 -65 -139 -121 -139z" />
    <glyph glyph-name="Oacute" unicode="&#xd3;" horiz-adv-x="758" 
d="M384 42c94 0 119 155 119 294c0 184 -34 324 -129 324c-94 0 -119 -155 -119 -294c0 -184 34 -324 129 -324zM369 -10c-227 0 -344 160 -344 347c0 230 151 375 364 375c227 0 344 -160 344 -347c0 -230 -151 -375 -364 -375zM370 890h197v-10l-180 -139h-64z" />
    <glyph glyph-name="Ocircumflex" unicode="&#xd4;" horiz-adv-x="758" 
d="M384 42c94 0 119 155 119 294c0 184 -34 324 -129 324c-94 0 -119 -155 -119 -294c0 -184 34 -324 129 -324zM369 -10c-227 0 -344 160 -344 347c0 230 151 375 364 375c227 0 344 -160 344 -347c0 -230 -151 -375 -364 -375zM451 893l118 -152h-65l-121 65l-121 -65h-65
l118 152h136z" />
    <glyph glyph-name="Odieresis" unicode="&#xd6;" horiz-adv-x="758" 
d="M384 42c94 0 119 155 119 294c0 184 -34 324 -129 324c-94 0 -119 -155 -119 -294c0 -184 34 -324 129 -324zM369 -10c-227 0 -344 160 -344 347c0 230 151 375 364 375c227 0 344 -160 344 -347c0 -230 -151 -375 -364 -375zM189 823c0 48 40 88 89 88s90 -40 90 -88
s-41 -88 -90 -88s-89 40 -89 88zM399 823c0 48 41 88 88 88c51 0 91 -40 91 -88s-40 -88 -91 -88c-47 0 -88 40 -88 88z" />
    <glyph glyph-name="Ograve" unicode="&#xd2;" horiz-adv-x="758" 
d="M384 42c94 0 119 155 119 294c0 184 -34 324 -129 324c-94 0 -119 -155 -119 -294c0 -184 34 -324 129 -324zM369 -10c-227 0 -344 160 -344 347c0 230 151 375 364 375c227 0 344 -160 344 -347c0 -230 -151 -375 -364 -375zM193 890h197l47 -149h-64l-180 139v10z" />
    <glyph glyph-name="Otilde" unicode="&#xd5;" horiz-adv-x="758" 
d="M384 42c94 0 119 155 119 294c0 184 -34 324 -129 324c-94 0 -119 -155 -119 -294c0 -184 34 -324 129 -324zM369 -10c-227 0 -344 160 -344 347c0 230 151 375 364 375c227 0 344 -160 344 -347c0 -230 -151 -375 -364 -375zM462 741c-65 0 -93 60 -136 60
c-28 0 -46 -24 -65 -55l-40 22c33 86 65 139 121 139c65 0 93 -60 136 -60c28 0 46 24 65 55l40 -22c-33 -86 -65 -139 -121 -139z" />
    <glyph glyph-name="Scaron" unicode="&#x160;" horiz-adv-x="592" 
d="M281 -10c-102 0 -192 30 -241 67l-12 175h59c25 -108 93 -190 194 -190c66 0 111 29 111 88c0 60 -42 88 -149 117c-139 38 -212 107 -212 230c0 147 113 235 264 235c95 0 172 -24 220 -60v-153h-49c-25 97 -78 162 -171 162c-57 0 -98 -32 -98 -87
c0 -62 42 -88 143 -116c132 -37 224 -90 224 -237c0 -161 -127 -231 -283 -231zM490 894l-118 -152h-136l-118 152h65l121 -65l121 65h65z" />
    <glyph glyph-name="Uacute" unicode="&#xda;" horiz-adv-x="763" 
d="M303 590v-325c0 -113 39 -183 148 -183c83 0 155 47 155 187v321c0 51 -11 61 -92 67v45h234v-45c-65 -7 -69 -16 -69 -67v-341c0 -177 -126 -259 -285 -259c-199 0 -310 87 -310 259v341c0 51 -4 60 -69 67v45h357v-45c-65 -7 -69 -16 -69 -67zM412 890h197v-10
l-180 -139h-64z" />
    <glyph glyph-name="Ucircumflex" unicode="&#xdb;" horiz-adv-x="763" 
d="M303 590v-325c0 -113 39 -183 148 -183c83 0 155 47 155 187v321c0 51 -11 61 -92 67v45h234v-45c-65 -7 -69 -16 -69 -67v-341c0 -177 -126 -259 -285 -259c-199 0 -310 87 -310 259v341c0 51 -4 60 -69 67v45h357v-45c-65 -7 -69 -16 -69 -67zM493 893l118 -152h-65
l-121 65l-121 -65h-65l118 152h136z" />
    <glyph glyph-name="Udieresis" unicode="&#xdc;" horiz-adv-x="763" 
d="M303 590v-325c0 -113 39 -183 148 -183c83 0 155 47 155 187v321c0 51 -11 61 -92 67v45h234v-45c-65 -7 -69 -16 -69 -67v-341c0 -177 -126 -259 -285 -259c-199 0 -310 87 -310 259v341c0 51 -4 60 -69 67v45h357v-45c-65 -7 -69 -16 -69 -67zM231 823
c0 48 40 88 89 88s90 -40 90 -88s-41 -88 -90 -88s-89 40 -89 88zM441 823c0 48 41 88 88 88c51 0 91 -40 91 -88s-40 -88 -91 -88c-47 0 -88 40 -88 88z" />
    <glyph glyph-name="Ugrave" unicode="&#xd9;" horiz-adv-x="763" 
d="M303 590v-325c0 -113 39 -183 148 -183c83 0 155 47 155 187v321c0 51 -11 61 -92 67v45h234v-45c-65 -7 -69 -16 -69 -67v-341c0 -177 -126 -259 -285 -259c-199 0 -310 87 -310 259v341c0 51 -4 60 -69 67v45h357v-45c-65 -7 -69 -16 -69 -67zM235 890h197l47 -149h-64
l-180 139v10z" />
    <glyph glyph-name="Yacute" unicode="&#xdd;" horiz-adv-x="727" 
d="M481 258v-151c0 -51 14 -55 79 -62v-45h-372v45c65 7 79 11 79 62v146l-204 367c-15 28 -29 32 -58 37v45h365v-45c-51 -2 -63 -12 -63 -36c0 -22 8 -39 24 -68l123 -210l103 208c12 25 25 52 25 70c0 24 -23 34 -66 36v45h206v-45c-28 -5 -46 -13 -58 -37zM402 890h197
v-10l-180 -139h-64z" />
    <glyph glyph-name="Ydieresis" unicode="&#x178;" horiz-adv-x="727" 
d="M481 258v-151c0 -51 14 -55 79 -62v-45h-372v45c65 7 79 11 79 62v146l-204 367c-15 28 -29 32 -58 37v45h365v-45c-51 -2 -63 -12 -63 -36c0 -22 8 -39 24 -68l123 -210l103 208c12 25 25 52 25 70c0 24 -23 34 -66 36v45h206v-45c-28 -5 -46 -13 -58 -37zM221 823
c0 48 40 88 89 88s90 -40 90 -88s-41 -88 -90 -88s-89 40 -89 88zM431 823c0 48 41 88 88 88c51 0 91 -40 91 -88s-40 -88 -91 -88c-47 0 -88 40 -88 88z" />
    <glyph glyph-name="Zcaron" unicode="&#x17d;" horiz-adv-x="643" 
d="M266 50h105c84 0 120 33 209 189h48l-37 -239h-576v39l339 613h-97c-97 0 -114 -43 -174 -174h-45l10 224h559v-39zM519 894l-118 -152h-136l-118 152h65l121 -65l121 65h65z" />
    <glyph glyph-name="aacute" unicode="&#xe1;" horiz-adv-x="568" 
d="M276 98c11 0 19 2 29 5v185l-40 -15c-32 -12 -54 -28 -54 -87c0 -50 17 -88 65 -88zM507 375v-265c0 -20 2 -41 25 -41c13 0 26 3 31 5l7 -30c-35 -32 -79 -54 -139 -54c-61 0 -105 30 -123 83c-28 -43 -74 -79 -148 -79c-86 0 -147 47 -147 136c0 88 60 124 130 148
l162 56v110c0 40 -10 67 -43 67c-35 0 -48 -31 -48 -77c0 -24 4 -49 10 -74l-124 -16c-30 10 -52 35 -52 73c0 95 98 136 223 136c146 0 236 -43 236 -178zM266 766h197v-10l-185 -153h-59z" />
    <glyph glyph-name="acircumflex" unicode="&#xe2;" horiz-adv-x="568" 
d="M276 98c11 0 19 2 29 5v185l-40 -15c-32 -12 -54 -28 -54 -87c0 -50 17 -88 65 -88zM507 375v-265c0 -20 2 -41 25 -41c13 0 26 3 31 5l7 -30c-35 -32 -79 -54 -139 -54c-61 0 -105 30 -123 83c-28 -43 -74 -79 -148 -79c-86 0 -147 47 -147 136c0 88 60 124 130 148
l162 56v110c0 40 -10 67 -43 67c-35 0 -48 -31 -48 -77c0 -24 4 -49 10 -74l-124 -16c-30 10 -52 35 -52 73c0 95 98 136 223 136c146 0 236 -43 236 -178zM349 766l118 -169h-65l-121 80l-121 -80h-65l118 169h136z" />
    <glyph glyph-name="adieresis" unicode="&#xe4;" horiz-adv-x="568" 
d="M276 98c11 0 19 2 29 5v185l-40 -15c-32 -12 -54 -28 -54 -87c0 -50 17 -88 65 -88zM507 375v-265c0 -20 2 -41 25 -41c13 0 26 3 31 5l7 -30c-35 -32 -79 -54 -139 -54c-61 0 -105 30 -123 83c-28 -43 -74 -79 -148 -79c-86 0 -147 47 -147 136c0 88 60 124 130 148
l162 56v110c0 40 -10 67 -43 67c-35 0 -48 -31 -48 -77c0 -24 4 -49 10 -74l-124 -16c-30 10 -52 35 -52 73c0 95 98 136 223 136c146 0 236 -43 236 -178zM87 691c0 48 40 88 89 88s90 -40 90 -88s-41 -88 -90 -88s-89 40 -89 88zM297 691c0 48 41 88 88 88
c51 0 91 -40 91 -88s-40 -88 -91 -88c-47 0 -88 40 -88 88z" />
    <glyph glyph-name="agrave" unicode="&#xe0;" horiz-adv-x="568" 
d="M276 98c11 0 19 2 29 5v185l-40 -15c-32 -12 -54 -28 -54 -87c0 -50 17 -88 65 -88zM507 375v-265c0 -20 2 -41 25 -41c13 0 26 3 31 5l7 -30c-35 -32 -79 -54 -139 -54c-61 0 -105 30 -123 83c-28 -43 -74 -79 -148 -79c-86 0 -147 47 -147 136c0 88 60 124 130 148
l162 56v110c0 40 -10 67 -43 67c-35 0 -48 -31 -48 -77c0 -24 4 -49 10 -74l-124 -16c-30 10 -52 35 -52 73c0 95 98 136 223 136c146 0 236 -43 236 -178zM95 766h197l47 -163h-59l-185 153v10z" />
    <glyph glyph-name="aring" unicode="&#xe5;" horiz-adv-x="568" 
d="M276 98c11 0 19 2 29 5v185l-40 -15c-32 -12 -54 -28 -54 -87c0 -50 17 -88 65 -88zM507 375v-265c0 -20 2 -41 25 -41c13 0 26 3 31 5l7 -30c-35 -32 -79 -54 -139 -54c-61 0 -105 30 -123 83c-28 -43 -74 -79 -148 -79c-86 0 -147 47 -147 136c0 88 60 124 130 148
l162 56v110c0 40 -10 67 -43 67c-35 0 -48 -31 -48 -77c0 -24 4 -49 10 -74l-124 -16c-30 10 -52 35 -52 73c0 95 98 136 223 136c146 0 236 -43 236 -178zM232 684c0 -28 17 -49 49 -49s49 21 49 49c0 29 -17 50 -49 50s-49 -21 -49 -50zM173 684c0 59 45 105 108 105
s107 -46 107 -105c0 -58 -44 -104 -107 -104s-108 46 -108 104z" />
    <glyph glyph-name="atilde" unicode="&#xe3;" horiz-adv-x="568" 
d="M276 98c11 0 19 2 29 5v185l-40 -15c-32 -12 -54 -28 -54 -87c0 -50 17 -88 65 -88zM507 375v-265c0 -20 2 -41 25 -41c13 0 26 3 31 5l7 -30c-35 -32 -79 -54 -139 -54c-61 0 -105 30 -123 83c-28 -43 -74 -79 -148 -79c-86 0 -147 47 -147 136c0 88 60 124 130 148
l162 56v110c0 40 -10 67 -43 67c-35 0 -48 -31 -48 -77c0 -24 4 -49 10 -74l-124 -16c-30 10 -52 35 -52 73c0 95 98 136 223 136c146 0 236 -43 236 -178zM347 602c-65 0 -93 60 -136 60c-28 0 -46 -24 -65 -55l-40 22c33 86 65 139 121 139c65 0 93 -60 136 -60
c28 0 46 24 65 55l40 -22c-33 -86 -65 -139 -121 -139z" />
    <glyph glyph-name="ccedilla" unicode="&#xe7;" horiz-adv-x="517" 
d="M159 -233l-9 37c72 0 103 22 103 47c0 27 -30 30 -77 32l44 112c-116 21 -200 115 -200 260c0 171 112 298 282 298c102 0 190 -38 190 -131c0 -41 -24 -66 -47 -76h-103c3 24 4 43 4 60c0 60 -16 99 -60 99c-56 0 -88 -75 -88 -175c0 -126 56 -203 155 -203
c57 0 99 18 130 62l24 -15c-33 -129 -118 -184 -234 -184h-15l-11 -28c64 0 107 -31 107 -84c0 -77 -95 -111 -195 -111z" />
    <glyph glyph-name="eacute" unicode="&#xe9;" horiz-adv-x="541" 
d="M297 553c150 0 226 -93 226 -224v-25h-317c0 -110 62 -180 150 -180c63 0 111 21 149 70l21 -13c-28 -116 -107 -191 -238 -191c-149 0 -268 95 -268 270c0 181 129 293 277 293zM284 509c-50 0 -73 -62 -77 -156h141c0 99 -16 156 -64 156zM282 766h197v-10l-185 -153
h-59z" />
    <glyph glyph-name="ecircumflex" unicode="&#xea;" horiz-adv-x="541" 
d="M297 553c150 0 226 -93 226 -224v-25h-317c0 -110 62 -180 150 -180c63 0 111 21 149 70l21 -13c-28 -116 -107 -191 -238 -191c-149 0 -268 95 -268 270c0 181 129 293 277 293zM284 509c-50 0 -73 -62 -77 -156h141c0 99 -16 156 -64 156zM365 766l118 -169h-65
l-121 80l-121 -80h-65l118 169h136z" />
    <glyph glyph-name="edieresis" unicode="&#xeb;" horiz-adv-x="541" 
d="M297 553c150 0 226 -93 226 -224v-25h-317c0 -110 62 -180 150 -180c63 0 111 21 149 70l21 -13c-28 -116 -107 -191 -238 -191c-149 0 -268 95 -268 270c0 181 129 293 277 293zM284 509c-50 0 -73 -62 -77 -156h141c0 99 -16 156 -64 156zM103 691c0 48 40 88 89 88
s90 -40 90 -88s-41 -88 -90 -88s-89 40 -89 88zM313 691c0 48 41 88 88 88c51 0 91 -40 91 -88s-40 -88 -91 -88c-47 0 -88 40 -88 88z" />
    <glyph glyph-name="egrave" unicode="&#xe8;" horiz-adv-x="541" 
d="M297 553c150 0 226 -93 226 -224v-25h-317c0 -110 62 -180 150 -180c63 0 111 21 149 70l21 -13c-28 -116 -107 -191 -238 -191c-149 0 -268 95 -268 270c0 181 129 293 277 293zM284 509c-50 0 -73 -62 -77 -156h141c0 99 -16 156 -64 156zM111 766h197l47 -163h-59
l-185 153v10z" />
    <glyph glyph-name="iacute" unicode="&#xed;" horiz-adv-x="350" 
d="M281 553v-475c0 -30 16 -33 53 -36v-42h-312v42c37 3 53 6 53 36v350l-53 34v31l223 60h36zM167 766h197v-10l-185 -153h-59z" />
    <glyph glyph-name="icircumflex" unicode="&#xee;" horiz-adv-x="350" 
d="M281 553v-475c0 -30 16 -33 53 -36v-42h-312v42c37 3 53 6 53 36v350l-53 34v31l223 60h36zM238 766l107 -167h-59l-110 79l-110 -79h-60l108 167h124z" />
    <glyph glyph-name="idieresis" unicode="&#xef;" horiz-adv-x="350" 
d="M-19 691c0 48 40 88 89 88s90 -40 90 -88s-41 -88 -90 -88s-89 40 -89 88zM191 691c0 48 41 88 88 88c51 0 91 -40 91 -88s-40 -88 -91 -88c-47 0 -88 40 -88 88zM281 553v-475c0 -30 16 -33 53 -36v-42h-312v42c37 3 53 6 53 36v350l-53 34v31l223 60h36z" />
    <glyph glyph-name="igrave" unicode="&#xec;" horiz-adv-x="350" 
d="M281 553v-475c0 -30 16 -33 53 -36v-42h-312v42c37 3 53 6 53 36v350l-53 34v31l223 60h36zM-4 766h197l47 -163h-59l-185 153v10z" />
    <glyph glyph-name="ntilde" unicode="&#xf1;" horiz-adv-x="684" 
d="M417 78v293c0 37 -12 62 -62 62c-28 0 -51 -5 -74 -13v-342c0 -30 13 -33 50 -36v-42h-309v42c37 3 53 6 53 36v350l-53 34v31l223 60h40l-4 -101c36 47 93 101 187 101c97 0 155 -54 155 -164v-311c0 -30 16 -33 53 -36v-42h-309v42c37 3 50 6 50 36zM427 602
c-65 0 -93 60 -136 60c-28 0 -46 -24 -65 -55l-40 22c33 86 65 139 121 139c65 0 93 -60 136 -60c28 0 46 24 65 55l40 -22c-33 -86 -65 -139 -121 -139z" />
    <glyph glyph-name="oacute" unicode="&#xf3;" horiz-adv-x="620" 
d="M315 34c53 0 66 74 66 199c0 171 -19 276 -76 276c-53 0 -66 -74 -66 -199c0 -171 19 -276 76 -276zM310 -10c-171 0 -290 105 -290 272s119 291 290 291s290 -105 290 -272s-119 -291 -290 -291zM299 766h197v-10l-185 -153h-59z" />
    <glyph glyph-name="ocircumflex" unicode="&#xf4;" horiz-adv-x="620" 
d="M315 34c53 0 66 74 66 199c0 171 -19 276 -76 276c-53 0 -66 -74 -66 -199c0 -171 19 -276 76 -276zM310 -10c-171 0 -290 105 -290 272s119 291 290 291s290 -105 290 -272s-119 -291 -290 -291zM382 766l118 -169h-65l-121 80l-121 -80h-65l118 169h136z" />
    <glyph glyph-name="odieresis" unicode="&#xf6;" horiz-adv-x="620" 
d="M315 34c53 0 66 74 66 199c0 171 -19 276 -76 276c-53 0 -66 -74 -66 -199c0 -171 19 -276 76 -276zM310 -10c-171 0 -290 105 -290 272s119 291 290 291s290 -105 290 -272s-119 -291 -290 -291zM120 691c0 48 40 88 89 88s90 -40 90 -88s-41 -88 -90 -88s-89 40 -89 88
zM330 691c0 48 41 88 88 88c51 0 91 -40 91 -88s-40 -88 -91 -88c-47 0 -88 40 -88 88z" />
    <glyph glyph-name="ograve" unicode="&#xf2;" horiz-adv-x="620" 
d="M315 34c53 0 66 74 66 199c0 171 -19 276 -76 276c-53 0 -66 -74 -66 -199c0 -171 19 -276 76 -276zM310 -10c-171 0 -290 105 -290 272s119 291 290 291s290 -105 290 -272s-119 -291 -290 -291zM128 766h197l47 -163h-59l-185 153v10z" />
    <glyph glyph-name="otilde" unicode="&#xf5;" horiz-adv-x="620" 
d="M315 34c53 0 66 74 66 199c0 171 -19 276 -76 276c-53 0 -66 -74 -66 -199c0 -171 19 -276 76 -276zM310 -10c-171 0 -290 105 -290 272s119 291 290 291s290 -105 290 -272s-119 -291 -290 -291zM380 602c-65 0 -93 60 -136 60c-28 0 -46 -24 -65 -55l-40 22
c33 86 65 139 121 139c65 0 93 -60 136 -60c28 0 46 24 65 55l40 -22c-33 -86 -65 -139 -121 -139z" />
    <glyph glyph-name="scaron" unicode="&#x161;" horiz-adv-x="487" 
d="M231 -10c-87 0 -151 20 -196 51l-6 135h51c18 -80 72 -141 149 -141c45 0 81 21 81 63c0 49 -39 64 -103 83c-116 34 -179 84 -179 189c0 119 90 183 215 183c69 0 133 -18 176 -46v-120h-47c-10 63 -55 121 -124 121c-40 0 -68 -21 -68 -57c0 -40 29 -55 90 -75
c125 -41 192 -82 192 -197c0 -121 -91 -189 -231 -189zM439 771l-118 -169h-136l-118 169h65l121 -80l121 80h65z" />
    <glyph glyph-name="uacute" unicode="&#xfa;" horiz-adv-x="669" 
d="M600 421v-302c0 -34 3 -51 32 -51h23v-44l-225 -34h-39l3 98c-34 -46 -87 -98 -180 -98c-90 0 -154 54 -154 171v237c0 28 -7 51 -35 60l-15 5v40l224 50h38l-6 -132v-242c0 -46 18 -72 63 -72c25 0 40 3 65 11v280c0 28 -7 51 -35 60l-15 5v40l224 50h38zM319 766h197
v-10l-185 -153h-59z" />
    <glyph glyph-name="ucircumflex" unicode="&#xfb;" horiz-adv-x="669" 
d="M600 421v-302c0 -34 3 -51 32 -51h23v-44l-225 -34h-39l3 98c-34 -46 -87 -98 -180 -98c-90 0 -154 54 -154 171v237c0 28 -7 51 -35 60l-15 5v40l224 50h38l-6 -132v-242c0 -46 18 -72 63 -72c25 0 40 3 65 11v280c0 28 -7 51 -35 60l-15 5v40l224 50h38zM402 766
l118 -169h-65l-121 80l-121 -80h-65l118 169h136z" />
    <glyph glyph-name="udieresis" unicode="&#xfc;" horiz-adv-x="669" 
d="M600 421v-302c0 -34 3 -51 32 -51h23v-44l-225 -34h-39l3 98c-34 -46 -87 -98 -180 -98c-90 0 -154 54 -154 171v237c0 28 -7 51 -35 60l-15 5v40l224 50h38l-6 -132v-242c0 -46 18 -72 63 -72c25 0 40 3 65 11v280c0 28 -7 51 -35 60l-15 5v40l224 50h38zM140 691
c0 48 40 88 89 88s90 -40 90 -88s-41 -88 -90 -88s-89 40 -89 88zM350 691c0 48 41 88 88 88c51 0 91 -40 91 -88s-40 -88 -91 -88c-47 0 -88 40 -88 88z" />
    <glyph glyph-name="ugrave" unicode="&#xf9;" horiz-adv-x="669" 
d="M600 421v-302c0 -34 3 -51 32 -51h23v-44l-225 -34h-39l3 98c-34 -46 -87 -98 -180 -98c-90 0 -154 54 -154 171v237c0 28 -7 51 -35 60l-15 5v40l224 50h38l-6 -132v-242c0 -46 18 -72 63 -72c25 0 40 3 65 11v280c0 28 -7 51 -35 60l-15 5v40l224 50h38zM148 766h197
l47 -163h-59l-185 153v10z" />
    <glyph glyph-name="yacute" unicode="&#xfd;" horiz-adv-x="616" 
d="M387 202l94 234c5 14 8 21 8 30c0 21 -12 28 -65 35v42h187v-42c-34 -11 -42 -18 -51 -40l-232 -544c-39 -91 -78 -139 -150 -139c-41 0 -71 16 -86 40v81c27 -5 50 -10 82 -10c57 0 84 16 101 52l15 32l-234 488c-10 22 -17 29 -51 40v42h342v-42
c-53 -7 -65 -14 -65 -35c0 -9 3 -16 7 -28zM339 766h197v-10l-185 -153h-59z" />
    <glyph glyph-name="ydieresis" unicode="&#xff;" horiz-adv-x="616" 
d="M387 202l94 234c5 14 8 21 8 30c0 21 -12 28 -65 35v42h187v-42c-34 -11 -42 -18 -51 -40l-232 -544c-39 -91 -78 -139 -150 -139c-41 0 -71 16 -86 40v81c27 -5 50 -10 82 -10c57 0 84 16 101 52l15 32l-234 488c-10 22 -17 29 -51 40v42h342v-42
c-53 -7 -65 -14 -65 -35c0 -9 3 -16 7 -28zM160 691c0 48 40 88 89 88s90 -40 90 -88s-41 -88 -90 -88s-89 40 -89 88zM370 691c0 48 41 88 88 88c51 0 91 -40 91 -88s-40 -88 -91 -88c-47 0 -88 40 -88 88z" />
    <glyph glyph-name="zcaron" unicode="&#x17e;" horiz-adv-x="550" 
d="M15 0v38l280 457h-80c-51 0 -86 -49 -137 -156h-42l14 236h40l22 -32h415v-37l-274 -457h90c69 0 100 44 156 154h41l-24 -203h-501zM487 771l-118 -169h-136l-118 169h65l121 -80l121 80h65z" />
    <glyph glyph-name="Omega" unicode="&#x2126;" horiz-adv-x="736" 
d="M368 668c-86 0 -117 -110 -117 -268c0 -151 42 -242 85 -310v-90h-271l-25 198h34c44 -79 52 -88 142 -88h73c-120 35 -234 147 -234 290c0 172 119 312 313 312s313 -140 313 -312c0 -143 -114 -255 -234 -290h73c90 0 98 9 142 88h34l-25 -198h-271v90
c43 68 85 159 85 310c0 158 -31 268 -117 268z" />
    <glyph glyph-name="pi" unicode="&#x3c0;" horiz-adv-x="650" 
d="M351 179l31 243h-120c0 -204 -10 -291 -40 -422h-191v47c56 83 120 186 120 375h-121v128h590l-17 -128h-80v-295c0 -34 16 -52 42 -52c12 0 28 2 42 6l8 -31c-34 -32 -89 -60 -145 -60c-77 0 -123 39 -123 127c0 20 1 37 4 62z" />
    <glyph glyph-name="Euro" unicode="&#x20ac;" horiz-adv-x="689" 
d="M24 393v48h85c37 166 164 271 327 271c88 0 154 -20 205 -63v-166h-56c-15 99 -54 181 -136 181c-84 0 -122 -106 -133 -223h171l-8 -48h-166v-27c0 -16 0 -32 1 -47h148l-8 -49h-138c11 -130 46 -227 138 -227c82 0 119 61 162 194h52l-13 -192
c-54 -37 -145 -55 -218 -55c-191 0 -311 107 -335 280h-78v49h74v18c0 19 1 38 3 56h-77z" />
    <glyph glyph-name="partialdiff" unicode="&#x2202;" horiz-adv-x="618" 
d="M287 552c28 0 61 -8 77 -24c-39 108 -107 188 -255 223l21 37c352 -34 468 -243 468 -456c0 -205 -101 -342 -294 -342c-171 0 -284 120 -284 276c0 175 128 286 267 286zM315 34c53 0 66 74 66 199c0 171 -19 276 -76 276c-53 0 -66 -74 -66 -199
c0 -171 19 -276 76 -276z" />
    <glyph glyph-name="product" unicode="&#x220f;" horiz-adv-x="828" 
d="M514 650h-200v-735c0 -51 4 -60 69 -67v-45h-357v45c65 7 69 16 69 67v675c0 51 -4 60 -69 67v45h776v-45c-65 -7 -69 -16 -69 -67v-675c0 -51 4 -60 69 -67v-45h-357v45c65 7 69 16 69 67v735z" />
    <glyph glyph-name="summation" unicode="&#x2211;" horiz-adv-x="625" 
d="M156 -33h224c81 0 123 2 179 94h46l-47 -258h-548v52l266 365l-253 422v60h555v-192h-45c-48 98 -69 142 -164 142h-128l185 -310v-14z" />
    <glyph glyph-name="radical" unicode="&#x221a;" horiz-adv-x="607" 
d="M374 267l173 445h60l-280 -712h-77l-145 444c-13 40 -27 53 -60 57l-25 3v46h270z" />
    <glyph glyph-name="infinity" unicode="&#x221e;" horiz-adv-x="762" 
d="M350 348l-46 54c-29 34 -59 49 -96 49c-51 0 -96 -38 -96 -103c0 -66 45 -104 96 -104c37 0 68 14 96 48zM381 289l-32 -38c-39 -45 -83 -73 -147 -73c-89 0 -162 64 -162 170s73 170 162 170c64 0 109 -28 147 -73l32 -38l32 38c38 45 83 73 147 73
c89 0 162 -64 162 -170s-73 -170 -162 -170c-64 0 -109 28 -147 73zM464 402l-46 -54l46 -56c28 -34 59 -48 96 -48c51 0 96 38 96 104c0 65 -45 103 -96 103c-37 0 -67 -15 -96 -49z" />
    <glyph glyph-name="integral" unicode="&#x222b;" horiz-adv-x="457" 
d="M293 622v-565c0 -188 -95 -253 -229 -253c-89 0 -150 34 -150 96c0 31 16 51 35 64h92v-64c0 -27 3 -55 29 -55c24 0 28 26 28 49v565c0 188 95 253 229 253c89 0 150 -34 150 -96c0 -31 -16 -51 -35 -64h-92v64c0 27 -3 55 -29 55c-24 0 -28 -26 -28 -49z" />
    <glyph glyph-name="approxequal" unicode="&#x2248;" horiz-adv-x="586" 
d="M71 383v73c44 29 84 41 120 41c77 0 127 -40 203 -40c37 0 77 11 122 41v-73c-45 -30 -85 -41 -122 -41c-76 0 -126 40 -203 40c-36 0 -76 -12 -120 -41zM71 246v72c44 30 84 41 120 41c77 0 127 -39 203 -39c37 0 77 10 122 40v-73c-45 -30 -85 -40 -122 -40
c-76 0 -126 38 -203 38c-36 0 -76 -11 -120 -39z" />
    <glyph glyph-name="notequal" unicode="&#x2260;" horiz-adv-x="586" 
d="M71 408v69h263l74 104h75l-74 -104h107v-69h-157l-56 -79h213v-68h-262l-74 -104h-75l74 104h-108v68h157l56 79h-213z" />
    <glyph glyph-name="lessequal" unicode="&#x2264;" horiz-adv-x="448" 
d="M54 401v9l318 172v-82l-182 -94l182 -95v-82zM54 128v71h318v-71h-318z" />
    <glyph glyph-name="greaterequal" unicode="&#x2265;" horiz-adv-x="448" 
d="M394 410v-9l-318 -172v82l183 95l-183 94v82zM394 199v-71h-318v71h318z" />
    <glyph glyph-name="lozenge" unicode="&#x25ca;" horiz-adv-x="578" 
d="M36 351l205 351h95l206 -351l-206 -351h-95zM457 351l-168 293l-169 -293l169 -292z" />
    <glyph glyph-name="uni00A0" unicode="&#xa0;" horiz-adv-x="165" 
 />
    <glyph glyph-name="twosuperior" unicode="&#xb2;" horiz-adv-x="399" 
d="M160 402h109c29 0 37 9 58 39h22l-11 -139h-308v28l117 108c43 40 63 74 63 116c0 39 -21 65 -63 65c-39 0 -67 -20 -86 -43l-23 20c28 59 84 112 168 112c78 0 127 -42 127 -115c0 -87 -81 -140 -173 -191z" />
    <glyph glyph-name="Tcedilla" unicode="&#x162;" horiz-adv-x="723" 
d="M30 702h663l15 -261h-45c-77 162 -106 218 -168 218h-24v-552c0 -51 14 -55 79 -62v-45h-377v45c65 7 79 11 79 62v552h-24c-62 0 -91 -56 -168 -218h-45zM376 -158h-56c-30 8 -50 26 -50 62s31 64 85 64c61 0 98 -41 98 -96c0 -69 -51 -122 -177 -122v40
c67 0 98 25 100 52z" />
    <glyph glyph-name="tcedilla" unicode="&#x163;" horiz-adv-x="405" 
d="M268 682v-139h111v-57h-111v-331c0 -43 17 -62 51 -62c24 0 47 9 70 25l16 -25c-40 -67 -99 -103 -183 -103c-96 0 -163 48 -163 168v328h-54v37c85 30 163 89 219 159h44zM226 -158h-56c-30 8 -50 26 -50 62s31 64 85 64c61 0 98 -41 98 -96c0 -69 -51 -122 -177 -122
v40c67 0 98 25 100 52z" />
    <glyph glyph-name="i.dot" horiz-adv-x="350" 
d="M281 553v-475c0 -30 16 -33 53 -36v-42h-312v42c37 3 53 6 53 36v350l-53 34v31l223 60h36zM182 594c-67 0 -106 46 -106 99s39 99 106 99c66 0 106 -46 106 -99s-40 -99 -106 -99z" />
    <glyph glyph-name="uni0237" unicode="&#x237;" horiz-adv-x="315" 
d="M59 428l-53 34v31l223 60h36v-442c0 -119 -29 -171 -80 -217c-62 -55 -109 -76 -183 -105l-17 22l41 63c32 50 33 114 33 192v362z" />
    <glyph glyph-name="space_uni0326" 
d="M259 -158h-56c-30 8 -50 26 -50 62s31 64 85 64c61 0 98 -41 98 -96c0 -69 -51 -122 -177 -122v40c67 0 98 25 100 52z" />
    <glyph glyph-name="space_uni0326.alt" 
d="M230 715h56c30 -8 50 -26 50 -62s-31 -64 -85 -64c-61 0 -98 41 -98 96c0 69 51 122 177 122v-40c-67 0 -98 -25 -100 -52z" />
    <glyph glyph-name="space_dotbelowcomb" 
d="M251 -212c-64 0 -103 44 -103 95s39 95 103 95s102 -44 102 -95s-38 -95 -102 -95z" />
    <glyph glyph-name="uni2117" unicode="&#x2117;" horiz-adv-x="776" 
d="M436 304h-52v-77c0 -30 9 -37 57 -38v-35h-216v35c38 1 41 8 41 38v253c0 29 -3 35 -41 36v35h209c111 0 159 -61 159 -121c0 -76 -51 -126 -157 -126zM384 513v-176h15c56 0 79 39 79 91c0 46 -25 85 -79 85h-15zM72 351c0 -177 130 -322 316 -322s316 145 316 322
s-130 322 -316 322s-316 -145 -316 -322zM30 351c0 199 149 361 358 361s358 -162 358 -361s-149 -361 -358 -361s-358 162 -358 361z" />
    <glyph glyph-name="Delta" unicode="&#x2206;" horiz-adv-x="682" 
d="M662 0h-642v41l295 661h45l302 -661v-41zM265 442l-173 -384h346z" />
    <glyph glyph-name="Abreve" unicode="&#x102;" horiz-adv-x="773" 
d="M461 129l-32 82h-247l-30 -82c-5 -14 -8 -26 -8 -36c0 -33 29 -44 80 -48v-45h-219v45c27 5 47 10 58 37l203 533l-35 87h233l245 -620c10 -25 30 -32 59 -37v-45h-375v45c46 2 76 13 76 47c0 10 -3 22 -8 37zM358 738c-96 0 -150 59 -150 156h51c9 -47 55 -59 99 -59
s90 12 99 59h51c0 -97 -54 -156 -150 -156zM302 536l-99 -267h203z" />
    <glyph glyph-name="Amacron" unicode="&#x100;" horiz-adv-x="773" 
d="M461 129l-32 82h-247l-30 -82c-5 -14 -8 -26 -8 -36c0 -33 29 -44 80 -48v-45h-219v45c27 5 47 10 58 37l203 533l-35 87h233l245 -620c10 -25 30 -32 59 -37v-45h-375v45c46 2 76 13 76 47c0 10 -3 22 -8 37zM211 746v95h294v-95h-294zM302 536l-99 -267h203z" />
    <glyph glyph-name="Aogonek" unicode="&#x104;" horiz-adv-x="773" 
d="M302 536l-99 -267h203zM394 29c43 17 77 24 77 58c0 10 -3 22 -8 37l-34 87h-247l-30 -82c-5 -14 -8 -26 -8 -36c0 -33 29 -44 80 -48v-45h-219v45c27 5 47 10 58 37l203 533l-35 87h233l245 -620c10 -25 30 -32 59 -37v-45h-343c-44 -14 -60 -49 -60 -85
c0 -34 18 -56 49 -56c20 0 34 7 55 21l17 -21c-39 -50 -78 -75 -132 -75s-102 31 -102 100c0 74 61 114 142 145z" />
    <glyph glyph-name="Aringacute" unicode="&#x1fa;" horiz-adv-x="773" 
d="M461 129l-32 82h-247l-30 -82c-5 -14 -8 -26 -8 -36c0 -33 29 -44 80 -48v-45h-219v45c27 5 47 10 58 37l203 533l-35 87h233l245 -620c10 -25 30 -32 59 -37v-45h-375v45c46 2 76 13 76 47c0 10 -3 22 -8 37zM242 816c0 53 47 94 113 94s113 -41 113 -94
c0 -52 -47 -93 -113 -93s-113 41 -113 93zM302 536l-99 -267h203zM358 1050h197v-10l-174 -110h-64zM299 816c0 -26 22 -46 56 -46s56 20 56 46c0 27 -22 47 -56 47s-56 -20 -56 -47z" />
    <glyph glyph-name="AEacute" unicode="&#x1fc;" horiz-adv-x="1049" 
d="M63 82l337 545c-18 17 -47 27 -92 30v45h689l5 -199h-42c-54 113 -79 149 -175 149h-86v-260h83c47 0 58 23 66 93h47v-246h-47c-8 70 -19 93 -66 93h-83v-215c0 -54 25 -67 77 -67h22c94 0 113 39 187 177h50l-33 -227h-591v45c65 7 69 16 69 67v137h-237l-74 -120
c-10 -17 -15 -27 -15 -41c0 -28 30 -40 87 -43v-45h-236v45c27 5 43 12 58 37zM480 633l-201 -326h201v326zM627 890h197v-10l-180 -139h-64z" />
    <glyph glyph-name="Cacute" unicode="&#x106;" horiz-adv-x="695" 
d="M413 712c92 0 168 -21 225 -59l4 -181h-54c-26 120 -76 186 -167 186c-119 0 -166 -131 -166 -299c0 -181 60 -312 176 -312c78 0 142 60 184 214h55l-18 -203c-58 -43 -152 -68 -251 -68c-233 0 -376 128 -376 341c0 236 176 381 388 381zM404 890h197v-10l-180 -139
h-64z" />
    <glyph glyph-name="Ccaron" unicode="&#x10c;" horiz-adv-x="695" 
d="M413 712c92 0 168 -21 225 -59l4 -181h-54c-26 120 -76 186 -167 186c-119 0 -166 -131 -166 -299c0 -181 60 -312 176 -312c78 0 142 60 184 214h55l-18 -203c-58 -43 -152 -68 -251 -68c-233 0 -376 128 -376 341c0 236 176 381 388 381zM603 894l-118 -152h-136
l-118 152h65l121 -65l121 65h65z" />
    <glyph glyph-name="Ccircumflex" unicode="&#x108;" horiz-adv-x="695" 
d="M413 712c92 0 168 -21 225 -59l4 -181h-54c-26 120 -76 186 -167 186c-119 0 -166 -131 -166 -299c0 -181 60 -312 176 -312c78 0 142 60 184 214h55l-18 -203c-58 -43 -152 -68 -251 -68c-233 0 -376 128 -376 341c0 236 176 381 388 381zM485 893l118 -152h-65l-121 65
l-121 -65h-65l118 152h136z" />
    <glyph glyph-name="Cdotaccent" unicode="&#x10a;" horiz-adv-x="695" 
d="M413 712c92 0 168 -21 225 -59l4 -181h-54c-26 120 -76 186 -167 186c-119 0 -166 -131 -166 -299c0 -181 60 -312 176 -312c78 0 142 60 184 214h55l-18 -203c-58 -43 -152 -68 -251 -68c-233 0 -376 128 -376 341c0 236 176 381 388 381zM417 737
c-67 0 -106 46 -106 99s39 99 106 99c66 0 106 -46 106 -99s-40 -99 -106 -99z" />
    <glyph glyph-name="Dcaron" unicode="&#x10e;" horiz-adv-x="807" 
d="M327 652h-13v-532c0 -59 22 -70 63 -70h6c106 0 173 117 173 288c0 198 -88 314 -229 314zM390 0h-364v45c65 7 69 16 69 67v478c0 51 -4 60 -69 67v45h339c283 0 417 -146 417 -346c0 -223 -148 -356 -392 -356zM558 894l-118 -152h-136l-118 152h65l121 -65l121 65h65z
" />
    <glyph glyph-name="Dcroat" unicode="&#x110;" horiz-adv-x="817" 
d="M36 320v68h69v202c0 51 -4 60 -69 67v45h339c283 0 417 -146 417 -346c0 -223 -148 -356 -392 -356h-364v45c65 7 69 16 69 67v208h-69zM337 652h-13v-264h126v-68h-126v-200c0 -59 22 -70 63 -70h6c106 0 173 117 173 288c0 198 -88 314 -229 314z" />
    <glyph glyph-name="Ebreve" unicode="&#x114;" horiz-adv-x="664" 
d="M26 0v45c65 7 69 16 69 67v478c0 51 -4 60 -69 67v45h586l5 -199h-42c-54 113 -79 149 -175 149h-86v-260h83c47 0 58 23 66 93h47v-246h-47c-8 70 -19 93 -66 93h-83v-215c0 -54 25 -67 77 -67h22c94 0 113 39 187 177h50l-33 -227h-591zM348 738
c-96 0 -150 59 -150 156h51c9 -47 55 -59 99 -59s90 12 99 59h51c0 -97 -54 -156 -150 -156z" />
    <glyph glyph-name="Ecaron" unicode="&#x11a;" horiz-adv-x="664" 
d="M26 0v45c65 7 69 16 69 67v478c0 51 -4 60 -69 67v45h586l5 -199h-42c-54 113 -79 149 -175 149h-86v-260h83c47 0 58 23 66 93h47v-246h-47c-8 70 -19 93 -66 93h-83v-215c0 -54 25 -67 77 -67h22c94 0 113 39 187 177h50l-33 -227h-591zM534 894l-118 -152h-136
l-118 152h65l121 -65l121 65h65z" />
    <glyph glyph-name="Edotaccent" unicode="&#x116;" horiz-adv-x="664" 
d="M26 0v45c65 7 69 16 69 67v478c0 51 -4 60 -69 67v45h586l5 -199h-42c-54 113 -79 149 -175 149h-86v-260h83c47 0 58 23 66 93h47v-246h-47c-8 70 -19 93 -66 93h-83v-215c0 -54 25 -67 77 -67h22c94 0 113 39 187 177h50l-33 -227h-591zM348 737c-67 0 -106 46 -106 99
s39 99 106 99c66 0 106 -46 106 -99s-40 -99 -106 -99z" />
    <glyph glyph-name="Emacron" unicode="&#x112;" horiz-adv-x="664" 
d="M26 0v45c65 7 69 16 69 67v478c0 51 -4 60 -69 67v45h586l5 -199h-42c-54 113 -79 149 -175 149h-86v-260h83c47 0 58 23 66 93h47v-246h-47c-8 70 -19 93 -66 93h-83v-215c0 -54 25 -67 77 -67h22c94 0 113 39 187 177h50l-33 -227h-591zM201 746v95h294v-95h-294z" />
    <glyph glyph-name="Eogonek" unicode="&#x118;" horiz-adv-x="664" 
d="M26 0v45c65 7 69 16 69 67v478c0 51 -4 60 -69 67v45h586l5 -199h-42c-54 113 -79 149 -175 149h-86v-260h83c47 0 58 23 66 93h47v-246h-47c-8 70 -19 93 -66 93h-83v-215c0 -54 25 -67 77 -67h22c94 0 113 39 187 177h50l-33 -227h-107c-35 -25 -52 -54 -52 -91
c0 -28 15 -50 45 -50c24 0 38 7 59 21l17 -21c-39 -50 -78 -75 -138 -75c-52 0 -96 31 -96 84c0 60 44 102 102 132h-421z" />
    <glyph glyph-name="Gbreve" unicode="&#x11e;" horiz-adv-x="752" 
d="M469 50v172c0 51 -4 60 -69 67v45h342v-45c-65 -7 -69 -16 -69 -67v-166c-70 -44 -170 -66 -279 -66c-245 0 -369 146 -369 342c0 236 178 380 392 380c92 0 169 -21 227 -59l4 -181h-54c-26 120 -77 186 -169 186c-120 0 -170 -131 -170 -299s55 -314 170 -314
c18 0 29 1 44 5zM427 738c-96 0 -150 59 -150 156h51c9 -47 55 -59 99 -59s90 12 99 59h51c0 -97 -54 -156 -150 -156z" />
    <glyph glyph-name="Gcircumflex" unicode="&#x11c;" horiz-adv-x="752" 
d="M469 50v172c0 51 -4 60 -69 67v45h342v-45c-65 -7 -69 -16 -69 -67v-166c-70 -44 -170 -66 -279 -66c-245 0 -369 146 -369 342c0 236 178 380 392 380c92 0 169 -21 227 -59l4 -181h-54c-26 120 -77 186 -169 186c-120 0 -170 -131 -170 -299s55 -314 170 -314
c18 0 29 1 44 5zM495 893l118 -152h-65l-121 65l-121 -65h-65l118 152h136z" />
    <glyph glyph-name="Gcommaaccent" unicode="&#x122;" horiz-adv-x="752" 
d="M469 50v172c0 51 -4 60 -69 67v45h342v-45c-65 -7 -69 -16 -69 -67v-166c-70 -44 -170 -66 -279 -66c-245 0 -369 146 -369 342c0 236 178 380 392 380c92 0 169 -21 227 -59l4 -181h-54c-26 120 -77 186 -169 186c-120 0 -170 -131 -170 -299s55 -314 170 -314
c18 0 29 1 44 5zM442 -158h-56c-30 8 -50 26 -50 62s31 64 85 64c61 0 98 -41 98 -96c0 -69 -51 -122 -177 -122v40c67 0 98 25 100 52z" />
    <glyph glyph-name="Gdotaccent" unicode="&#x120;" horiz-adv-x="752" 
d="M469 50v172c0 51 -4 60 -69 67v45h342v-45c-65 -7 -69 -16 -69 -67v-166c-70 -44 -170 -66 -279 -66c-245 0 -369 146 -369 342c0 236 178 380 392 380c92 0 169 -21 227 -59l4 -181h-54c-26 120 -77 186 -169 186c-120 0 -170 -131 -170 -299s55 -314 170 -314
c18 0 29 1 44 5zM427 737c-67 0 -106 46 -106 99s39 99 106 99c66 0 106 -46 106 -99s-40 -99 -106 -99z" />
    <glyph glyph-name="Hbar" unicode="&#x126;" horiz-adv-x="880" 
d="M324 590v-35h232v35c0 51 -4 60 -69 67v45h357v-45c-65 -7 -69 -16 -69 -67v-35h69v-68h-69v-375c0 -51 4 -60 69 -67v-45h-357v45c65 7 69 16 69 67v208h-232v-208c0 -51 4 -60 69 -67v-45h-357v45c65 7 69 16 69 67v375h-68v68h68v35c0 51 -4 60 -69 67v45h357v-45
c-65 -7 -69 -16 -69 -67zM324 388h232v99h-232v-99z" />
    <glyph glyph-name="Hcircumflex" unicode="&#x124;" horiz-adv-x="860" 
d="M314 590v-202h232v202c0 51 -4 60 -69 67v45h357v-45c-65 -7 -69 -16 -69 -67v-478c0 -51 4 -60 69 -67v-45h-357v45c65 7 69 16 69 67v208h-232v-208c0 -51 4 -60 69 -67v-45h-357v45c65 7 69 16 69 67v478c0 51 -4 60 -69 67v45h357v-45c-65 -7 -69 -16 -69 -67z
M498 893l118 -152h-65l-121 65l-121 -65h-65l118 152h136z" />
    <glyph glyph-name="Ibreve" unicode="&#x12c;" horiz-adv-x="409" 
d="M314 590v-478c0 -51 4 -60 69 -67v-45h-357v45c65 7 69 16 69 67v478c0 51 -4 60 -69 67v45h357v-45c-65 -7 -69 -16 -69 -67zM204 738c-96 0 -150 59 -150 156h51c9 -47 55 -59 99 -59s90 12 99 59h51c0 -97 -54 -156 -150 -156z" />
    <glyph glyph-name="Idotaccent" unicode="&#x130;" horiz-adv-x="409" 
d="M314 590v-478c0 -51 4 -60 69 -67v-45h-357v45c65 7 69 16 69 67v478c0 51 -4 60 -69 67v45h357v-45c-65 -7 -69 -16 -69 -67zM204 737c-67 0 -106 46 -106 99s39 99 106 99c66 0 106 -46 106 -99s-40 -99 -106 -99z" />
    <glyph glyph-name="Imacron" unicode="&#x12a;" horiz-adv-x="409" 
d="M314 590v-478c0 -51 4 -60 69 -67v-45h-357v45c65 7 69 16 69 67v478c0 51 -4 60 -69 67v45h357v-45c-65 -7 -69 -16 -69 -67zM57 746v95h294v-95h-294z" />
    <glyph glyph-name="Iogonek" unicode="&#x12e;" horiz-adv-x="409" 
d="M314 590v-478c0 -51 4 -60 69 -67v-45h-131c-35 -25 -52 -54 -52 -91c0 -28 15 -50 45 -50c24 0 38 7 59 21l17 -21c-39 -50 -78 -75 -138 -75c-52 0 -96 31 -96 84c0 60 44 102 102 132h-163v45c65 7 69 16 69 67v478c0 51 -4 60 -69 67v45h357v-45
c-65 -7 -69 -16 -69 -67z" />
    <glyph glyph-name="Itilde" unicode="&#x128;" horiz-adv-x="409" 
d="M314 590v-478c0 -51 4 -60 69 -67v-45h-357v45c65 7 69 16 69 67v478c0 51 -4 60 -69 67v45h357v-45c-65 -7 -69 -16 -69 -67zM274 741c-65 0 -93 60 -136 60c-28 0 -46 -24 -65 -55l-40 22c33 86 65 139 121 139c65 0 93 -60 136 -60c28 0 46 24 65 55l40 -22
c-33 -86 -65 -139 -121 -139z" />
    <glyph glyph-name="IJ" unicode="&#x132;" horiz-adv-x="995" 
d="M314 590v-478c0 -51 4 -60 69 -67v-45h-357v45c65 7 69 16 69 67v478c0 51 -4 60 -69 67v45h357v-45c-65 -7 -69 -16 -69 -67zM691 168v422c0 51 -4 60 -69 67v45h357v-45c-65 -7 -69 -16 -69 -67v-360c0 -167 -103 -240 -283 -240c-160 0 -243 55 -243 155
c0 43 20 76 55 95h139c-4 -25 -7 -48 -7 -83c0 -63 11 -121 61 -121c56 0 59 55 59 132z" />
    <glyph glyph-name="Jcircumflex" unicode="&#x134;" horiz-adv-x="606" 
d="M302 168v422c0 51 -4 60 -69 67v45h357v-45c-65 -7 -69 -16 -69 -67v-360c0 -167 -103 -240 -283 -240c-160 0 -243 55 -243 155c0 43 20 76 55 95h139c-4 -25 -7 -48 -7 -83c0 -63 11 -121 61 -121c56 0 59 55 59 132zM480 893l118 -152h-65l-121 65l-121 -65h-65
l118 152h136z" />
    <glyph glyph-name="Kcommaaccent" unicode="&#x136;" horiz-adv-x="792" 
d="M505 439l205 -331c22 -35 40 -57 82 -63v-45h-253c-34 30 -66 76 -92 122l-125 218l230 239c18 18 29 32 29 49c0 16 -16 27 -67 29v45h244v-45c-41 -3 -58 -8 -83 -35zM314 590v-478c0 -51 4 -60 69 -67v-45h-357v45c65 7 69 16 69 67v478c0 51 -4 60 -69 67v45h357v-45
c-65 -7 -69 -16 -69 -67zM424 -158h-56c-30 8 -50 26 -50 62s31 64 85 64c61 0 98 -41 98 -96c0 -69 -51 -122 -177 -122v40c67 0 98 25 100 52z" />
    <glyph glyph-name="Lacute" unicode="&#x139;" horiz-adv-x="658" 
d="M314 590v-473c0 -54 21 -67 73 -67h21c62 0 99 35 196 197h47l-39 -247h-586v45c65 7 69 16 69 67v478c0 51 -4 60 -69 67v45h357v-45c-65 -7 -69 -16 -69 -67zM223 890h197v-10l-180 -139h-64z" />
    <glyph glyph-name="Lcaron" unicode="&#x13d;" horiz-adv-x="658" 
d="M314 590v-473c0 -54 21 -67 73 -67h21c62 0 99 35 196 197h47l-39 -247h-586v45c65 7 69 16 69 67v478c0 51 -4 60 -69 67v45h357v-45c-65 -7 -69 -16 -69 -67zM603 690l-119 -193h-47l11 205h155v-12z" />
    <glyph glyph-name="Lcommaaccent" unicode="&#x13b;" horiz-adv-x="658" 
d="M314 590v-473c0 -54 21 -67 73 -67h21c62 0 99 35 196 197h47l-39 -247h-586v45c65 7 69 16 69 67v478c0 51 -4 60 -69 67v45h357v-45c-65 -7 -69 -16 -69 -67zM353 -158h-56c-30 8 -50 26 -50 62s31 64 85 64c61 0 98 -41 98 -96c0 -69 -51 -122 -177 -122v40
c67 0 98 25 100 52z" />
    <glyph glyph-name="Ldot" unicode="&#x13f;" horiz-adv-x="658" 
d="M314 590v-473c0 -54 21 -67 73 -67h21c62 0 99 35 196 197h47l-39 -247h-586v45c65 7 69 16 69 67v478c0 51 -4 60 -69 67v45h357v-45c-65 -7 -69 -16 -69 -67zM441 409c0 62 46 105 104 105s104 -43 104 -105s-46 -104 -104 -104s-104 42 -104 104z" />
    <glyph glyph-name="Nacute" unicode="&#x143;" horiz-adv-x="757" 
d="M598 337v253c0 51 -21 61 -102 67v45h244v-45c-65 -7 -69 -16 -69 -67v-590h-82l-421 516v-404c0 -51 21 -61 102 -67v-45h-244v45c65 7 69 16 69 67v480c-23 42 -37 62 -69 65v45h274zM378 890h197v-10l-180 -139h-64z" />
    <glyph glyph-name="Ncaron" unicode="&#x147;" horiz-adv-x="757" 
d="M598 337v253c0 51 -21 61 -102 67v45h244v-45c-65 -7 -69 -16 -69 -67v-590h-82l-421 516v-404c0 -51 21 -61 102 -67v-45h-244v45c65 7 69 16 69 67v480c-23 42 -37 62 -69 65v45h274zM577 894l-118 -152h-136l-118 152h65l121 -65l121 65h65z" />
    <glyph glyph-name="Ncommaaccent" unicode="&#x145;" horiz-adv-x="757" 
d="M598 337v253c0 51 -21 61 -102 67v45h244v-45c-65 -7 -69 -16 -69 -67v-590h-82l-421 516v-404c0 -51 21 -61 102 -67v-45h-244v45c65 7 69 16 69 67v480c-23 42 -37 62 -69 65v45h274zM406 -158h-56c-30 8 -50 26 -50 62s31 64 85 64c61 0 98 -41 98 -96
c0 -69 -51 -122 -177 -122v40c67 0 98 25 100 52z" />
    <glyph glyph-name="Eng" unicode="&#x14a;" horiz-adv-x="757" 
d="M519 88l-351 428v-404c0 -51 21 -61 102 -67v-45h-244v45c65 7 69 16 69 67v480c-23 42 -37 62 -69 65v45h274l298 -365v253c0 51 -21 61 -102 67v45h244v-45c-65 -7 -69 -16 -69 -67v-479c0 -112 -20 -165 -70 -214c-59 -58 -99 -79 -173 -108l-17 22l48 62
c50 64 60 131 60 215z" />
    <glyph glyph-name="Obreve" unicode="&#x14e;" horiz-adv-x="758" 
d="M384 42c94 0 119 155 119 294c0 184 -34 324 -129 324c-94 0 -119 -155 -119 -294c0 -184 34 -324 129 -324zM369 -10c-227 0 -344 160 -344 347c0 230 151 375 364 375c227 0 344 -160 344 -347c0 -230 -151 -375 -364 -375zM383 738c-96 0 -150 59 -150 156h51
c9 -47 55 -59 99 -59s90 12 99 59h51c0 -97 -54 -156 -150 -156z" />
    <glyph glyph-name="Ohungarumlaut" unicode="&#x150;" horiz-adv-x="758" 
d="M384 42c94 0 119 155 119 294c0 184 -34 324 -129 324c-94 0 -119 -155 -119 -294c0 -184 34 -324 129 -324zM369 -10c-227 0 -344 160 -344 347c0 230 151 375 364 375c227 0 344 -160 344 -347c0 -230 -151 -375 -364 -375zM306 890h162v-10l-149 -139h-61zM494 890
h162v-10l-149 -139h-61z" />
    <glyph glyph-name="Omacron" unicode="&#x14c;" horiz-adv-x="758" 
d="M384 42c94 0 119 155 119 294c0 184 -34 324 -129 324c-94 0 -119 -155 -119 -294c0 -184 34 -324 129 -324zM369 -10c-227 0 -344 160 -344 347c0 230 151 375 364 375c227 0 344 -160 344 -347c0 -230 -151 -375 -364 -375zM236 746v95h294v-95h-294z" />
    <glyph glyph-name="Oslashacute" unicode="&#x1fe;" horiz-adv-x="758" 
d="M369 -10c-75 0 -137 17 -188 47l-74 -97l-42 32l73 95c-75 65 -113 163 -113 270c0 230 151 375 364 375c82 0 149 -21 202 -57l70 91l42 -32l-71 -92c67 -64 101 -157 101 -257c0 -230 -151 -375 -364 -375zM255 366c0 -49 2 -96 8 -137l224 291
c-19 85 -54 140 -113 140c-94 0 -119 -155 -119 -294zM384 42c94 0 119 155 119 294c0 39 -2 77 -5 112l-222 -288c19 -73 54 -118 108 -118zM376 890h197v-10l-180 -139h-64z" />
    <glyph glyph-name="Racute" unicode="&#x154;" horiz-adv-x="778" 
d="M335 649h-21v-305h22c85 0 136 57 136 156c0 95 -50 149 -137 149zM314 290v-178c0 -51 4 -60 69 -67v-45h-357v45c65 7 69 16 69 67v478c0 51 -4 60 -69 67v45h389c161 0 273 -75 273 -201c0 -98 -70 -153 -143 -179l133 -196c40 -60 55 -78 100 -81v-45h-247
c-28 22 -54 58 -84 110l-103 180h-30zM361 890h197v-10l-180 -139h-64z" />
    <glyph glyph-name="Rcaron" unicode="&#x158;" horiz-adv-x="778" 
d="M335 649h-21v-305h22c85 0 136 57 136 156c0 95 -50 149 -137 149zM314 290v-178c0 -51 4 -60 69 -67v-45h-357v45c65 7 69 16 69 67v478c0 51 -4 60 -69 67v45h389c161 0 273 -75 273 -201c0 -98 -70 -153 -143 -179l133 -196c40 -60 55 -78 100 -81v-45h-247
c-28 22 -54 58 -84 110l-103 180h-30zM560 894l-118 -152h-136l-118 152h65l121 -65l121 65h65z" />
    <glyph glyph-name="Rcommaaccent" unicode="&#x156;" horiz-adv-x="778" 
d="M335 649h-21v-305h22c85 0 136 57 136 156c0 95 -50 149 -137 149zM314 290v-178c0 -51 4 -60 69 -67v-45h-357v45c65 7 69 16 69 67v478c0 51 -4 60 -69 67v45h389c161 0 273 -75 273 -201c0 -98 -70 -153 -143 -179l133 -196c40 -60 55 -78 100 -81v-45h-247
c-28 22 -54 58 -84 110l-103 180h-30zM407 -158h-56c-30 8 -50 26 -50 62s31 64 85 64c61 0 98 -41 98 -96c0 -69 -51 -122 -177 -122v40c67 0 98 25 100 52z" />
    <glyph glyph-name="Sacute" unicode="&#x15a;" horiz-adv-x="592" 
d="M281 -10c-102 0 -192 30 -241 67l-12 175h59c25 -108 93 -190 194 -190c66 0 111 29 111 88c0 60 -42 88 -149 117c-139 38 -212 107 -212 230c0 147 113 235 264 235c95 0 172 -24 220 -60v-153h-49c-25 97 -78 162 -171 162c-57 0 -98 -32 -98 -87
c0 -62 42 -88 143 -116c132 -37 224 -90 224 -237c0 -161 -127 -231 -283 -231zM301 890h197v-10l-180 -139h-64z" />
    <glyph glyph-name="Scedilla" unicode="&#x15e;" horiz-adv-x="592" 
d="M180 -233l-9 37c72 0 103 22 103 47c0 27 -30 30 -77 32l43 109c-85 6 -158 33 -200 65l-12 175h59c25 -108 93 -190 194 -190c66 0 111 29 111 88c0 60 -42 88 -149 117c-139 38 -212 107 -212 230c0 147 113 235 264 235c95 0 172 -24 220 -60v-153h-49
c-25 97 -78 162 -171 162c-57 0 -98 -32 -98 -87c0 -62 42 -88 143 -116c132 -37 224 -90 224 -237c0 -161 -127 -231 -283 -231h-2l-11 -28c64 0 107 -31 107 -84c0 -77 -95 -111 -195 -111z" />
    <glyph glyph-name="Scircumflex" unicode="&#x15c;" horiz-adv-x="592" 
d="M281 -10c-102 0 -192 30 -241 67l-12 175h59c25 -108 93 -190 194 -190c66 0 111 29 111 88c0 60 -42 88 -149 117c-139 38 -212 107 -212 230c0 147 113 235 264 235c95 0 172 -24 220 -60v-153h-49c-25 97 -78 162 -171 162c-57 0 -98 -32 -98 -87
c0 -62 42 -88 143 -116c132 -37 224 -90 224 -237c0 -161 -127 -231 -283 -231zM373 893l118 -152h-65l-121 65l-121 -65h-65l118 152h136z" />
    <glyph glyph-name="Scommaaccent" unicode="&#x218;" horiz-adv-x="592" 
d="M281 -10c-102 0 -192 30 -241 67l-12 175h59c25 -108 93 -190 194 -190c66 0 111 29 111 88c0 60 -42 88 -149 117c-139 38 -212 107 -212 230c0 147 113 235 264 235c95 0 172 -24 220 -60v-153h-49c-25 97 -78 162 -171 162c-57 0 -98 -32 -98 -87
c0 -62 42 -88 143 -116c132 -37 224 -90 224 -237c0 -161 -127 -231 -283 -231zM305 -158h-56c-30 8 -50 26 -50 62s31 64 85 64c61 0 98 -41 98 -96c0 -69 -51 -122 -177 -122v40c67 0 98 25 100 52z" />
    <glyph glyph-name="Tbar" unicode="&#x166;" horiz-adv-x="723" 
d="M30 702h663l15 -261h-45c-77 162 -106 218 -168 218h-24v-271h102v-68h-102v-213c0 -51 14 -55 79 -62v-45h-377v45c65 7 79 11 79 62v213h-102v68h102v271h-24c-62 0 -91 -56 -168 -218h-45z" />
    <glyph glyph-name="Tcaron" unicode="&#x164;" horiz-adv-x="723" 
d="M30 702h663l15 -261h-45c-77 162 -106 218 -168 218h-24v-552c0 -51 14 -55 79 -62v-45h-377v45c65 7 79 11 79 62v552h-24c-62 0 -91 -56 -168 -218h-45zM547 894l-118 -152h-136l-118 152h65l121 -65l121 65h65z" />
    <glyph glyph-name="Ubreve" unicode="&#x16c;" horiz-adv-x="763" 
d="M303 590v-325c0 -113 39 -183 148 -183c83 0 155 47 155 187v321c0 51 -11 61 -92 67v45h234v-45c-65 -7 -69 -16 -69 -67v-341c0 -177 -126 -259 -285 -259c-199 0 -310 87 -310 259v341c0 51 -4 60 -69 67v45h357v-45c-65 -7 -69 -16 -69 -67zM425 738
c-96 0 -150 59 -150 156h51c9 -47 55 -59 99 -59s90 12 99 59h51c0 -97 -54 -156 -150 -156z" />
    <glyph glyph-name="Uhungarumlaut" unicode="&#x170;" horiz-adv-x="763" 
d="M303 590v-325c0 -113 39 -183 148 -183c83 0 155 47 155 187v321c0 51 -11 61 -92 67v45h234v-45c-65 -7 -69 -16 -69 -67v-341c0 -177 -126 -259 -285 -259c-199 0 -310 87 -310 259v341c0 51 -4 60 -69 67v45h357v-45c-65 -7 -69 -16 -69 -67zM348 890h162v-10
l-149 -139h-61zM536 890h162v-10l-149 -139h-61z" />
    <glyph glyph-name="Umacron" unicode="&#x16a;" horiz-adv-x="763" 
d="M303 590v-325c0 -113 39 -183 148 -183c83 0 155 47 155 187v321c0 51 -11 61 -92 67v45h234v-45c-65 -7 -69 -16 -69 -67v-341c0 -177 -126 -259 -285 -259c-199 0 -310 87 -310 259v341c0 51 -4 60 -69 67v45h357v-45c-65 -7 -69 -16 -69 -67zM278 746v95h294v-95h-294
z" />
    <glyph glyph-name="Uogonek" unicode="&#x172;" horiz-adv-x="763" 
d="M303 590v-325c0 -113 39 -183 148 -183c83 0 155 47 155 187v321c0 51 -11 61 -92 67v45h234v-45c-65 -7 -69 -16 -69 -67v-341c0 -129 -67 -208 -165 -241c-42 -26 -64 -57 -64 -99c0 -28 15 -50 45 -50c24 0 38 7 59 21l17 -21c-39 -50 -78 -75 -138 -75
c-52 0 -96 31 -96 84c0 55 37 94 87 123c-10 0 -20 -1 -30 -1c-199 0 -310 87 -310 259v341c0 51 -4 60 -69 67v45h357v-45c-65 -7 -69 -16 -69 -67z" />
    <glyph glyph-name="Uring" unicode="&#x16e;" horiz-adv-x="763" 
d="M303 590v-325c0 -113 39 -183 148 -183c83 0 155 47 155 187v321c0 51 -11 61 -92 67v45h234v-45c-65 -7 -69 -16 -69 -67v-341c0 -177 -126 -259 -285 -259c-199 0 -310 87 -310 259v341c0 51 -4 60 -69 67v45h357v-45c-65 -7 -69 -16 -69 -67zM376 829
c0 -28 17 -49 49 -49s49 21 49 49c0 29 -17 50 -49 50s-49 -21 -49 -50zM317 829c0 59 45 105 108 105s107 -46 107 -105c0 -58 -44 -104 -107 -104s-108 46 -108 104z" />
    <glyph glyph-name="Utilde" unicode="&#x168;" horiz-adv-x="763" 
d="M303 590v-325c0 -113 39 -183 148 -183c83 0 155 47 155 187v321c0 51 -11 61 -92 67v45h234v-45c-65 -7 -69 -16 -69 -67v-341c0 -177 -126 -259 -285 -259c-199 0 -310 87 -310 259v341c0 51 -4 60 -69 67v45h357v-45c-65 -7 -69 -16 -69 -67zM495 741
c-65 0 -93 60 -136 60c-28 0 -46 -24 -65 -55l-40 22c33 86 65 139 121 139c65 0 93 -60 136 -60c28 0 46 24 65 55l40 -22c-33 -86 -65 -139 -121 -139z" />
    <glyph glyph-name="Wacute" unicode="&#x1e82;" horiz-adv-x="1028" 
d="M661 -3l-133 385l-143 -385h-81l-241 623c-9 22 -30 32 -58 37v45h345v-45c-34 -4 -46 -17 -46 -38c0 -16 7 -36 15 -58l108 -287l71 193l-52 153c-8 22 -21 32 -49 37v45h345v-45c-49 -1 -65 -15 -65 -43c0 -17 6 -39 14 -66l86 -269l93 273c7 22 13 42 13 58
c0 27 -16 44 -64 47v45h204v-45c-28 -5 -50 -15 -58 -37l-222 -623h-82zM547 890h197v-10l-180 -139h-64z" />
    <glyph glyph-name="Wcircumflex" unicode="&#x174;" horiz-adv-x="1028" 
d="M661 -3l-133 385l-143 -385h-81l-241 623c-9 22 -30 32 -58 37v45h345v-45c-34 -4 -46 -17 -46 -38c0 -16 7 -36 15 -58l108 -287l71 193l-52 153c-8 22 -21 32 -49 37v45h345v-45c-49 -1 -65 -15 -65 -43c0 -17 6 -39 14 -66l86 -269l93 273c7 22 13 42 13 58
c0 27 -16 44 -64 47v45h204v-45c-28 -5 -50 -15 -58 -37l-222 -623h-82zM628 893l118 -152h-65l-121 65l-121 -65h-65l118 152h136z" />
    <glyph glyph-name="Wgrave" unicode="&#x1e80;" horiz-adv-x="1028" 
d="M661 -3l-133 385l-143 -385h-81l-241 623c-9 22 -30 32 -58 37v45h345v-45c-34 -4 -46 -17 -46 -38c0 -16 7 -36 15 -58l108 -287l71 193l-52 153c-8 22 -21 32 -49 37v45h345v-45c-49 -1 -65 -15 -65 -43c0 -17 6 -39 14 -66l86 -269l93 273c7 22 13 42 13 58
c0 27 -16 44 -64 47v45h204v-45c-28 -5 -50 -15 -58 -37l-222 -623h-82zM370 890h197l47 -149h-64l-180 139v10z" />
    <glyph glyph-name="Wdieresis" unicode="&#x1e84;" horiz-adv-x="1028" 
d="M661 -3l-133 385l-143 -385h-81l-241 623c-9 22 -30 32 -58 37v45h345v-45c-34 -4 -46 -17 -46 -38c0 -16 7 -36 15 -58l108 -287l71 193l-52 153c-8 22 -21 32 -49 37v45h345v-45c-49 -1 -65 -15 -65 -43c0 -17 6 -39 14 -66l86 -269l93 273c7 22 13 42 13 58
c0 27 -16 44 -64 47v45h204v-45c-28 -5 -50 -15 -58 -37l-222 -623h-82zM366 823c0 48 40 88 89 88s90 -40 90 -88s-41 -88 -90 -88s-89 40 -89 88zM576 823c0 48 41 88 88 88c51 0 91 -40 91 -88s-40 -88 -91 -88c-47 0 -88 40 -88 88z" />
    <glyph glyph-name="Ycircumflex" unicode="&#x176;" horiz-adv-x="727" 
d="M481 258v-151c0 -51 14 -55 79 -62v-45h-372v45c65 7 79 11 79 62v146l-204 367c-15 28 -29 32 -58 37v45h365v-45c-51 -2 -63 -12 -63 -36c0 -22 8 -39 24 -68l123 -210l103 208c12 25 25 52 25 70c0 24 -23 34 -66 36v45h206v-45c-28 -5 -46 -13 -58 -37zM483 893
l118 -152h-65l-121 65l-121 -65h-65l118 152h136z" />
    <glyph glyph-name="Ygrave" unicode="&#x1ef2;" horiz-adv-x="727" 
d="M481 258v-151c0 -51 14 -55 79 -62v-45h-372v45c65 7 79 11 79 62v146l-204 367c-15 28 -29 32 -58 37v45h365v-45c-51 -2 -63 -12 -63 -36c0 -22 8 -39 24 -68l123 -210l103 208c12 25 25 52 25 70c0 24 -23 34 -66 36v45h206v-45c-28 -5 -46 -13 -58 -37zM225 890h197
l47 -149h-64l-180 139v10z" />
    <glyph glyph-name="Zacute" unicode="&#x179;" horiz-adv-x="643" 
d="M266 50h105c84 0 120 33 209 189h48l-37 -239h-576v39l339 613h-97c-97 0 -114 -43 -174 -174h-45l10 224h559v-39zM320 890h197v-10l-180 -139h-64z" />
    <glyph glyph-name="Zdotaccent" unicode="&#x17b;" horiz-adv-x="643" 
d="M266 50h105c84 0 120 33 209 189h48l-37 -239h-576v39l339 613h-97c-97 0 -114 -43 -174 -174h-45l10 224h559v-39zM333 737c-67 0 -106 46 -106 99s39 99 106 99c66 0 106 -46 106 -99s-40 -99 -106 -99z" />
    <glyph glyph-name="abreve" unicode="&#x103;" horiz-adv-x="568" 
d="M276 98c11 0 19 2 29 5v185l-40 -15c-32 -12 -54 -28 -54 -87c0 -50 17 -88 65 -88zM507 375v-265c0 -20 2 -41 25 -41c13 0 26 3 31 5l7 -30c-35 -32 -79 -54 -139 -54c-61 0 -105 30 -123 83c-28 -43 -74 -79 -148 -79c-86 0 -147 47 -147 136c0 88 60 124 130 148
l162 56v110c0 40 -10 67 -43 67c-35 0 -48 -31 -48 -77c0 -24 4 -49 10 -74l-124 -16c-30 10 -52 35 -52 73c0 95 98 136 223 136c146 0 236 -43 236 -178zM281 598c-96 0 -149 64 -149 170h50c8 -54 49 -70 99 -70s91 16 99 70h50c0 -106 -53 -170 -149 -170z" />
    <glyph glyph-name="amacron" unicode="&#x101;" horiz-adv-x="568" 
d="M276 98c11 0 19 2 29 5v185l-40 -15c-32 -12 -54 -28 -54 -87c0 -50 17 -88 65 -88zM507 375v-265c0 -20 2 -41 25 -41c13 0 26 3 31 5l7 -30c-35 -32 -79 -54 -139 -54c-61 0 -105 30 -123 83c-28 -43 -74 -79 -148 -79c-86 0 -147 47 -147 136c0 88 60 124 130 148
l162 56v110c0 40 -10 67 -43 67c-35 0 -48 -31 -48 -77c0 -24 4 -49 10 -74l-124 -16c-30 10 -52 35 -52 73c0 95 98 136 223 136c146 0 236 -43 236 -178zM134 625v95h294v-95h-294z" />
    <glyph glyph-name="aogonek" unicode="&#x105;" horiz-adv-x="568" 
d="M507 375v-265c0 -20 2 -41 25 -41c13 0 26 3 31 5l7 -30c-51 -46 -142 -59 -142 -135c0 -28 15 -50 45 -50c24 0 38 7 59 21l17 -21c-39 -50 -78 -75 -138 -75c-52 0 -96 31 -96 84c0 55 36 92 94 122c-47 8 -86 38 -101 83c-28 -43 -74 -79 -148 -79
c-86 0 -147 47 -147 136c0 88 60 124 130 148l162 56v110c0 40 -10 67 -43 67c-35 0 -48 -31 -48 -77c0 -24 4 -49 10 -74l-124 -16c-30 10 -52 35 -52 73c0 95 98 136 223 136c146 0 236 -43 236 -178zM276 98c11 0 19 2 29 5v185l-40 -15c-32 -12 -54 -28 -54 -87
c0 -50 17 -88 65 -88z" />
    <glyph glyph-name="aringacute" unicode="&#x1fb;" horiz-adv-x="568" 
d="M170 664c0 53 47 94 113 94s113 -41 113 -94c0 -52 -47 -93 -113 -93s-113 41 -113 93zM284 901h197v-10l-174 -110h-64zM227 664c0 -26 22 -46 56 -46s56 20 56 46c0 27 -22 47 -56 47s-56 -20 -56 -47zM276 98c11 0 19 2 29 5v185l-40 -15c-32 -12 -54 -28 -54 -87
c0 -50 17 -88 65 -88zM507 375v-265c0 -20 2 -41 25 -41c13 0 26 3 31 5l7 -30c-35 -32 -79 -54 -139 -54c-61 0 -105 30 -123 83c-28 -43 -74 -79 -148 -79c-86 0 -147 47 -147 136c0 88 60 124 130 148l162 56v110c0 40 -10 67 -43 67c-35 0 -48 -31 -48 -77
c0 -24 4 -49 10 -74l-124 -16c-30 10 -52 35 -52 73c0 95 98 136 223 136c146 0 236 -43 236 -178z" />
    <glyph glyph-name="aeacute" unicode="&#x1fd;" horiz-adv-x="808" 
d="M568 553c146 0 222 -93 222 -224v-25h-308c0 -104 53 -180 148 -180c56 0 104 21 142 70l21 -13c-28 -116 -107 -191 -238 -191c-85 0 -158 31 -204 90c-48 -53 -86 -86 -185 -86c-92 0 -153 47 -153 136c0 88 60 124 130 148l160 55c3 15 7 29 11 42
c3 91 -21 136 -56 136c-31 0 -44 -31 -44 -77c0 -24 4 -49 10 -74l-124 -16c-30 10 -52 35 -52 73c0 95 98 136 223 136c63 0 113 -12 144 -45c44 29 96 45 153 45zM404 766h197v-10l-185 -153h-59zM551 509c-50 0 -64 -62 -68 -156h132c0 99 -16 156 -64 156zM289 98
c12 0 26 4 42 11c-22 41 -35 91 -35 151c0 8 0 17 1 25l-20 -8c-44 -16 -66 -32 -66 -91c0 -50 17 -88 78 -88z" />
    <glyph glyph-name="cacute" unicode="&#x107;" horiz-adv-x="517" 
d="M198 330c0 -126 56 -203 155 -203c57 0 99 18 130 62l24 -15c-33 -129 -118 -184 -234 -184c-142 0 -253 99 -253 265c0 171 112 298 282 298c102 0 190 -38 190 -131c0 -41 -24 -66 -47 -76h-103c3 24 4 43 4 60c0 60 -16 99 -60 99c-56 0 -88 -75 -88 -175zM286 766
h197v-10l-185 -153h-59z" />
    <glyph glyph-name="ccaron" unicode="&#x10d;" horiz-adv-x="517" 
d="M198 330c0 -126 56 -203 155 -203c57 0 99 18 130 62l24 -15c-33 -129 -118 -184 -234 -184c-142 0 -253 99 -253 265c0 171 112 298 282 298c102 0 190 -38 190 -131c0 -41 -24 -66 -47 -76h-103c3 24 4 43 4 60c0 60 -16 99 -60 99c-56 0 -88 -75 -88 -175zM483 771
l-118 -169h-136l-118 169h65l121 -80l121 80h65z" />
    <glyph glyph-name="ccircumflex" unicode="&#x109;" horiz-adv-x="517" 
d="M198 330c0 -126 56 -203 155 -203c57 0 99 18 130 62l24 -15c-33 -129 -118 -184 -234 -184c-142 0 -253 99 -253 265c0 171 112 298 282 298c102 0 190 -38 190 -131c0 -41 -24 -66 -47 -76h-103c3 24 4 43 4 60c0 60 -16 99 -60 99c-56 0 -88 -75 -88 -175zM359 766
l118 -169h-65l-121 80l-121 -80h-65l118 169h136z" />
    <glyph glyph-name="cdotaccent" unicode="&#x10b;" horiz-adv-x="517" 
d="M198 330c0 -126 56 -203 155 -203c57 0 99 18 130 62l24 -15c-33 -129 -118 -184 -234 -184c-142 0 -253 99 -253 265c0 171 112 298 282 298c102 0 190 -38 190 -131c0 -41 -24 -66 -47 -76h-103c3 24 4 43 4 60c0 60 -16 99 -60 99c-56 0 -88 -75 -88 -175zM296 594
c-67 0 -106 46 -106 99s39 99 106 99c66 0 106 -46 106 -99s-40 -99 -106 -99z" />
    <glyph glyph-name="dcaron" unicode="&#x10f;" horiz-adv-x="660" 
d="M325 486c-66 0 -97 -71 -97 -179c0 -123 42 -205 113 -205c14 0 29 2 44 7v284c0 61 -12 93 -60 93zM385 677l-53 27v34l224 45h35v-664c0 -34 3 -51 32 -51h23v-44l-225 -34h-39l3 95c-41 -64 -96 -95 -163 -95c-116 0 -202 89 -202 257c0 198 121 301 270 301
c39 0 73 -9 95 -27v156zM797 771l-119 -193h-47l11 205h155v-12z" />
    <glyph glyph-name="dcroat" unicode="&#x111;" horiz-adv-x="660" 
d="M385 677l-53 27v34l224 45h35v-140h55v-56h-55v-468c0 -34 3 -51 32 -51h23v-44l-225 -34h-39l3 95c-41 -64 -96 -95 -163 -95c-116 0 -202 89 -202 257c0 198 121 301 270 301c39 0 73 -9 95 -27v66h-116v56h116v34zM325 486c-66 0 -97 -71 -97 -179
c0 -123 42 -205 113 -205c14 0 29 2 44 7v284c0 61 -12 93 -60 93z" />
    <glyph glyph-name="ebreve" unicode="&#x115;" horiz-adv-x="541" 
d="M297 553c150 0 226 -93 226 -224v-25h-317c0 -110 62 -180 150 -180c63 0 111 21 149 70l21 -13c-28 -116 -107 -191 -238 -191c-149 0 -268 95 -268 270c0 181 129 293 277 293zM284 509c-50 0 -73 -62 -77 -156h141c0 99 -16 156 -64 156zM297 598
c-96 0 -149 64 -149 170h50c8 -54 49 -70 99 -70s91 16 99 70h50c0 -106 -53 -170 -149 -170z" />
    <glyph glyph-name="ecaron" unicode="&#x11b;" horiz-adv-x="541" 
d="M297 553c150 0 226 -93 226 -224v-25h-317c0 -110 62 -180 150 -180c63 0 111 21 149 70l21 -13c-28 -116 -107 -191 -238 -191c-149 0 -268 95 -268 270c0 181 129 293 277 293zM284 509c-50 0 -73 -62 -77 -156h141c0 99 -16 156 -64 156zM483 771l-118 -169h-136
l-118 169h65l121 -80l121 80h65z" />
    <glyph glyph-name="edotaccent" unicode="&#x117;" horiz-adv-x="541" 
d="M297 553c150 0 226 -93 226 -224v-25h-317c0 -110 62 -180 150 -180c63 0 111 21 149 70l21 -13c-28 -116 -107 -191 -238 -191c-149 0 -268 95 -268 270c0 181 129 293 277 293zM284 509c-50 0 -73 -62 -77 -156h141c0 99 -16 156 -64 156zM297 594
c-67 0 -106 46 -106 99s39 99 106 99c66 0 106 -46 106 -99s-40 -99 -106 -99z" />
    <glyph glyph-name="emacron" unicode="&#x113;" horiz-adv-x="541" 
d="M297 553c150 0 226 -93 226 -224v-25h-317c0 -110 62 -180 150 -180c63 0 111 21 149 70l21 -13c-28 -116 -107 -191 -238 -191c-149 0 -268 95 -268 270c0 181 129 293 277 293zM284 509c-50 0 -73 -62 -77 -156h141c0 99 -16 156 -64 156zM150 625v95h294v-95h-294z
" />
    <glyph glyph-name="eogonek" unicode="&#x119;" horiz-adv-x="541" 
d="M301 553c146 0 222 -93 222 -224v-25h-317c0 -110 62 -180 150 -180c63 0 111 21 149 70l21 -13c-20 -80 -63 -136 -129 -170c-47 -24 -72 -54 -72 -93c0 -37 17 -59 47 -59c24 0 38 7 59 21l17 -21c-39 -50 -78 -75 -138 -75c-52 0 -97 31 -97 84c0 54 37 93 86 122h-11
c-149 0 -268 95 -268 270c0 181 129 293 281 293zM284 509c-50 0 -73 -62 -77 -156h141c0 99 -16 156 -64 156z" />
    <glyph glyph-name="gbreve" unicode="&#x11f;" horiz-adv-x="571" 
d="M265 187c-38 0 -79 5 -116 17c-13 -12 -25 -25 -25 -44c0 -15 10 -27 27 -27h223c144 0 200 -62 200 -154c0 -131 -123 -202 -311 -202c-164 0 -266 42 -266 121c0 49 50 70 92 74c-43 17 -68 61 -68 104c0 68 46 111 100 139c-56 26 -97 71 -97 145
c0 122 105 193 250 193c41 0 71 -6 97 -13l183 4v-72h-47l-57 2c37 -25 61 -63 61 -113c0 -112 -107 -174 -246 -174zM386 -54h-274c-4 -5 -5 -16 -5 -27c0 -58 65 -91 159 -91c87 0 168 19 168 80c0 26 -16 38 -48 38zM285 598c-96 0 -149 64 -149 170h50
c8 -54 49 -70 99 -70s91 16 99 70h50c0 -106 -53 -170 -149 -170zM272 230c41 0 51 46 51 136c0 74 -17 142 -58 142c-40 0 -51 -47 -51 -132c0 -79 18 -146 58 -146z" />
    <glyph glyph-name="gcircumflex" unicode="&#x11d;" horiz-adv-x="571" 
d="M265 187c-38 0 -79 5 -116 17c-13 -12 -25 -25 -25 -44c0 -15 10 -27 27 -27h223c144 0 200 -62 200 -154c0 -131 -123 -202 -311 -202c-164 0 -266 42 -266 121c0 49 50 70 92 74c-43 17 -68 61 -68 104c0 68 46 111 100 139c-56 26 -97 71 -97 145
c0 122 105 193 250 193c41 0 71 -6 97 -13l183 4v-72h-47l-57 2c37 -25 61 -63 61 -113c0 -112 -107 -174 -246 -174zM353 766l118 -169h-65l-121 80l-121 -80h-65l118 169h136zM386 -54h-274c-4 -5 -5 -16 -5 -27c0 -58 65 -91 159 -91c87 0 168 19 168 80
c0 26 -16 38 -48 38zM272 230c41 0 51 46 51 136c0 74 -17 142 -58 142c-40 0 -51 -47 -51 -132c0 -79 18 -146 58 -146z" />
    <glyph glyph-name="gcommaaccent" unicode="&#x123;" horiz-adv-x="571" 
d="M265 187c-38 0 -79 5 -116 17c-13 -12 -25 -25 -25 -44c0 -15 10 -27 27 -27h223c144 0 200 -62 200 -154c0 -131 -123 -202 -311 -202c-164 0 -266 42 -266 121c0 49 50 70 92 74c-43 17 -68 61 -68 104c0 68 46 111 100 139c-56 26 -97 71 -97 145
c0 122 105 193 250 193c41 0 71 -6 97 -13l183 4v-72h-47l-57 2c37 -25 61 -63 61 -113c0 -112 -107 -174 -246 -174zM386 -54h-274c-4 -5 -5 -16 -5 -27c0 -58 65 -91 159 -91c87 0 168 19 168 80c0 26 -16 38 -48 38zM271 715h56c30 -8 50 -26 50 -62s-31 -64 -85 -64
c-61 0 -98 41 -98 96c0 69 51 122 177 122v-40c-67 0 -98 -25 -100 -52zM272 230c41 0 51 46 51 136c0 74 -17 142 -58 142c-40 0 -51 -47 -51 -132c0 -79 18 -146 58 -146z" />
    <glyph glyph-name="gdotaccent" unicode="&#x121;" horiz-adv-x="571" 
d="M265 187c-38 0 -79 5 -116 17c-13 -12 -25 -25 -25 -44c0 -15 10 -27 27 -27h223c144 0 200 -62 200 -154c0 -131 -123 -202 -311 -202c-164 0 -266 42 -266 121c0 49 50 70 92 74c-43 17 -68 61 -68 104c0 68 46 111 100 139c-56 26 -97 71 -97 145
c0 122 105 193 250 193c41 0 71 -6 97 -13l183 4v-72h-47l-57 2c37 -25 61 -63 61 -113c0 -112 -107 -174 -246 -174zM285 594c-67 0 -106 46 -106 99s39 99 106 99c66 0 106 -46 106 -99s-40 -99 -106 -99zM386 -54h-274c-4 -5 -5 -16 -5 -27c0 -58 65 -91 159 -91
c87 0 168 19 168 80c0 26 -16 38 -48 38zM272 230c41 0 51 46 51 136c0 74 -17 142 -58 142c-40 0 -51 -47 -51 -132c0 -79 18 -146 58 -146z" />
    <glyph glyph-name="hbar" unicode="&#x127;" horiz-adv-x="680" 
d="M71 78v509h-53v56h53v34l-53 27v34l224 45h35v-140h118v-56h-118v-135c36 47 93 101 187 101c97 0 155 -54 155 -164v-311c0 -30 16 -33 53 -36v-42h-309v42c37 3 50 6 50 36v293c0 37 -12 62 -62 62c-28 0 -51 -5 -74 -13v-342c0 -30 13 -33 50 -36v-42h-309v42
c37 3 53 6 53 36z" />
    <glyph glyph-name="hcircumflex" unicode="&#x125;" horiz-adv-x="680" 
d="M71 78v599l-53 27v34l224 45h35v-331c36 47 93 101 187 101c97 0 155 -54 155 -164v-311c0 -30 16 -33 53 -36v-42h-309v42c37 3 50 6 50 36v293c0 37 -12 62 -62 62c-28 0 -51 -5 -74 -13v-342c0 -30 13 -33 50 -36v-42h-309v42c37 3 53 6 53 36zM413 955l118 -152h-65
l-121 65l-121 -65h-65l118 152h136z" />
    <glyph glyph-name="ibreve" unicode="&#x12d;" horiz-adv-x="350" 
d="M281 553v-475c0 -30 16 -33 53 -36v-42h-312v42c37 3 53 6 53 36v350l-53 34v31l223 60h36zM182 598c-96 0 -149 64 -149 170h50c8 -54 49 -70 99 -70s91 16 99 70h50c0 -106 -53 -170 -149 -170z" />
    <glyph glyph-name="imacron" unicode="&#x12b;" horiz-adv-x="350" 
d="M281 553v-475c0 -30 16 -33 53 -36v-42h-312v42c37 3 53 6 53 36v350l-53 34v31l223 60h36zM35 625v95h294v-95h-294z" />
    <glyph glyph-name="iogonek" unicode="&#x12f;" horiz-adv-x="350" 
d="M281 553v-475c0 -30 16 -33 53 -36v-42h-108c-35 -25 -52 -54 -52 -91c0 -28 15 -50 45 -50c24 0 38 7 59 21l17 -21c-39 -50 -78 -75 -138 -75c-52 0 -96 31 -96 84c0 60 44 102 102 132h-141v42c37 3 53 6 53 36v350l-53 34v31l223 60h36zM181 590
c-67 0 -106 46 -106 99s39 99 106 99c66 0 106 -46 106 -99s-40 -99 -106 -99z" />
    <glyph glyph-name="itilde" unicode="&#x129;" horiz-adv-x="350" 
d="M236 603c-62 0 -88 60 -129 60c-27 0 -44 -24 -62 -55l-38 22c32 86 62 138 115 138c62 0 88 -59 129 -59c26 0 43 24 61 54l38 -21c-31 -86 -61 -139 -114 -139zM281 553v-475c0 -30 16 -33 53 -36v-42h-312v42c37 3 53 6 53 36v350l-53 34v31l223 60h36z" />
    <glyph glyph-name="ij" unicode="&#x133;" horiz-adv-x="665" 
d="M281 553v-475c0 -30 16 -33 53 -36v-42h-312v42c37 3 53 6 53 36v350l-53 34v31l223 60h36zM181 590c-67 0 -106 46 -106 99s39 99 106 99c66 0 106 -46 106 -99s-40 -99 -106 -99zM409 428l-53 34v31l223 60h36v-442c0 -119 -29 -171 -80 -217
c-62 -55 -109 -76 -183 -105l-17 22l41 63c32 50 33 114 33 192v362zM512 590c-67 0 -106 46 -106 99s39 99 106 99c66 0 106 -46 106 -99s-40 -99 -106 -99z" />
    <glyph glyph-name="jcircumflex" unicode="&#x135;" horiz-adv-x="315" 
d="M59 428l-53 34v31l223 60h36v-442c0 -119 -29 -171 -80 -217c-62 -55 -109 -76 -183 -105l-17 22l41 63c32 50 33 114 33 192v362zM217 766l107 -167h-59l-110 79l-110 -79h-60l108 167h124z" />
    <glyph glyph-name="kcommaaccent" unicode="&#x137;" horiz-adv-x="662" 
d="M283 283l152 137c28 25 34 38 34 51c0 18 -13 25 -59 30v42h233v-42c-33 -4 -57 -9 -84 -36l-106 -102l209 -334v-29h-212zM71 78v599l-53 27v34l224 45h35v-705c0 -30 16 -33 53 -36v-42h-312v42c37 3 53 6 53 36zM355 -158h-56c-30 8 -50 26 -50 62s31 64 85 64
c61 0 98 -41 98 -96c0 -69 -51 -122 -177 -122v40c67 0 98 25 100 52z" />
    <glyph glyph-name="kgreenlandic" unicode="&#x138;" horiz-adv-x="666" 
d="M287 283l152 137c28 25 34 38 34 51c0 18 -13 25 -59 30v42h233v-42c-33 -4 -57 -9 -84 -36l-106 -102l209 -334v-29h-212zM75 78v349l-53 36v30l224 60h35v-475c0 -30 16 -33 53 -36v-42h-312v42c37 3 53 6 53 36z" />
    <glyph glyph-name="lacute" unicode="&#x13a;" horiz-adv-x="346" 
d="M277 783v-705c0 -30 16 -33 53 -36v-42h-312v42c37 3 53 6 53 36v599l-53 27v34l224 45h35zM161 953h197v-10l-180 -139h-64z" />
    <glyph glyph-name="lcaron" unicode="&#x13e;" horiz-adv-x="346" 
d="M277 783v-705c0 -30 16 -33 53 -36v-42h-312v42c37 3 53 6 53 36v599l-53 27v34l224 45h35zM483 771l-119 -193h-47l11 205h155v-12z" />
    <glyph glyph-name="lcommaaccent" unicode="&#x13c;" horiz-adv-x="346" 
d="M277 783v-705c0 -30 16 -33 53 -36v-42h-312v42c37 3 53 6 53 36v599l-53 27v34l224 45h35zM189 -158h-56c-30 8 -50 26 -50 62s31 64 85 64c61 0 98 -41 98 -96c0 -69 -51 -122 -177 -122v40c67 0 98 25 100 52z" />
    <glyph glyph-name="ldot" unicode="&#x140;" horiz-adv-x="488" 
d="M277 783v-705c0 -30 16 -33 53 -36v-42h-312v42c37 3 53 6 53 36v599l-53 27v34l224 45h35zM309 390c0 62 46 105 104 105s104 -43 104 -105s-46 -104 -104 -104s-104 42 -104 104z" />
    <glyph glyph-name="nacute" unicode="&#x144;" horiz-adv-x="684" 
d="M417 78v293c0 37 -12 62 -62 62c-28 0 -51 -5 -74 -13v-342c0 -30 13 -33 50 -36v-42h-309v42c37 3 53 6 53 36v350l-53 34v31l223 60h40l-4 -101c36 47 93 101 187 101c97 0 155 -54 155 -164v-311c0 -30 16 -33 53 -36v-42h-309v42c37 3 50 6 50 36zM346 766h197v-10
l-185 -153h-59z" />
    <glyph glyph-name="ncaron" unicode="&#x148;" horiz-adv-x="684" 
d="M417 78v293c0 37 -12 62 -62 62c-28 0 -51 -5 -74 -13v-342c0 -30 13 -33 50 -36v-42h-309v42c37 3 53 6 53 36v350l-53 34v31l223 60h40l-4 -101c36 47 93 101 187 101c97 0 155 -54 155 -164v-311c0 -30 16 -33 53 -36v-42h-309v42c37 3 50 6 50 36zM547 771l-118 -169
h-136l-118 169h65l121 -80l121 80h65z" />
    <glyph glyph-name="ncommaaccent" unicode="&#x146;" horiz-adv-x="684" 
d="M417 78v293c0 37 -12 62 -62 62c-28 0 -51 -5 -74 -13v-342c0 -30 13 -33 50 -36v-42h-309v42c37 3 53 6 53 36v350l-53 34v31l223 60h40l-4 -101c36 47 93 101 187 101c97 0 155 -54 155 -164v-311c0 -30 16 -33 53 -36v-42h-309v42c37 3 50 6 50 36zM376 -158h-56
c-30 8 -50 26 -50 62s31 64 85 64c61 0 98 -41 98 -96c0 -69 -51 -122 -177 -122v40c67 0 98 25 100 52z" />
    <glyph glyph-name="eng" unicode="&#x14b;" horiz-adv-x="673" 
d="M417 66v305c0 37 -12 62 -62 62c-28 0 -51 -5 -74 -13v-342c0 -30 13 -33 50 -36v-42h-309v42c37 3 53 6 53 36v350l-53 34v31l223 60h40l-4 -101c36 47 93 101 187 101c97 0 155 -54 155 -164v-278c0 -119 -29 -171 -80 -217c-62 -55 -109 -76 -183 -105l-17 22l41 63
c32 50 33 114 33 192z" />
    <glyph glyph-name="obreve" unicode="&#x14f;" horiz-adv-x="620" 
d="M315 34c53 0 66 74 66 199c0 171 -19 276 -76 276c-53 0 -66 -74 -66 -199c0 -171 19 -276 76 -276zM310 -10c-171 0 -290 105 -290 272s119 291 290 291s290 -105 290 -272s-119 -291 -290 -291zM314 598c-96 0 -149 64 -149 170h50c8 -54 49 -70 99 -70s91 16 99 70h50
c0 -106 -53 -170 -149 -170z" />
    <glyph glyph-name="ohungarumlaut" unicode="&#x151;" horiz-adv-x="620" 
d="M315 34c53 0 66 74 66 199c0 171 -19 276 -76 276c-53 0 -66 -74 -66 -199c0 -171 19 -276 76 -276zM310 -10c-171 0 -290 105 -290 272s119 291 290 291s290 -105 290 -272s-119 -291 -290 -291zM225 766h162v-10l-149 -153h-61zM413 766h162v-10l-149 -153h-61z" />
    <glyph glyph-name="omacron" unicode="&#x14d;" horiz-adv-x="620" 
d="M315 34c53 0 66 74 66 199c0 171 -19 276 -76 276c-53 0 -66 -74 -66 -199c0 -171 19 -276 76 -276zM310 -10c-171 0 -290 105 -290 272s119 291 290 291s290 -105 290 -272s-119 -291 -290 -291zM167 625v95h294v-95h-294z" />
    <glyph glyph-name="oslashacute" unicode="&#x1ff;" horiz-adv-x="620" 
d="M310 -10c-57 0 -108 11 -151 33l-61 -83l-38 27l59 81c-62 47 -99 121 -99 214c0 167 119 291 290 291c58 0 110 -12 153 -35l57 78l38 -27l-56 -76c61 -47 98 -120 98 -212c0 -167 -119 -291 -290 -291zM239 310c0 -35 1 -67 2 -95l131 179c-11 73 -31 115 -67 115
c-53 0 -66 -74 -66 -199zM315 34c53 0 66 74 66 199c0 32 -1 63 -3 90l-130 -178c11 -71 31 -111 67 -111zM295 766h197v-10l-185 -153h-59z" />
    <glyph glyph-name="racute" unicode="&#x155;" horiz-adv-x="478" 
d="M281 355v-258c0 -44 22 -47 78 -55v-42h-337v42c37 3 53 6 53 36v350l-53 34v31l223 60h40l-4 -156c38 120 75 156 139 156c25 0 42 -7 53 -17v-153h-26c-64 0 -123 -2 -166 -28zM254 766h197v-10l-185 -153h-59z" />
    <glyph glyph-name="rcaron" unicode="&#x159;" horiz-adv-x="478" 
d="M281 355v-258c0 -44 22 -47 78 -55v-42h-337v42c37 3 53 6 53 36v350l-53 34v31l223 60h40l-4 -156c38 120 75 156 139 156c25 0 42 -7 53 -17v-153h-26c-64 0 -123 -2 -166 -28zM455 771l-118 -169h-136l-118 169h65l121 -80l121 80h65z" />
    <glyph glyph-name="rcommaaccent" unicode="&#x157;" horiz-adv-x="478" 
d="M281 355v-258c0 -44 22 -47 78 -55v-42h-337v42c37 3 53 6 53 36v350l-53 34v31l223 60h40l-4 -156c38 120 75 156 139 156c25 0 42 -7 53 -17v-153h-26c-64 0 -123 -2 -166 -28zM202 -158h-56c-30 8 -50 26 -50 62s31 64 85 64c61 0 98 -41 98 -96
c0 -69 -51 -122 -177 -122v40c67 0 98 25 100 52z" />
    <glyph glyph-name="sacute" unicode="&#x15b;" horiz-adv-x="487" 
d="M231 -10c-87 0 -151 20 -196 51l-6 135h51c18 -80 72 -141 149 -141c45 0 81 21 81 63c0 49 -39 64 -103 83c-116 34 -179 84 -179 189c0 119 90 183 215 183c69 0 133 -18 176 -46v-120h-47c-10 63 -55 121 -124 121c-40 0 -68 -21 -68 -57c0 -40 29 -55 90 -75
c125 -41 192 -82 192 -197c0 -121 -91 -189 -231 -189zM238 766h197v-10l-185 -153h-59z" />
    <glyph glyph-name="scedilla" unicode="&#x15f;" horiz-adv-x="487" 
d="M127 -233l-9 37c72 0 103 22 103 47c0 27 -30 30 -77 32l43 109c-65 6 -115 23 -152 49l-6 135h51c18 -80 72 -141 149 -141c45 0 81 21 81 63c0 49 -39 64 -103 83c-116 34 -179 84 -179 189c0 119 90 183 215 183c69 0 133 -18 176 -46v-120h-47
c-10 63 -55 121 -124 121c-40 0 -68 -21 -68 -57c0 -40 29 -55 90 -75c125 -41 192 -82 192 -197c0 -121 -91 -189 -231 -189h-5l-11 -28c64 0 107 -31 107 -84c0 -77 -95 -111 -195 -111z" />
    <glyph glyph-name="scircumflex" unicode="&#x15d;" horiz-adv-x="487" 
d="M231 -10c-87 0 -151 20 -196 51l-6 135h51c18 -80 72 -141 149 -141c45 0 81 21 81 63c0 49 -39 64 -103 83c-116 34 -179 84 -179 189c0 119 90 183 215 183c69 0 133 -18 176 -46v-120h-47c-10 63 -55 121 -124 121c-40 0 -68 -21 -68 -57c0 -40 29 -55 90 -75
c125 -41 192 -82 192 -197c0 -121 -91 -189 -231 -189zM321 766l118 -169h-65l-121 80l-121 -80h-65l118 169h136z" />
    <glyph glyph-name="scommaaccent" unicode="&#x219;" horiz-adv-x="487" 
d="M231 -10c-87 0 -151 20 -196 51l-6 135h51c18 -80 72 -141 149 -141c45 0 81 21 81 63c0 49 -39 64 -103 83c-116 34 -179 84 -179 189c0 119 90 183 215 183c69 0 133 -18 176 -46v-120h-47c-10 63 -55 121 -124 121c-40 0 -68 -21 -68 -57c0 -40 29 -55 90 -75
c125 -41 192 -82 192 -197c0 -121 -91 -189 -231 -189zM256 -158h-56c-30 8 -50 26 -50 62s31 64 85 64c61 0 98 -41 98 -96c0 -69 -51 -122 -177 -122v40c67 0 98 25 100 52z" />
    <glyph glyph-name="tbar" unicode="&#x167;" horiz-adv-x="415" 
d="M273 682v-139h111v-57h-111v-103h111v-57h-111v-171c0 -43 17 -62 51 -62c24 0 47 9 70 25l16 -25c-40 -67 -99 -103 -183 -103c-96 0 -163 48 -163 168v168h-54v57h54v103h-54v37c85 30 163 89 219 159h44z" />
    <glyph glyph-name="tcaron" unicode="&#x165;" horiz-adv-x="405" 
d="M268 682v-139h111v-57h-111v-331c0 -43 17 -62 51 -62c24 0 47 9 70 25l16 -25c-40 -67 -99 -103 -183 -103c-96 0 -163 48 -163 168v328h-54v37c85 30 163 89 219 159h44zM468 771l-119 -193h-47l11 205h155v-12z" />
    <glyph glyph-name="ubreve" unicode="&#x16d;" horiz-adv-x="669" 
d="M600 421v-302c0 -34 3 -51 32 -51h23v-44l-225 -34h-39l3 98c-34 -46 -87 -98 -180 -98c-90 0 -154 54 -154 171v237c0 28 -7 51 -35 60l-15 5v40l224 50h38l-6 -132v-242c0 -46 18 -72 63 -72c25 0 40 3 65 11v280c0 28 -7 51 -35 60l-15 5v40l224 50h38zM334 598
c-96 0 -149 64 -149 170h50c8 -54 49 -70 99 -70s91 16 99 70h50c0 -106 -53 -170 -149 -170z" />
    <glyph glyph-name="uhungarumlaut" unicode="&#x171;" horiz-adv-x="669" 
d="M600 421v-302c0 -34 3 -51 32 -51h23v-44l-225 -34h-39l3 98c-34 -46 -87 -98 -180 -98c-90 0 -154 54 -154 171v237c0 28 -7 51 -35 60l-15 5v40l224 50h38l-6 -132v-242c0 -46 18 -72 63 -72c25 0 40 3 65 11v280c0 28 -7 51 -35 60l-15 5v40l224 50h38zM245 766h162
v-10l-149 -153h-61zM433 766h162v-10l-149 -153h-61z" />
    <glyph glyph-name="umacron" unicode="&#x16b;" horiz-adv-x="669" 
d="M600 421v-302c0 -34 3 -51 32 -51h23v-44l-225 -34h-39l3 98c-34 -46 -87 -98 -180 -98c-90 0 -154 54 -154 171v237c0 28 -7 51 -35 60l-15 5v40l224 50h38l-6 -132v-242c0 -46 18 -72 63 -72c25 0 40 3 65 11v280c0 28 -7 51 -35 60l-15 5v40l224 50h38zM187 625v95
h294v-95h-294z" />
    <glyph glyph-name="uogonek" unicode="&#x173;" horiz-adv-x="669" 
d="M600 421v-302c0 -34 3 -51 32 -51h23v-44c-191 -25 -243 -44 -243 -117c0 -26 15 -48 45 -48c24 0 38 7 59 21l17 -21c-39 -50 -78 -75 -136 -75c-54 0 -98 31 -98 89c0 53 33 87 92 117l3 98c-34 -46 -87 -98 -180 -98c-90 0 -154 54 -154 171v237c0 28 -7 51 -35 60
l-15 5v40l224 50h38l-6 -132v-242c0 -46 18 -72 63 -72c25 0 40 3 65 11v280c0 28 -7 51 -35 60l-15 5v40l224 50h38z" />
    <glyph glyph-name="uring" unicode="&#x16f;" horiz-adv-x="669" 
d="M600 421v-302c0 -34 3 -51 32 -51h23v-44l-225 -34h-39l3 98c-34 -46 -87 -98 -180 -98c-90 0 -154 54 -154 171v237c0 28 -7 51 -35 60l-15 5v40l224 50h38l-6 -132v-242c0 -46 18 -72 63 -72c25 0 40 3 65 11v280c0 28 -7 51 -35 60l-15 5v40l224 50h38zM285 684
c0 -28 17 -49 49 -49s49 21 49 49c0 29 -17 50 -49 50s-49 -21 -49 -50zM226 684c0 59 45 105 108 105s107 -46 107 -105c0 -58 -44 -104 -107 -104s-108 46 -108 104z" />
    <glyph glyph-name="utilde" unicode="&#x169;" horiz-adv-x="669" 
d="M600 421v-302c0 -34 3 -51 32 -51h23v-44l-225 -34h-39l3 98c-34 -46 -87 -98 -180 -98c-90 0 -154 54 -154 171v237c0 28 -7 51 -35 60l-15 5v40l224 50h38l-6 -132v-242c0 -46 18 -72 63 -72c25 0 40 3 65 11v280c0 28 -7 51 -35 60l-15 5v40l224 50h38zM400 602
c-65 0 -93 60 -136 60c-28 0 -46 -24 -65 -55l-40 22c33 86 65 139 121 139c65 0 93 -60 136 -60c28 0 46 24 65 55l40 -22c-33 -86 -65 -139 -121 -139z" />
    <glyph glyph-name="wacute" unicode="&#x1e83;" horiz-adv-x="923" 
d="M708 236l82 202c5 13 8 24 8 32c0 20 -17 27 -55 31v42h175v-42c-34 -11 -42 -18 -51 -40l-200 -464h-68l-118 302l-142 -302h-68l-215 464c-10 22 -17 29 -51 40v42h318v-42c-30 -4 -42 -13 -42 -29c0 -9 3 -20 9 -34l90 -214l70 145l-36 92c-8 22 -20 32 -45 40v42h316
v-42c-41 -5 -60 -9 -60 -33c0 -8 2 -18 6 -30zM478 766h197v-10l-185 -153h-59z" />
    <glyph glyph-name="wcircumflex" unicode="&#x175;" horiz-adv-x="923" 
d="M708 236l82 202c5 13 8 24 8 32c0 20 -17 27 -55 31v42h175v-42c-34 -11 -42 -18 -51 -40l-200 -464h-68l-118 302l-142 -302h-68l-215 464c-10 22 -17 29 -51 40v42h318v-42c-30 -4 -42 -13 -42 -29c0 -9 3 -20 9 -34l90 -214l70 145l-36 92c-8 22 -20 32 -45 40v42h316
v-42c-41 -5 -60 -9 -60 -33c0 -8 2 -18 6 -30zM561 766l118 -169h-65l-121 80l-121 -80h-65l118 169h136z" />
    <glyph glyph-name="wgrave" unicode="&#x1e81;" horiz-adv-x="923" 
d="M708 236l82 202c5 13 8 24 8 32c0 20 -17 27 -55 31v42h175v-42c-34 -11 -42 -18 -51 -40l-200 -464h-68l-118 302l-142 -302h-68l-215 464c-10 22 -17 29 -51 40v42h318v-42c-30 -4 -42 -13 -42 -29c0 -9 3 -20 9 -34l90 -214l70 145l-36 92c-8 22 -20 32 -45 40v42h316
v-42c-41 -5 -60 -9 -60 -33c0 -8 2 -18 6 -30zM307 766h197l47 -163h-59l-185 153v10z" />
    <glyph glyph-name="wdieresis" unicode="&#x1e85;" horiz-adv-x="923" 
d="M708 236l82 202c5 13 8 24 8 32c0 20 -17 27 -55 31v42h175v-42c-34 -11 -42 -18 -51 -40l-200 -464h-68l-118 302l-142 -302h-68l-215 464c-10 22 -17 29 -51 40v42h318v-42c-30 -4 -42 -13 -42 -29c0 -9 3 -20 9 -34l90 -214l70 145l-36 92c-8 22 -20 32 -45 40v42h316
v-42c-41 -5 -60 -9 -60 -33c0 -8 2 -18 6 -30zM299 691c0 48 40 88 89 88s90 -40 90 -88s-41 -88 -90 -88s-89 40 -89 88zM509 691c0 48 41 88 88 88c51 0 91 -40 91 -88s-40 -88 -91 -88c-47 0 -88 40 -88 88z" />
    <glyph glyph-name="ycircumflex" unicode="&#x177;" horiz-adv-x="616" 
d="M387 202l94 234c5 14 8 21 8 30c0 21 -12 28 -65 35v42h187v-42c-34 -11 -42 -18 -51 -40l-232 -544c-39 -91 -78 -139 -150 -139c-41 0 -71 16 -86 40v81c27 -5 50 -10 82 -10c57 0 84 16 101 52l15 32l-234 488c-10 22 -17 29 -51 40v42h342v-42
c-53 -7 -65 -14 -65 -35c0 -9 3 -16 7 -28zM422 766l118 -169h-65l-121 80l-121 -80h-65l118 169h136z" />
    <glyph glyph-name="ygrave" unicode="&#x1ef3;" horiz-adv-x="616" 
d="M387 202l94 234c5 14 8 21 8 30c0 21 -12 28 -65 35v42h187v-42c-34 -11 -42 -18 -51 -40l-232 -544c-39 -91 -78 -139 -150 -139c-41 0 -71 16 -86 40v81c27 -5 50 -10 82 -10c57 0 84 16 101 52l15 32l-234 488c-10 22 -17 29 -51 40v42h342v-42
c-53 -7 -65 -14 -65 -35c0 -9 3 -16 7 -28zM168 766h197l47 -163h-59l-185 153v10z" />
    <glyph glyph-name="zacute" unicode="&#x17a;" horiz-adv-x="550" 
d="M15 0v38l280 457h-80c-51 0 -86 -49 -137 -156h-42l14 236h40l22 -32h415v-37l-274 -457h90c69 0 100 44 156 154h41l-24 -203h-501zM286 766h197v-10l-185 -153h-59z" />
    <glyph glyph-name="zdotaccent" unicode="&#x17c;" horiz-adv-x="550" 
d="M15 0v38l280 457h-80c-51 0 -86 -49 -137 -156h-42l14 236h40l22 -32h415v-37l-274 -457h90c69 0 100 44 156 154h41l-24 -203h-501zM301 594c-67 0 -106 46 -106 99s39 99 106 99c66 0 106 -46 106 -99s-40 -99 -106 -99z" />
    <glyph glyph-name="caron.Slovak" 
d="M360 771l-119 -193h-47l11 205h155v-12z" />
    <glyph glyph-name="cedilla.alt" 
d="M148 -233l-9 37c72 0 103 22 103 47c0 27 -30 30 -77 32l32 79h35c68 0 111 -31 111 -84c0 -77 -95 -111 -195 -111z" />
    <glyph glyph-name="grave.cap" 
d="M114 890h197l47 -149h-64l-180 139v10z" />
    <glyph glyph-name="acute.cap" 
d="M161 890h197v-10l-180 -139h-64z" />
    <glyph glyph-name="circumflex.cap" 
d="M318 893l118 -152h-65l-121 65l-121 -65h-65l118 152h136z" />
    <glyph glyph-name="tilde.cap" 
d="M310 741c-65 0 -93 60 -136 60c-28 0 -46 -24 -65 -55l-40 22c33 86 65 139 121 139c65 0 93 -60 136 -60c28 0 46 24 65 55l40 -22c-33 -86 -65 -139 -121 -139z" />
    <glyph glyph-name="macron.cap" 
d="M110 746v95h294v-95h-294z" />
    <glyph glyph-name="breve.cap" 
d="M259 738c-96 0 -150 59 -150 156h51c9 -47 55 -59 99 -59s90 12 99 59h51c0 -97 -54 -156 -150 -156z" />
    <glyph glyph-name="dotaccent.cap" 
d="M251 737c-67 0 -106 46 -106 99s39 99 106 99c66 0 106 -46 106 -99s-40 -99 -106 -99z" />
    <glyph glyph-name="dieresis.cap" 
d="M61 823c0 48 40 88 89 88s90 -40 90 -88s-41 -88 -90 -88s-89 40 -89 88zM271 823c0 48 41 88 88 88c51 0 91 -40 91 -88s-40 -88 -91 -88c-47 0 -88 40 -88 88z" />
    <glyph glyph-name="ring.cap" 
d="M212 829c0 -28 17 -49 49 -49s49 21 49 49c0 29 -17 50 -49 50s-49 -21 -49 -50zM153 829c0 59 45 105 108 105s107 -46 107 -105c0 -58 -44 -104 -107 -104s-108 46 -108 104z" />
    <glyph glyph-name="hungarumlaut.cap" 
d="M112 890h162v-10l-149 -139h-61zM300 890h162v-10l-149 -139h-61z" />
    <glyph glyph-name="caron.cap" 
d="M436 894l-118 -152h-136l-118 152h65l121 -65l121 65h65z" />
    <glyph glyph-name="exclamdown.cap" horiz-adv-x="305" 
d="M51 609c0 56 46 103 101 103c57 0 102 -47 102 -103c0 -59 -45 -106 -102 -106c-55 0 -101 47 -101 106zM119 461h67l88 -461h-243z" />
    <glyph glyph-name="questiondown.cap" horiz-adv-x="477" 
d="M173 102c0 -42 22 -69 63 -69c54 0 69 48 69 97c0 30 -3 41 -6 61h119c29 -14 44 -38 44 -69c0 -81 -88 -132 -224 -132c-148 0 -228 62 -228 171c0 86 46 139 138 191c57 33 79 55 79 102v9h29c55 -19 88 -56 88 -112c0 -43 -25 -86 -77 -124c-51 -38 -94 -71 -94 -125z
M346 609c0 -59 -45 -106 -101 -106c-57 0 -102 47 -102 106c0 56 45 103 102 103c56 0 101 -47 101 -103z" />
    <glyph glyph-name="guilsinglleft.cap" horiz-adv-x="277" 
d="M20 348v6l187 202h50l-82 -205l82 -205h-50z" />
    <glyph glyph-name="guilsinglright.cap" horiz-adv-x="277" 
d="M257 354v-6l-187 -202h-50l82 205l-82 205h50z" />
    <glyph glyph-name="guillemotleft.cap" horiz-adv-x="474" 
d="M20 348v6l187 202h50l-82 -205l82 -205h-50zM217 348v6l187 202h50l-82 -205l82 -205h-50z" />
    <glyph glyph-name="guillemotright.cap" horiz-adv-x="474" 
d="M454 354v-6l-187 -202h-50l82 205l-82 205h50zM257 354v-6l-187 -202h-50l82 205l-82 205h50z" />
    <glyph glyph-name="slash.cap" horiz-adv-x="357" 
d="M352 770l-260 -871h-87l260 871h87z" />
    <glyph glyph-name="backslash.cap" horiz-adv-x="357" 
d="M265 -101l-260 871h87l260 -871h-87z" />
    <glyph glyph-name="bar.cap" horiz-adv-x="202" 
d="M142 770v-871h-82v871h82z" />
    <glyph glyph-name="brokenbar.cap" horiz-adv-x="202" 
d="M142 770v-371h-82v371h82zM142 270v-371h-82v371h82z" />
    <glyph glyph-name="periodcentered.cap" horiz-adv-x="275" 
d="M30 345c0 63 48 108 107 108c60 0 108 -45 108 -108s-48 -107 -108 -107c-59 0 -107 44 -107 107z" />
    <glyph glyph-name="bullet.cap" horiz-adv-x="382" 
d="M30 349c0 91 73 165 161 165c89 0 161 -74 161 -165c0 -89 -72 -164 -161 -164c-88 0 -161 75 -161 164z" />
    <glyph glyph-name="hyphen.cap" horiz-adv-x="320" 
d="M290 307h-260v86h260v-86z" />
    <glyph glyph-name="endash.cap" horiz-adv-x="540" 
d="M510 312h-480v66h480v-66z" />
    <glyph glyph-name="emdash.cap" horiz-adv-x="960" 
d="M930 378v-66h-900v66h900z" />
    <glyph glyph-name="parenleft.cap" horiz-adv-x="378" 
d="M207 334c0 -145 42 -306 151 -436h-59c-148 106 -239 272 -239 436s91 330 239 436h59c-109 -130 -151 -291 -151 -436z" />
    <glyph glyph-name="parenright.cap" horiz-adv-x="378" 
d="M171 334c0 145 -42 306 -151 436h59c148 -106 239 -272 239 -436s-91 -330 -239 -436h-59c109 130 151 291 151 436z" />
    <glyph glyph-name="bracketleft.cap" horiz-adv-x="342" 
d="M209 668v-667c0 -52 23 -55 103 -60v-42h-227v871h227v-42c-80 -5 -103 -8 -103 -60z" />
    <glyph glyph-name="bracketright.cap" horiz-adv-x="342" 
d="M133 1v667c0 52 -23 55 -103 60v42h227v-871h-227v42c80 5 103 8 103 60z" />
    <glyph glyph-name="braceleft.cap" horiz-adv-x="373" 
d="M50 324v20c48 10 83 36 83 100v198c0 79 57 128 215 128v-31c-47 -6 -85 -31 -85 -98v-185c0 -78 -50 -108 -121 -122c71 -14 121 -44 121 -122v-183c0 -67 38 -92 85 -98v-31c-158 0 -215 49 -215 128v196c0 64 -35 90 -83 100z" />
    <glyph glyph-name="braceright.cap" horiz-adv-x="383" 
d="M333 344v-20c-48 -10 -83 -36 -83 -100v-196c0 -79 -57 -128 -215 -128v31c47 6 85 31 85 98v183c0 78 50 108 121 122c-71 14 -121 44 -121 122v185c0 67 -38 92 -85 98v31c158 0 215 -49 215 -128v-198c0 -64 35 -90 83 -100z" />
    <glyph glyph-name="at.cap" horiz-adv-x="894" 
d="M610 139c-107 0 -130 75 -115 156c-50 -88 -97 -156 -174 -156c-59 0 -105 49 -105 129c0 135 109 286 259 286c48 0 83 -23 97 -42l78 32h46l-35 -94l-57 -198c-11 -39 -4 -74 29 -74c65 0 135 97 135 253c0 144 -107 281 -286 281c-217 0 -352 -174 -352 -391
c0 -229 157 -337 343 -337c110 0 186 25 270 76l14 -21c-72 -67 -175 -106 -306 -106c-216 0 -411 132 -411 385c0 243 187 437 442 437c235 0 372 -155 372 -324c0 -213 -142 -292 -244 -292zM389 236c55 0 117 123 143 250c-7 19 -20 31 -40 31c-74 0 -133 -138 -133 -231
c0 -31 9 -50 30 -50z" />
    <glyph glyph-name="uni2153" unicode="&#x2153;" horiz-adv-x="798" 
d="M202 712h36v-329c0 -35 10 -37 64 -41v-36h-262v36c64 4 66 6 66 41v210h-66v34l25 5c69 14 105 38 137 80zM151 -10l438 722h58l-439 -722h-57zM628 217c76 -1 130 -38 130 -105c0 -79 -78 -120 -173 -120c-99 0 -141 38 -141 83c0 27 16 41 29 47h72
c-4 -12 -5 -19 -5 -30c0 -42 18 -69 50 -69c30 0 47 26 47 72c0 49 -21 80 -76 80h-14l-8 23c57 23 69 41 69 72c0 25 -13 47 -49 47s-58 -21 -74 -41l-26 20c27 54 80 105 163 105c69 0 113 -34 113 -91c0 -56 -51 -85 -107 -93z" />
    <glyph glyph-name="uni2154" unicode="&#x2154;" horiz-adv-x="853" 
d="M206 -10l438 722h58l-439 -722h-57zM683 217c76 -1 130 -38 130 -105c0 -79 -78 -120 -173 -120c-99 0 -141 38 -141 83c0 27 16 41 29 47h72c-4 -12 -5 -19 -5 -30c0 -42 18 -69 50 -69c30 0 47 26 47 72c0 49 -21 80 -76 80h-14l-8 23c57 23 69 41 69 72
c0 25 -13 47 -49 47s-58 -21 -74 -41l-26 20c27 54 80 105 163 105c69 0 113 -34 113 -91c0 -56 -51 -85 -107 -93zM160 402h109c29 0 37 9 58 39h22l-11 -139h-308v28l117 108c43 40 63 74 63 116c0 39 -21 65 -63 65c-39 0 -67 -20 -86 -43l-23 20c28 59 84 112 168 112
c78 0 127 -42 127 -115c0 -87 -81 -140 -173 -191z" />
    <glyph glyph-name="uni215B" unicode="&#x215b;" horiz-adv-x="841" 
d="M202 712h41v-329c0 -35 10 -37 64 -41v-36h-267v36c64 4 66 6 66 41v210h-66v34l25 5c69 14 105 38 137 80zM151 -10l438 722h58l-439 -722h-57zM784 314c0 -46 -42 -69 -91 -71c69 -23 108 -70 108 -124c0 -91 -82 -129 -168 -129c-90 0 -172 32 -172 97
c0 46 39 70 92 77c-46 20 -80 57 -80 110c0 85 67 132 160 132s151 -37 151 -92zM653 126l-79 29c-11 -16 -19 -34 -19 -57c0 -48 36 -73 81 -73c38 0 64 20 64 49c0 30 -16 39 -47 52zM615 272l54 -19c15 14 22 29 22 53c0 39 -23 65 -62 65c-35 0 -56 -23 -56 -51
c0 -25 17 -39 42 -48z" />
    <glyph glyph-name="uni215C" unicode="&#x215c;" horiz-adv-x="867" 
d="M810 314c0 -46 -42 -69 -91 -71c69 -23 108 -70 108 -124c0 -91 -82 -129 -168 -129c-90 0 -172 32 -172 97c0 46 39 70 92 77c-46 20 -80 57 -80 110c0 85 67 132 160 132s151 -37 151 -92zM679 126l-79 29c-11 -16 -19 -34 -19 -57c0 -48 36 -73 81 -73
c38 0 64 20 64 49c0 30 -16 39 -47 52zM641 272l54 -19c15 14 22 29 22 53c0 39 -23 65 -62 65c-35 0 -56 -23 -56 -51c0 -25 17 -39 42 -48zM177 -10l438 722h58l-439 -722h-57zM224 528c76 -1 130 -38 130 -105c0 -79 -78 -120 -173 -120c-99 0 -141 38 -141 83
c0 27 15 41 28 47h73c-4 -12 -5 -19 -5 -30c0 -42 18 -69 50 -69c30 0 51 22 51 72c0 49 -25 80 -80 80h-14l-8 23c57 23 74 41 74 70c0 27 -18 49 -54 49s-58 -21 -74 -41l-26 20c27 54 80 105 163 105c69 0 113 -34 113 -91c0 -56 -51 -85 -107 -93z" />
    <glyph glyph-name="uni215D" unicode="&#x215d;" horiz-adv-x="862" 
d="M172 -10l438 722h58l-439 -722h-57zM341 727l-22 -131h-185l-6 -35c131 0 219 -26 219 -134c0 -77 -60 -125 -148 -125c-93 0 -154 34 -154 82c0 24 19 43 34 49h67c-4 -12 -5 -19 -5 -31c0 -41 18 -68 58 -68c34 0 55 21 55 54c0 59 -55 84 -175 84l39 230h155
c24 0 28 3 39 25h29zM805 314c0 -46 -42 -69 -91 -71c69 -23 108 -70 108 -124c0 -91 -82 -129 -168 -129c-90 0 -172 32 -172 97c0 46 39 70 92 77c-46 20 -80 57 -80 110c0 85 67 132 160 132s151 -37 151 -92zM674 126l-79 29c-11 -16 -19 -34 -19 -57
c0 -48 36 -73 81 -73c38 0 64 20 64 49c0 30 -16 39 -47 52zM636 272l54 -19c15 14 22 29 22 53c0 39 -23 65 -62 65c-35 0 -56 -23 -56 -51c0 -25 17 -39 42 -48z" />
    <glyph glyph-name="uni215E" unicode="&#x215e;" horiz-adv-x="776" 
d="M269 585h-137c-29 0 -48 -17 -63 -61h-39l33 178h301v-34l-200 -362h-81zM86 -10l438 722h58l-439 -722h-57zM719 314c0 -46 -42 -69 -91 -71c69 -23 108 -70 108 -124c0 -91 -82 -129 -168 -129c-90 0 -172 32 -172 97c0 46 39 70 92 77c-46 20 -80 57 -80 110
c0 85 67 132 160 132s151 -37 151 -92zM588 126l-79 29c-11 -16 -19 -34 -19 -57c0 -48 36 -73 81 -73c38 0 64 20 64 49c0 30 -16 39 -47 52zM550 272l54 -19c15 14 22 29 22 53c0 39 -23 65 -62 65c-35 0 -56 -23 -56 -51c0 -25 17 -39 42 -48z" />
    </font>
</defs>
</svg>
